G04 #@! TF.GenerationSoftware,KiCad,Pcbnew,5.1.5-52549c5~84~ubuntu18.04.1*
G04 #@! TF.CreationDate,2019-11-27T13:31:26-05:00*
G04 #@! TF.ProjectId,miniPCB,6d696e69-5043-4422-9e6b-696361645f70,rev?*
G04 #@! TF.SameCoordinates,Original*
G04 #@! TF.FileFunction,Legend,Bot*
G04 #@! TF.FilePolarity,Positive*
%FSLAX46Y46*%
G04 Gerber Fmt 4.6, Leading zero omitted, Abs format (unit mm)*
G04 Created by KiCad (PCBNEW 5.1.5-52549c5~84~ubuntu18.04.1) date 2019-11-27 13:31:26*
%MOMM*%
%LPD*%
G04 APERTURE LIST*
%ADD10C,0.150000*%
%ADD11C,0.120000*%
G04 APERTURE END LIST*
D10*
X125920952Y-192492380D02*
X125444761Y-192492380D01*
X125397142Y-192968571D01*
X125444761Y-192920952D01*
X125540000Y-192873333D01*
X125778095Y-192873333D01*
X125873333Y-192920952D01*
X125920952Y-192968571D01*
X125968571Y-193063809D01*
X125968571Y-193301904D01*
X125920952Y-193397142D01*
X125873333Y-193444761D01*
X125778095Y-193492380D01*
X125540000Y-193492380D01*
X125444761Y-193444761D01*
X125397142Y-193397142D01*
X126587619Y-192492380D02*
X126682857Y-192492380D01*
X126778095Y-192540000D01*
X126825714Y-192587619D01*
X126873333Y-192682857D01*
X126920952Y-192873333D01*
X126920952Y-193111428D01*
X126873333Y-193301904D01*
X126825714Y-193397142D01*
X126778095Y-193444761D01*
X126682857Y-193492380D01*
X126587619Y-193492380D01*
X126492380Y-193444761D01*
X126444761Y-193397142D01*
X126397142Y-193301904D01*
X126349523Y-193111428D01*
X126349523Y-192873333D01*
X126397142Y-192682857D01*
X126444761Y-192587619D01*
X126492380Y-192540000D01*
X126587619Y-192492380D01*
X127349523Y-193397142D02*
X127397142Y-193444761D01*
X127349523Y-193492380D01*
X127301904Y-193444761D01*
X127349523Y-193397142D01*
X127349523Y-193492380D01*
X127968571Y-192920952D02*
X127873333Y-192873333D01*
X127825714Y-192825714D01*
X127778095Y-192730476D01*
X127778095Y-192682857D01*
X127825714Y-192587619D01*
X127873333Y-192540000D01*
X127968571Y-192492380D01*
X128159047Y-192492380D01*
X128254285Y-192540000D01*
X128301904Y-192587619D01*
X128349523Y-192682857D01*
X128349523Y-192730476D01*
X128301904Y-192825714D01*
X128254285Y-192873333D01*
X128159047Y-192920952D01*
X127968571Y-192920952D01*
X127873333Y-192968571D01*
X127825714Y-193016190D01*
X127778095Y-193111428D01*
X127778095Y-193301904D01*
X127825714Y-193397142D01*
X127873333Y-193444761D01*
X127968571Y-193492380D01*
X128159047Y-193492380D01*
X128254285Y-193444761D01*
X128301904Y-193397142D01*
X128349523Y-193301904D01*
X128349523Y-193111428D01*
X128301904Y-193016190D01*
X128254285Y-192968571D01*
X128159047Y-192920952D01*
X128968571Y-192492380D02*
X129063809Y-192492380D01*
X129159047Y-192540000D01*
X129206666Y-192587619D01*
X129254285Y-192682857D01*
X129301904Y-192873333D01*
X129301904Y-193111428D01*
X129254285Y-193301904D01*
X129206666Y-193397142D01*
X129159047Y-193444761D01*
X129063809Y-193492380D01*
X128968571Y-193492380D01*
X128873333Y-193444761D01*
X128825714Y-193397142D01*
X128778095Y-193301904D01*
X128730476Y-193111428D01*
X128730476Y-192873333D01*
X128778095Y-192682857D01*
X128825714Y-192587619D01*
X128873333Y-192540000D01*
X128968571Y-192492380D01*
X129920952Y-192492380D02*
X130016190Y-192492380D01*
X130111428Y-192540000D01*
X130159047Y-192587619D01*
X130206666Y-192682857D01*
X130254285Y-192873333D01*
X130254285Y-193111428D01*
X130206666Y-193301904D01*
X130159047Y-193397142D01*
X130111428Y-193444761D01*
X130016190Y-193492380D01*
X129920952Y-193492380D01*
X129825714Y-193444761D01*
X129778095Y-193397142D01*
X129730476Y-193301904D01*
X129682857Y-193111428D01*
X129682857Y-192873333D01*
X129730476Y-192682857D01*
X129778095Y-192587619D01*
X129825714Y-192540000D01*
X129920952Y-192492380D01*
X131444761Y-193492380D02*
X131444761Y-192825714D01*
X131444761Y-192920952D02*
X131492380Y-192873333D01*
X131587619Y-192825714D01*
X131730476Y-192825714D01*
X131825714Y-192873333D01*
X131873333Y-192968571D01*
X131873333Y-193492380D01*
X131873333Y-192968571D02*
X131920952Y-192873333D01*
X132016190Y-192825714D01*
X132159047Y-192825714D01*
X132254285Y-192873333D01*
X132301904Y-192968571D01*
X132301904Y-193492380D01*
X132778095Y-193492380D02*
X132778095Y-192825714D01*
X132778095Y-192920952D02*
X132825714Y-192873333D01*
X132920952Y-192825714D01*
X133063809Y-192825714D01*
X133159047Y-192873333D01*
X133206666Y-192968571D01*
X133206666Y-193492380D01*
X133206666Y-192968571D02*
X133254285Y-192873333D01*
X133349523Y-192825714D01*
X133492380Y-192825714D01*
X133587619Y-192873333D01*
X133635238Y-192968571D01*
X133635238Y-193492380D01*
D11*
X104140000Y-191770000D02*
X154940000Y-191770000D01*
X104140000Y-156210000D02*
X104140000Y-192356421D01*
X154940000Y-156210000D02*
X154940000Y-192356421D01*
X154940000Y-191770000D02*
X153813496Y-192356421D01*
X154940000Y-191770000D02*
X153813496Y-191183579D01*
X104140000Y-191770000D02*
X105266504Y-192356421D01*
X104140000Y-191770000D02*
X105266504Y-191183579D01*
M02*
