M48
; DRILL file {KiCad 5.1.5-52549c5~84~ubuntu18.04.1} date Wed 27 Nov 2019 01:30:25 PM EST
; FORMAT={-:-/ absolute / inch / decimal}
; #@! TF.CreationDate,2019-11-27T13:30:25-05:00
; #@! TF.GenerationSoftware,Kicad,Pcbnew,5.1.5-52549c5~84~ubuntu18.04.1
FMAT,2
INCH
T1C0.0157
T2C0.0315
T3C0.0320
T4C0.0394
T5C0.0551
T6C0.0787
%
G90
G05
T1
X5.2Y-3.6
X5.2Y-3.95
X5.2Y-4.1
X5.35Y-3.95
X5.35Y-4.1
X5.375Y-3.6
X5.4Y-4.4
X5.45Y-4.45
X5.6Y-3.15
X5.6Y-3.5
X5.7Y-5.2
X5.75Y-3.25
X5.75Y-3.6
X5.8Y-3.35
X5.8Y-3.5
X5.8Y-3.75
X5.8Y-4.0006
X5.8Y-4.1
X5.85Y-3.25
X5.85Y-5.35
X5.8537Y-4.1617
X6.05Y-4.15
X6.0524Y-3.9392
X6.15Y-3.25
X6.15Y-4.0
X6.1933Y-4.1567
X6.2Y-3.8
X6.2Y-4.05
X6.2Y-5.4
X6.2087Y-4.0913
X6.25Y-3.25
X6.275Y-4.25
X6.2778Y-4.05
X6.325Y-4.1281
X6.3355Y-4.1931
X6.35Y-3.975
X6.35Y-4.04
X6.3933Y-4.3567
X6.4337Y-4.2913
X6.5Y-4.05
X6.5Y-4.25
X6.525Y-3.975
X6.55Y-3.5
X6.55Y-3.55
X6.55Y-3.9
X6.55Y-4.05
X6.55Y-4.15
X6.65Y-3.5
X6.65Y-3.55
X6.65Y-3.9
X6.65Y-4.05
X6.65Y-4.55
X6.65Y-5.25
X6.75Y-4.7
X6.85Y-4.7
X6.9Y-5.05
X7.6Y-3.45
X7.6Y-3.55
X7.6Y-3.9
X7.6Y-4.2
T2
X4.7Y-5.1
X4.7Y-5.4
X7.25Y-5.4
X7.55Y-5.4
X4.3Y-2.55
X4.6Y-2.55
X6.4266Y-4.55
X6.525Y-4.55
X4.4Y-5.1047
X4.4Y-5.4
X5.9Y-3.65
X5.9984Y-3.65
X4.3Y-3.3
X4.5953Y-3.3
X4.9Y-5.8
X5.2Y-5.8
X7.0Y-5.5
X7.0Y-5.8
X4.6Y-4.1
X4.8953Y-4.1
X6.4516Y-3.725
X6.55Y-3.725
X4.65Y-4.4
X4.9453Y-4.4
X7.8Y-5.5047
X7.8Y-5.8
T3
X7.25Y-5.6
X7.25Y-5.8
X7.55Y-5.6
X7.55Y-5.8
X4.3Y-2.8
X4.3Y-3.0
X4.6Y-2.8
X4.6Y-3.0
X4.4Y-5.6
X4.4Y-5.8
X4.7Y-5.6
X4.7Y-5.8
T4
X4.4Y-4.1
X4.4Y-4.2
X4.4Y-4.3
X4.4Y-4.4
X7.8Y-5.05
X6.0Y-2.4
X6.1Y-2.4
X6.2Y-2.4
X6.3Y-2.4
X5.3Y-4.8
X5.4Y-4.8
X5.5Y-4.8
X5.6Y-4.8
X5.7Y-4.8
X5.8Y-4.8
X5.9Y-4.8
X6.0Y-4.8
X6.1Y-4.8
X6.2Y-4.8
X6.3Y-4.8
X6.4Y-4.8
X6.5Y-4.8
X6.6Y-4.8
X6.7Y-4.8
X6.8Y-4.8
X6.9Y-4.8
X7.0Y-4.8
X7.1Y-4.8
X7.2Y-4.8
X7.85Y-3.85
X7.85Y-3.95
X7.85Y-4.05
X7.85Y-4.15
X6.6Y-5.85
X6.05Y-5.45
X7.5031Y-2.85
X7.6016Y-2.85
X7.7Y-2.85
X6.45Y-5.4
X6.45Y-5.5
X6.45Y-5.6
T5
X7.1Y-5.05
X7.5Y-5.05
T6
X7.4283Y-2.5744
X7.7748Y-2.5744
T0
M30
