M48
; DRILL file {KiCad 5.1.5-52549c5~84~ubuntu18.04.1} date Wed 27 Nov 2019 04:08:08 PM EST
; FORMAT={-:-/ absolute / inch / decimal}
; #@! TF.CreationDate,2019-11-27T16:08:08-05:00
; #@! TF.GenerationSoftware,Kicad,Pcbnew,5.1.5-52549c5~84~ubuntu18.04.1
FMAT,2
INCH
T1C0.0157
T2C0.0315
T3C0.0320
T4C0.0394
%
G90
G05
T1
X4.175Y-3.475
X4.325Y-3.325
X4.625Y-2.75
X4.625Y-2.85
X4.775Y-2.75
X4.9Y-3.175
X5.0Y-2.8
X5.375Y-3.475
X5.45Y-2.8
X5.65Y-3.3919
T2
X4.875Y-3.3266
X4.875Y-3.425
X5.025Y-3.075
X5.1234Y-3.075
X3.65Y-1.4547
X3.65Y-1.75
X5.775Y-3.75
X5.775Y-3.8484
X4.175Y-2.0
X4.175Y-2.3
T3
X3.875Y-1.55
X3.875Y-1.75
X4.175Y-1.55
X4.175Y-1.75
X6.725Y-4.6
X6.725Y-4.8
X7.025Y-4.6
X7.025Y-4.8
X3.775Y-4.575
X3.775Y-4.775
X4.075Y-4.575
X4.075Y-4.775
T4
X5.225Y-4.275
X5.325Y-4.275
X5.425Y-4.275
X5.525Y-4.275
X5.625Y-4.275
X3.8Y-2.8
X3.9Y-2.8
X6.55Y-2.725
X6.55Y-2.825
X6.55Y-3.325
X6.55Y-3.425
X5.85Y-2.8
X5.85Y-2.9
X5.85Y-3.0
X5.85Y-3.1
X5.85Y-3.2
X3.9Y-3.325
X3.9Y-3.425
X3.9Y-3.525
X4.625Y-3.775
X4.625Y-3.875
X4.625Y-3.975
X4.625Y-4.075
X4.625Y-4.175
X7.1Y-3.55
X7.1Y-3.65
X5.025Y-2.55
X5.125Y-2.55
X5.225Y-2.55
X5.325Y-2.55
X5.425Y-2.55
X5.525Y-2.55
X5.625Y-2.55
T0
M30
