G04 #@! TF.GenerationSoftware,KiCad,Pcbnew,5.1.5-52549c5~84~ubuntu18.04.1*
G04 #@! TF.CreationDate,2019-11-27T16:08:14-05:00*
G04 #@! TF.ProjectId,miniPCB,6d696e69-5043-4422-9e6b-696361645f70,rev?*
G04 #@! TF.SameCoordinates,Original*
G04 #@! TF.FileFunction,Soldermask,Bot*
G04 #@! TF.FilePolarity,Negative*
%FSLAX46Y46*%
G04 Gerber Fmt 4.6, Leading zero omitted, Abs format (unit mm)*
G04 Created by KiCad (PCBNEW 5.1.5-52549c5~84~ubuntu18.04.1) date 2019-11-27 16:08:14*
%MOMM*%
%LPD*%
G04 APERTURE LIST*
%ADD10C,0.100000*%
G04 APERTURE END LIST*
D10*
G36*
X178529425Y-121174599D02*
G01*
X178653621Y-121199302D01*
X178790022Y-121255801D01*
X178912779Y-121337825D01*
X179017175Y-121442221D01*
X179099199Y-121564978D01*
X179155698Y-121701379D01*
X179184500Y-121846181D01*
X179184500Y-121993819D01*
X179155698Y-122138621D01*
X179099199Y-122275022D01*
X179017175Y-122397779D01*
X178912779Y-122502175D01*
X178790022Y-122584199D01*
X178653621Y-122640698D01*
X178529425Y-122665401D01*
X178508820Y-122669500D01*
X178361180Y-122669500D01*
X178340575Y-122665401D01*
X178216379Y-122640698D01*
X178079978Y-122584199D01*
X177957221Y-122502175D01*
X177852825Y-122397779D01*
X177770801Y-122275022D01*
X177714302Y-122138621D01*
X177685500Y-121993819D01*
X177685500Y-121846181D01*
X177714302Y-121701379D01*
X177770801Y-121564978D01*
X177852825Y-121442221D01*
X177957221Y-121337825D01*
X178079978Y-121255801D01*
X178216379Y-121199302D01*
X178340575Y-121174599D01*
X178361180Y-121170500D01*
X178508820Y-121170500D01*
X178529425Y-121174599D01*
G37*
G36*
X170909425Y-121174599D02*
G01*
X171033621Y-121199302D01*
X171170022Y-121255801D01*
X171292779Y-121337825D01*
X171397175Y-121442221D01*
X171479199Y-121564978D01*
X171535698Y-121701379D01*
X171564500Y-121846181D01*
X171564500Y-121993819D01*
X171535698Y-122138621D01*
X171479199Y-122275022D01*
X171397175Y-122397779D01*
X171292779Y-122502175D01*
X171170022Y-122584199D01*
X171033621Y-122640698D01*
X170909425Y-122665401D01*
X170888820Y-122669500D01*
X170741180Y-122669500D01*
X170720575Y-122665401D01*
X170596379Y-122640698D01*
X170459978Y-122584199D01*
X170337221Y-122502175D01*
X170232825Y-122397779D01*
X170150801Y-122275022D01*
X170094302Y-122138621D01*
X170065500Y-121993819D01*
X170065500Y-121846181D01*
X170094302Y-121701379D01*
X170150801Y-121564978D01*
X170232825Y-121442221D01*
X170337221Y-121337825D01*
X170459978Y-121255801D01*
X170596379Y-121199302D01*
X170720575Y-121174599D01*
X170741180Y-121170500D01*
X170888820Y-121170500D01*
X170909425Y-121174599D01*
G37*
G36*
X103599425Y-120539599D02*
G01*
X103723621Y-120564302D01*
X103860022Y-120620801D01*
X103982779Y-120702825D01*
X104087175Y-120807221D01*
X104169199Y-120929978D01*
X104225698Y-121066379D01*
X104254500Y-121211181D01*
X104254500Y-121358819D01*
X104225698Y-121503621D01*
X104169199Y-121640022D01*
X104087175Y-121762779D01*
X103982779Y-121867175D01*
X103860022Y-121949199D01*
X103723621Y-122005698D01*
X103599425Y-122030401D01*
X103578820Y-122034500D01*
X103431180Y-122034500D01*
X103410575Y-122030401D01*
X103286379Y-122005698D01*
X103149978Y-121949199D01*
X103027221Y-121867175D01*
X102922825Y-121762779D01*
X102840801Y-121640022D01*
X102784302Y-121503621D01*
X102755500Y-121358819D01*
X102755500Y-121211181D01*
X102784302Y-121066379D01*
X102840801Y-120929978D01*
X102922825Y-120807221D01*
X103027221Y-120702825D01*
X103149978Y-120620801D01*
X103286379Y-120564302D01*
X103410575Y-120539599D01*
X103431180Y-120535500D01*
X103578820Y-120535500D01*
X103599425Y-120539599D01*
G37*
G36*
X95979425Y-120539599D02*
G01*
X96103621Y-120564302D01*
X96240022Y-120620801D01*
X96362779Y-120702825D01*
X96467175Y-120807221D01*
X96549199Y-120929978D01*
X96605698Y-121066379D01*
X96634500Y-121211181D01*
X96634500Y-121358819D01*
X96605698Y-121503621D01*
X96549199Y-121640022D01*
X96467175Y-121762779D01*
X96362779Y-121867175D01*
X96240022Y-121949199D01*
X96103621Y-122005698D01*
X95979425Y-122030401D01*
X95958820Y-122034500D01*
X95811180Y-122034500D01*
X95790575Y-122030401D01*
X95666379Y-122005698D01*
X95529978Y-121949199D01*
X95407221Y-121867175D01*
X95302825Y-121762779D01*
X95220801Y-121640022D01*
X95164302Y-121503621D01*
X95135500Y-121358819D01*
X95135500Y-121211181D01*
X95164302Y-121066379D01*
X95220801Y-120929978D01*
X95302825Y-120807221D01*
X95407221Y-120702825D01*
X95529978Y-120620801D01*
X95666379Y-120564302D01*
X95790575Y-120539599D01*
X95811180Y-120535500D01*
X95958820Y-120535500D01*
X95979425Y-120539599D01*
G37*
G36*
X178529425Y-116094599D02*
G01*
X178653621Y-116119302D01*
X178790022Y-116175801D01*
X178912779Y-116257825D01*
X179017175Y-116362221D01*
X179099199Y-116484978D01*
X179155698Y-116621379D01*
X179184500Y-116766181D01*
X179184500Y-116913819D01*
X179155698Y-117058621D01*
X179099199Y-117195022D01*
X179017175Y-117317779D01*
X178912779Y-117422175D01*
X178790022Y-117504199D01*
X178653621Y-117560698D01*
X178529425Y-117585401D01*
X178508820Y-117589500D01*
X178361180Y-117589500D01*
X178340575Y-117585401D01*
X178216379Y-117560698D01*
X178079978Y-117504199D01*
X177957221Y-117422175D01*
X177852825Y-117317779D01*
X177770801Y-117195022D01*
X177714302Y-117058621D01*
X177685500Y-116913819D01*
X177685500Y-116766181D01*
X177714302Y-116621379D01*
X177770801Y-116484978D01*
X177852825Y-116362221D01*
X177957221Y-116257825D01*
X178079978Y-116175801D01*
X178216379Y-116119302D01*
X178340575Y-116094599D01*
X178361180Y-116090500D01*
X178508820Y-116090500D01*
X178529425Y-116094599D01*
G37*
G36*
X170909425Y-116094599D02*
G01*
X171033621Y-116119302D01*
X171170022Y-116175801D01*
X171292779Y-116257825D01*
X171397175Y-116362221D01*
X171479199Y-116484978D01*
X171535698Y-116621379D01*
X171564500Y-116766181D01*
X171564500Y-116913819D01*
X171535698Y-117058621D01*
X171479199Y-117195022D01*
X171397175Y-117317779D01*
X171292779Y-117422175D01*
X171170022Y-117504199D01*
X171033621Y-117560698D01*
X170909425Y-117585401D01*
X170888820Y-117589500D01*
X170741180Y-117589500D01*
X170720575Y-117585401D01*
X170596379Y-117560698D01*
X170459978Y-117504199D01*
X170337221Y-117422175D01*
X170232825Y-117317779D01*
X170150801Y-117195022D01*
X170094302Y-117058621D01*
X170065500Y-116913819D01*
X170065500Y-116766181D01*
X170094302Y-116621379D01*
X170150801Y-116484978D01*
X170232825Y-116362221D01*
X170337221Y-116257825D01*
X170459978Y-116175801D01*
X170596379Y-116119302D01*
X170720575Y-116094599D01*
X170741180Y-116090500D01*
X170888820Y-116090500D01*
X170909425Y-116094599D01*
G37*
G36*
X95979425Y-115459599D02*
G01*
X96103621Y-115484302D01*
X96240022Y-115540801D01*
X96362779Y-115622825D01*
X96467175Y-115727221D01*
X96549199Y-115849978D01*
X96605698Y-115986379D01*
X96634500Y-116131181D01*
X96634500Y-116278819D01*
X96605698Y-116423621D01*
X96549199Y-116560022D01*
X96467175Y-116682779D01*
X96362779Y-116787175D01*
X96240022Y-116869199D01*
X96103621Y-116925698D01*
X95979425Y-116950401D01*
X95958820Y-116954500D01*
X95811180Y-116954500D01*
X95790575Y-116950401D01*
X95666379Y-116925698D01*
X95529978Y-116869199D01*
X95407221Y-116787175D01*
X95302825Y-116682779D01*
X95220801Y-116560022D01*
X95164302Y-116423621D01*
X95135500Y-116278819D01*
X95135500Y-116131181D01*
X95164302Y-115986379D01*
X95220801Y-115849978D01*
X95302825Y-115727221D01*
X95407221Y-115622825D01*
X95529978Y-115540801D01*
X95666379Y-115484302D01*
X95790575Y-115459599D01*
X95811180Y-115455500D01*
X95958820Y-115455500D01*
X95979425Y-115459599D01*
G37*
G36*
X103599425Y-115459599D02*
G01*
X103723621Y-115484302D01*
X103860022Y-115540801D01*
X103982779Y-115622825D01*
X104087175Y-115727221D01*
X104169199Y-115849978D01*
X104225698Y-115986379D01*
X104254500Y-116131181D01*
X104254500Y-116278819D01*
X104225698Y-116423621D01*
X104169199Y-116560022D01*
X104087175Y-116682779D01*
X103982779Y-116787175D01*
X103860022Y-116869199D01*
X103723621Y-116925698D01*
X103599425Y-116950401D01*
X103578820Y-116954500D01*
X103431180Y-116954500D01*
X103410575Y-116950401D01*
X103286379Y-116925698D01*
X103149978Y-116869199D01*
X103027221Y-116787175D01*
X102922825Y-116682779D01*
X102840801Y-116560022D01*
X102784302Y-116423621D01*
X102755500Y-116278819D01*
X102755500Y-116131181D01*
X102784302Y-115986379D01*
X102840801Y-115849978D01*
X102922825Y-115727221D01*
X103027221Y-115622825D01*
X103149978Y-115540801D01*
X103286379Y-115484302D01*
X103410575Y-115459599D01*
X103431180Y-115455500D01*
X103578820Y-115455500D01*
X103599425Y-115459599D01*
G37*
G36*
X133616000Y-109486000D02*
G01*
X131814000Y-109486000D01*
X131814000Y-107684000D01*
X133616000Y-107684000D01*
X133616000Y-109486000D01*
G37*
G36*
X135368512Y-107688927D02*
G01*
X135517812Y-107718624D01*
X135681784Y-107786544D01*
X135829354Y-107885147D01*
X135954853Y-108010646D01*
X136053456Y-108158216D01*
X136121376Y-108322188D01*
X136156000Y-108496259D01*
X136156000Y-108673741D01*
X136121376Y-108847812D01*
X136053456Y-109011784D01*
X135954853Y-109159354D01*
X135829354Y-109284853D01*
X135681784Y-109383456D01*
X135517812Y-109451376D01*
X135368512Y-109481073D01*
X135343742Y-109486000D01*
X135166258Y-109486000D01*
X135141488Y-109481073D01*
X134992188Y-109451376D01*
X134828216Y-109383456D01*
X134680646Y-109284853D01*
X134555147Y-109159354D01*
X134456544Y-109011784D01*
X134388624Y-108847812D01*
X134354000Y-108673741D01*
X134354000Y-108496259D01*
X134388624Y-108322188D01*
X134456544Y-108158216D01*
X134555147Y-108010646D01*
X134680646Y-107885147D01*
X134828216Y-107786544D01*
X134992188Y-107718624D01*
X135141488Y-107688927D01*
X135166258Y-107684000D01*
X135343742Y-107684000D01*
X135368512Y-107688927D01*
G37*
G36*
X137908512Y-107688927D02*
G01*
X138057812Y-107718624D01*
X138221784Y-107786544D01*
X138369354Y-107885147D01*
X138494853Y-108010646D01*
X138593456Y-108158216D01*
X138661376Y-108322188D01*
X138696000Y-108496259D01*
X138696000Y-108673741D01*
X138661376Y-108847812D01*
X138593456Y-109011784D01*
X138494853Y-109159354D01*
X138369354Y-109284853D01*
X138221784Y-109383456D01*
X138057812Y-109451376D01*
X137908512Y-109481073D01*
X137883742Y-109486000D01*
X137706258Y-109486000D01*
X137681488Y-109481073D01*
X137532188Y-109451376D01*
X137368216Y-109383456D01*
X137220646Y-109284853D01*
X137095147Y-109159354D01*
X136996544Y-109011784D01*
X136928624Y-108847812D01*
X136894000Y-108673741D01*
X136894000Y-108496259D01*
X136928624Y-108322188D01*
X136996544Y-108158216D01*
X137095147Y-108010646D01*
X137220646Y-107885147D01*
X137368216Y-107786544D01*
X137532188Y-107718624D01*
X137681488Y-107688927D01*
X137706258Y-107684000D01*
X137883742Y-107684000D01*
X137908512Y-107688927D01*
G37*
G36*
X140448512Y-107688927D02*
G01*
X140597812Y-107718624D01*
X140761784Y-107786544D01*
X140909354Y-107885147D01*
X141034853Y-108010646D01*
X141133456Y-108158216D01*
X141201376Y-108322188D01*
X141236000Y-108496259D01*
X141236000Y-108673741D01*
X141201376Y-108847812D01*
X141133456Y-109011784D01*
X141034853Y-109159354D01*
X140909354Y-109284853D01*
X140761784Y-109383456D01*
X140597812Y-109451376D01*
X140448512Y-109481073D01*
X140423742Y-109486000D01*
X140246258Y-109486000D01*
X140221488Y-109481073D01*
X140072188Y-109451376D01*
X139908216Y-109383456D01*
X139760646Y-109284853D01*
X139635147Y-109159354D01*
X139536544Y-109011784D01*
X139468624Y-108847812D01*
X139434000Y-108673741D01*
X139434000Y-108496259D01*
X139468624Y-108322188D01*
X139536544Y-108158216D01*
X139635147Y-108010646D01*
X139760646Y-107885147D01*
X139908216Y-107786544D01*
X140072188Y-107718624D01*
X140221488Y-107688927D01*
X140246258Y-107684000D01*
X140423742Y-107684000D01*
X140448512Y-107688927D01*
G37*
G36*
X142988512Y-107688927D02*
G01*
X143137812Y-107718624D01*
X143301784Y-107786544D01*
X143449354Y-107885147D01*
X143574853Y-108010646D01*
X143673456Y-108158216D01*
X143741376Y-108322188D01*
X143776000Y-108496259D01*
X143776000Y-108673741D01*
X143741376Y-108847812D01*
X143673456Y-109011784D01*
X143574853Y-109159354D01*
X143449354Y-109284853D01*
X143301784Y-109383456D01*
X143137812Y-109451376D01*
X142988512Y-109481073D01*
X142963742Y-109486000D01*
X142786258Y-109486000D01*
X142761488Y-109481073D01*
X142612188Y-109451376D01*
X142448216Y-109383456D01*
X142300646Y-109284853D01*
X142175147Y-109159354D01*
X142076544Y-109011784D01*
X142008624Y-108847812D01*
X141974000Y-108673741D01*
X141974000Y-108496259D01*
X142008624Y-108322188D01*
X142076544Y-108158216D01*
X142175147Y-108010646D01*
X142300646Y-107885147D01*
X142448216Y-107786544D01*
X142612188Y-107718624D01*
X142761488Y-107688927D01*
X142786258Y-107684000D01*
X142963742Y-107684000D01*
X142988512Y-107688927D01*
G37*
G36*
X117588512Y-105148927D02*
G01*
X117737812Y-105178624D01*
X117901784Y-105246544D01*
X118049354Y-105345147D01*
X118174853Y-105470646D01*
X118273456Y-105618216D01*
X118341376Y-105782188D01*
X118376000Y-105956259D01*
X118376000Y-106133741D01*
X118341376Y-106307812D01*
X118273456Y-106471784D01*
X118174853Y-106619354D01*
X118049354Y-106744853D01*
X117901784Y-106843456D01*
X117737812Y-106911376D01*
X117588512Y-106941073D01*
X117563742Y-106946000D01*
X117386258Y-106946000D01*
X117361488Y-106941073D01*
X117212188Y-106911376D01*
X117048216Y-106843456D01*
X116900646Y-106744853D01*
X116775147Y-106619354D01*
X116676544Y-106471784D01*
X116608624Y-106307812D01*
X116574000Y-106133741D01*
X116574000Y-105956259D01*
X116608624Y-105782188D01*
X116676544Y-105618216D01*
X116775147Y-105470646D01*
X116900646Y-105345147D01*
X117048216Y-105246544D01*
X117212188Y-105178624D01*
X117361488Y-105148927D01*
X117386258Y-105144000D01*
X117563742Y-105144000D01*
X117588512Y-105148927D01*
G37*
G36*
X117588512Y-102608927D02*
G01*
X117737812Y-102638624D01*
X117901784Y-102706544D01*
X118049354Y-102805147D01*
X118174853Y-102930646D01*
X118273456Y-103078216D01*
X118341376Y-103242188D01*
X118376000Y-103416259D01*
X118376000Y-103593741D01*
X118341376Y-103767812D01*
X118273456Y-103931784D01*
X118174853Y-104079354D01*
X118049354Y-104204853D01*
X117901784Y-104303456D01*
X117737812Y-104371376D01*
X117588512Y-104401073D01*
X117563742Y-104406000D01*
X117386258Y-104406000D01*
X117361488Y-104401073D01*
X117212188Y-104371376D01*
X117048216Y-104303456D01*
X116900646Y-104204853D01*
X116775147Y-104079354D01*
X116676544Y-103931784D01*
X116608624Y-103767812D01*
X116574000Y-103593741D01*
X116574000Y-103416259D01*
X116608624Y-103242188D01*
X116676544Y-103078216D01*
X116775147Y-102930646D01*
X116900646Y-102805147D01*
X117048216Y-102706544D01*
X117212188Y-102638624D01*
X117361488Y-102608927D01*
X117386258Y-102604000D01*
X117563742Y-102604000D01*
X117588512Y-102608927D01*
G37*
G36*
X117588512Y-100068927D02*
G01*
X117737812Y-100098624D01*
X117901784Y-100166544D01*
X118049354Y-100265147D01*
X118174853Y-100390646D01*
X118273456Y-100538216D01*
X118341376Y-100702188D01*
X118376000Y-100876259D01*
X118376000Y-101053741D01*
X118341376Y-101227812D01*
X118273456Y-101391784D01*
X118174853Y-101539354D01*
X118049354Y-101664853D01*
X117901784Y-101763456D01*
X117737812Y-101831376D01*
X117588512Y-101861073D01*
X117563742Y-101866000D01*
X117386258Y-101866000D01*
X117361488Y-101861073D01*
X117212188Y-101831376D01*
X117048216Y-101763456D01*
X116900646Y-101664853D01*
X116775147Y-101539354D01*
X116676544Y-101391784D01*
X116608624Y-101227812D01*
X116574000Y-101053741D01*
X116574000Y-100876259D01*
X116608624Y-100702188D01*
X116676544Y-100538216D01*
X116775147Y-100390646D01*
X116900646Y-100265147D01*
X117048216Y-100166544D01*
X117212188Y-100098624D01*
X117361488Y-100068927D01*
X117386258Y-100064000D01*
X117563742Y-100064000D01*
X117588512Y-100068927D01*
G37*
G36*
X117588512Y-97528927D02*
G01*
X117737812Y-97558624D01*
X117901784Y-97626544D01*
X118049354Y-97725147D01*
X118174853Y-97850646D01*
X118273456Y-97998216D01*
X118341376Y-98162188D01*
X118376000Y-98336259D01*
X118376000Y-98513741D01*
X118341376Y-98687812D01*
X118273456Y-98851784D01*
X118174853Y-98999354D01*
X118049354Y-99124853D01*
X117901784Y-99223456D01*
X117737812Y-99291376D01*
X117588512Y-99321073D01*
X117563742Y-99326000D01*
X117386258Y-99326000D01*
X117361488Y-99321073D01*
X117212188Y-99291376D01*
X117048216Y-99223456D01*
X116900646Y-99124853D01*
X116775147Y-98999354D01*
X116676544Y-98851784D01*
X116608624Y-98687812D01*
X116574000Y-98513741D01*
X116574000Y-98336259D01*
X116608624Y-98162188D01*
X116676544Y-97998216D01*
X116775147Y-97850646D01*
X116900646Y-97725147D01*
X117048216Y-97626544D01*
X117212188Y-97558624D01*
X117361488Y-97528927D01*
X117386258Y-97524000D01*
X117563742Y-97524000D01*
X117588512Y-97528927D01*
G37*
G36*
X146933228Y-96931703D02*
G01*
X147088100Y-96995853D01*
X147227481Y-97088985D01*
X147346015Y-97207519D01*
X147439147Y-97346900D01*
X147503297Y-97501772D01*
X147536000Y-97666184D01*
X147536000Y-97833816D01*
X147503297Y-97998228D01*
X147439147Y-98153100D01*
X147346015Y-98292481D01*
X147227481Y-98411015D01*
X147088100Y-98504147D01*
X146933228Y-98568297D01*
X146768816Y-98601000D01*
X146601184Y-98601000D01*
X146436772Y-98568297D01*
X146281900Y-98504147D01*
X146142519Y-98411015D01*
X146023985Y-98292481D01*
X145930853Y-98153100D01*
X145866703Y-97998228D01*
X145834000Y-97833816D01*
X145834000Y-97666184D01*
X145866703Y-97501772D01*
X145930853Y-97346900D01*
X146023985Y-97207519D01*
X146142519Y-97088985D01*
X146281900Y-96995853D01*
X146436772Y-96931703D01*
X146601184Y-96899000D01*
X146768816Y-96899000D01*
X146933228Y-96931703D01*
G37*
G36*
X118376000Y-96786000D02*
G01*
X116574000Y-96786000D01*
X116574000Y-94984000D01*
X118376000Y-94984000D01*
X118376000Y-96786000D01*
G37*
G36*
X146933228Y-94431703D02*
G01*
X147088100Y-94495853D01*
X147227481Y-94588985D01*
X147346015Y-94707519D01*
X147439147Y-94846900D01*
X147503297Y-95001772D01*
X147536000Y-95166184D01*
X147536000Y-95333816D01*
X147503297Y-95498228D01*
X147439147Y-95653100D01*
X147346015Y-95792481D01*
X147227481Y-95911015D01*
X147088100Y-96004147D01*
X146933228Y-96068297D01*
X146768816Y-96101000D01*
X146601184Y-96101000D01*
X146436772Y-96068297D01*
X146281900Y-96004147D01*
X146142519Y-95911015D01*
X146023985Y-95792481D01*
X145930853Y-95653100D01*
X145866703Y-95498228D01*
X145834000Y-95333816D01*
X145834000Y-95166184D01*
X145866703Y-95001772D01*
X145930853Y-94846900D01*
X146023985Y-94707519D01*
X146142519Y-94588985D01*
X146281900Y-94495853D01*
X146436772Y-94431703D01*
X146601184Y-94399000D01*
X146768816Y-94399000D01*
X146933228Y-94431703D01*
G37*
G36*
X180453512Y-91813927D02*
G01*
X180602812Y-91843624D01*
X180766784Y-91911544D01*
X180914354Y-92010147D01*
X181039853Y-92135646D01*
X181138456Y-92283216D01*
X181206376Y-92447188D01*
X181241000Y-92621259D01*
X181241000Y-92798741D01*
X181206376Y-92972812D01*
X181138456Y-93136784D01*
X181039853Y-93284354D01*
X180914354Y-93409853D01*
X180766784Y-93508456D01*
X180602812Y-93576376D01*
X180453512Y-93606073D01*
X180428742Y-93611000D01*
X180251258Y-93611000D01*
X180226488Y-93606073D01*
X180077188Y-93576376D01*
X179913216Y-93508456D01*
X179765646Y-93409853D01*
X179640147Y-93284354D01*
X179541544Y-93136784D01*
X179473624Y-92972812D01*
X179439000Y-92798741D01*
X179439000Y-92621259D01*
X179473624Y-92447188D01*
X179541544Y-92283216D01*
X179640147Y-92135646D01*
X179765646Y-92010147D01*
X179913216Y-91911544D01*
X180077188Y-91843624D01*
X180226488Y-91813927D01*
X180251258Y-91809000D01*
X180428742Y-91809000D01*
X180453512Y-91813927D01*
G37*
G36*
X181241000Y-91071000D02*
G01*
X179439000Y-91071000D01*
X179439000Y-89269000D01*
X181241000Y-89269000D01*
X181241000Y-91071000D01*
G37*
G36*
X99961000Y-90436000D02*
G01*
X98159000Y-90436000D01*
X98159000Y-88634000D01*
X99961000Y-88634000D01*
X99961000Y-90436000D01*
G37*
G36*
X167271000Y-87896000D02*
G01*
X165469000Y-87896000D01*
X165469000Y-86094000D01*
X167271000Y-86094000D01*
X167271000Y-87896000D01*
G37*
G36*
X99173512Y-86098927D02*
G01*
X99322812Y-86128624D01*
X99486784Y-86196544D01*
X99634354Y-86295147D01*
X99759853Y-86420646D01*
X99858456Y-86568216D01*
X99926376Y-86732188D01*
X99961000Y-86906259D01*
X99961000Y-87083741D01*
X99926376Y-87257812D01*
X99858456Y-87421784D01*
X99759853Y-87569354D01*
X99634354Y-87694853D01*
X99486784Y-87793456D01*
X99322812Y-87861376D01*
X99173512Y-87891073D01*
X99148742Y-87896000D01*
X98971258Y-87896000D01*
X98946488Y-87891073D01*
X98797188Y-87861376D01*
X98633216Y-87793456D01*
X98485646Y-87694853D01*
X98360147Y-87569354D01*
X98261544Y-87421784D01*
X98193624Y-87257812D01*
X98159000Y-87083741D01*
X98159000Y-86906259D01*
X98193624Y-86732188D01*
X98261544Y-86568216D01*
X98360147Y-86420646D01*
X98485646Y-86295147D01*
X98633216Y-86196544D01*
X98797188Y-86128624D01*
X98946488Y-86098927D01*
X98971258Y-86094000D01*
X99148742Y-86094000D01*
X99173512Y-86098927D01*
G37*
G36*
X124073228Y-86176703D02*
G01*
X124228100Y-86240853D01*
X124367481Y-86333985D01*
X124486015Y-86452519D01*
X124579147Y-86591900D01*
X124643297Y-86746772D01*
X124676000Y-86911184D01*
X124676000Y-87078816D01*
X124643297Y-87243228D01*
X124579147Y-87398100D01*
X124486015Y-87537481D01*
X124367481Y-87656015D01*
X124228100Y-87749147D01*
X124073228Y-87813297D01*
X123908816Y-87846000D01*
X123741184Y-87846000D01*
X123576772Y-87813297D01*
X123421900Y-87749147D01*
X123282519Y-87656015D01*
X123163985Y-87537481D01*
X123070853Y-87398100D01*
X123006703Y-87243228D01*
X122974000Y-87078816D01*
X122974000Y-86911184D01*
X123006703Y-86746772D01*
X123070853Y-86591900D01*
X123163985Y-86452519D01*
X123282519Y-86333985D01*
X123421900Y-86240853D01*
X123576772Y-86176703D01*
X123741184Y-86144000D01*
X123908816Y-86144000D01*
X124073228Y-86176703D01*
G37*
G36*
X99173512Y-83558927D02*
G01*
X99322812Y-83588624D01*
X99486784Y-83656544D01*
X99634354Y-83755147D01*
X99759853Y-83880646D01*
X99858456Y-84028216D01*
X99926376Y-84192188D01*
X99961000Y-84366259D01*
X99961000Y-84543741D01*
X99926376Y-84717812D01*
X99858456Y-84881784D01*
X99759853Y-85029354D01*
X99634354Y-85154853D01*
X99486784Y-85253456D01*
X99322812Y-85321376D01*
X99173512Y-85351073D01*
X99148742Y-85356000D01*
X98971258Y-85356000D01*
X98946488Y-85351073D01*
X98797188Y-85321376D01*
X98633216Y-85253456D01*
X98485646Y-85154853D01*
X98360147Y-85029354D01*
X98261544Y-84881784D01*
X98193624Y-84717812D01*
X98159000Y-84543741D01*
X98159000Y-84366259D01*
X98193624Y-84192188D01*
X98261544Y-84028216D01*
X98360147Y-83880646D01*
X98485646Y-83755147D01*
X98633216Y-83656544D01*
X98797188Y-83588624D01*
X98946488Y-83558927D01*
X98971258Y-83554000D01*
X99148742Y-83554000D01*
X99173512Y-83558927D01*
G37*
G36*
X166483512Y-83558927D02*
G01*
X166632812Y-83588624D01*
X166796784Y-83656544D01*
X166944354Y-83755147D01*
X167069853Y-83880646D01*
X167168456Y-84028216D01*
X167236376Y-84192188D01*
X167271000Y-84366259D01*
X167271000Y-84543741D01*
X167236376Y-84717812D01*
X167168456Y-84881784D01*
X167069853Y-85029354D01*
X166944354Y-85154853D01*
X166796784Y-85253456D01*
X166632812Y-85321376D01*
X166483512Y-85351073D01*
X166458742Y-85356000D01*
X166281258Y-85356000D01*
X166256488Y-85351073D01*
X166107188Y-85321376D01*
X165943216Y-85253456D01*
X165795646Y-85154853D01*
X165670147Y-85029354D01*
X165571544Y-84881784D01*
X165503624Y-84717812D01*
X165469000Y-84543741D01*
X165469000Y-84366259D01*
X165503624Y-84192188D01*
X165571544Y-84028216D01*
X165670147Y-83880646D01*
X165795646Y-83755147D01*
X165943216Y-83656544D01*
X166107188Y-83588624D01*
X166256488Y-83558927D01*
X166281258Y-83554000D01*
X166458742Y-83554000D01*
X166483512Y-83558927D01*
G37*
G36*
X124073228Y-83676703D02*
G01*
X124228100Y-83740853D01*
X124367481Y-83833985D01*
X124486015Y-83952519D01*
X124579147Y-84091900D01*
X124643297Y-84246772D01*
X124676000Y-84411184D01*
X124676000Y-84578816D01*
X124643297Y-84743228D01*
X124579147Y-84898100D01*
X124486015Y-85037481D01*
X124367481Y-85156015D01*
X124228100Y-85249147D01*
X124073228Y-85313297D01*
X123908816Y-85346000D01*
X123741184Y-85346000D01*
X123576772Y-85313297D01*
X123421900Y-85249147D01*
X123282519Y-85156015D01*
X123163985Y-85037481D01*
X123070853Y-84898100D01*
X123006703Y-84743228D01*
X122974000Y-84578816D01*
X122974000Y-84411184D01*
X123006703Y-84246772D01*
X123070853Y-84091900D01*
X123163985Y-83952519D01*
X123282519Y-83833985D01*
X123421900Y-83740853D01*
X123576772Y-83676703D01*
X123741184Y-83644000D01*
X123908816Y-83644000D01*
X124073228Y-83676703D01*
G37*
G36*
X148703512Y-80383927D02*
G01*
X148852812Y-80413624D01*
X149016784Y-80481544D01*
X149164354Y-80580147D01*
X149289853Y-80705646D01*
X149388456Y-80853216D01*
X149456376Y-81017188D01*
X149491000Y-81191259D01*
X149491000Y-81368741D01*
X149456376Y-81542812D01*
X149388456Y-81706784D01*
X149289853Y-81854354D01*
X149164354Y-81979853D01*
X149016784Y-82078456D01*
X148852812Y-82146376D01*
X148703512Y-82176073D01*
X148678742Y-82181000D01*
X148501258Y-82181000D01*
X148476488Y-82176073D01*
X148327188Y-82146376D01*
X148163216Y-82078456D01*
X148015646Y-81979853D01*
X147890147Y-81854354D01*
X147791544Y-81706784D01*
X147723624Y-81542812D01*
X147689000Y-81368741D01*
X147689000Y-81191259D01*
X147723624Y-81017188D01*
X147791544Y-80853216D01*
X147890147Y-80705646D01*
X148015646Y-80580147D01*
X148163216Y-80481544D01*
X148327188Y-80413624D01*
X148476488Y-80383927D01*
X148501258Y-80379000D01*
X148678742Y-80379000D01*
X148703512Y-80383927D01*
G37*
G36*
X148703512Y-77843927D02*
G01*
X148852812Y-77873624D01*
X149016784Y-77941544D01*
X149164354Y-78040147D01*
X149289853Y-78165646D01*
X149388456Y-78313216D01*
X149456376Y-78477188D01*
X149491000Y-78651259D01*
X149491000Y-78828741D01*
X149456376Y-79002812D01*
X149388456Y-79166784D01*
X149289853Y-79314354D01*
X149164354Y-79439853D01*
X149016784Y-79538456D01*
X148852812Y-79606376D01*
X148703512Y-79636073D01*
X148678742Y-79641000D01*
X148501258Y-79641000D01*
X148476488Y-79636073D01*
X148327188Y-79606376D01*
X148163216Y-79538456D01*
X148015646Y-79439853D01*
X147890147Y-79314354D01*
X147791544Y-79166784D01*
X147723624Y-79002812D01*
X147689000Y-78828741D01*
X147689000Y-78651259D01*
X147723624Y-78477188D01*
X147791544Y-78313216D01*
X147890147Y-78165646D01*
X148015646Y-78040147D01*
X148163216Y-77941544D01*
X148327188Y-77873624D01*
X148476488Y-77843927D01*
X148501258Y-77839000D01*
X148678742Y-77839000D01*
X148703512Y-77843927D01*
G37*
G36*
X130383228Y-77286703D02*
G01*
X130538100Y-77350853D01*
X130677481Y-77443985D01*
X130796015Y-77562519D01*
X130889147Y-77701900D01*
X130953297Y-77856772D01*
X130986000Y-78021184D01*
X130986000Y-78188816D01*
X130953297Y-78353228D01*
X130889147Y-78508100D01*
X130796015Y-78647481D01*
X130677481Y-78766015D01*
X130538100Y-78859147D01*
X130383228Y-78923297D01*
X130218816Y-78956000D01*
X130051184Y-78956000D01*
X129886772Y-78923297D01*
X129731900Y-78859147D01*
X129592519Y-78766015D01*
X129473985Y-78647481D01*
X129380853Y-78508100D01*
X129316703Y-78353228D01*
X129284000Y-78188816D01*
X129284000Y-78021184D01*
X129316703Y-77856772D01*
X129380853Y-77701900D01*
X129473985Y-77562519D01*
X129592519Y-77443985D01*
X129731900Y-77350853D01*
X129886772Y-77286703D01*
X130051184Y-77254000D01*
X130218816Y-77254000D01*
X130383228Y-77286703D01*
G37*
G36*
X127883228Y-77286703D02*
G01*
X128038100Y-77350853D01*
X128177481Y-77443985D01*
X128296015Y-77562519D01*
X128389147Y-77701900D01*
X128453297Y-77856772D01*
X128486000Y-78021184D01*
X128486000Y-78188816D01*
X128453297Y-78353228D01*
X128389147Y-78508100D01*
X128296015Y-78647481D01*
X128177481Y-78766015D01*
X128038100Y-78859147D01*
X127883228Y-78923297D01*
X127718816Y-78956000D01*
X127551184Y-78956000D01*
X127386772Y-78923297D01*
X127231900Y-78859147D01*
X127092519Y-78766015D01*
X126973985Y-78647481D01*
X126880853Y-78508100D01*
X126816703Y-78353228D01*
X126784000Y-78188816D01*
X126784000Y-78021184D01*
X126816703Y-77856772D01*
X126880853Y-77701900D01*
X126973985Y-77562519D01*
X127092519Y-77443985D01*
X127231900Y-77350853D01*
X127386772Y-77286703D01*
X127551184Y-77254000D01*
X127718816Y-77254000D01*
X127883228Y-77286703D01*
G37*
G36*
X148703512Y-75303927D02*
G01*
X148852812Y-75333624D01*
X149016784Y-75401544D01*
X149164354Y-75500147D01*
X149289853Y-75625646D01*
X149388456Y-75773216D01*
X149456376Y-75937188D01*
X149491000Y-76111259D01*
X149491000Y-76288741D01*
X149456376Y-76462812D01*
X149388456Y-76626784D01*
X149289853Y-76774354D01*
X149164354Y-76899853D01*
X149016784Y-76998456D01*
X148852812Y-77066376D01*
X148703512Y-77096073D01*
X148678742Y-77101000D01*
X148501258Y-77101000D01*
X148476488Y-77096073D01*
X148327188Y-77066376D01*
X148163216Y-76998456D01*
X148015646Y-76899853D01*
X147890147Y-76774354D01*
X147791544Y-76626784D01*
X147723624Y-76462812D01*
X147689000Y-76288741D01*
X147689000Y-76111259D01*
X147723624Y-75937188D01*
X147791544Y-75773216D01*
X147890147Y-75625646D01*
X148015646Y-75500147D01*
X148163216Y-75401544D01*
X148327188Y-75333624D01*
X148476488Y-75303927D01*
X148501258Y-75299000D01*
X148678742Y-75299000D01*
X148703512Y-75303927D01*
G37*
G36*
X148703512Y-72763927D02*
G01*
X148852812Y-72793624D01*
X149016784Y-72861544D01*
X149164354Y-72960147D01*
X149289853Y-73085646D01*
X149388456Y-73233216D01*
X149456376Y-73397188D01*
X149491000Y-73571259D01*
X149491000Y-73748741D01*
X149456376Y-73922812D01*
X149388456Y-74086784D01*
X149289853Y-74234354D01*
X149164354Y-74359853D01*
X149016784Y-74458456D01*
X148852812Y-74526376D01*
X148703512Y-74556073D01*
X148678742Y-74561000D01*
X148501258Y-74561000D01*
X148476488Y-74556073D01*
X148327188Y-74526376D01*
X148163216Y-74458456D01*
X148015646Y-74359853D01*
X147890147Y-74234354D01*
X147791544Y-74086784D01*
X147723624Y-73922812D01*
X147689000Y-73748741D01*
X147689000Y-73571259D01*
X147723624Y-73397188D01*
X147791544Y-73233216D01*
X147890147Y-73085646D01*
X148015646Y-72960147D01*
X148163216Y-72861544D01*
X148327188Y-72793624D01*
X148476488Y-72763927D01*
X148501258Y-72759000D01*
X148678742Y-72759000D01*
X148703512Y-72763927D01*
G37*
G36*
X167271000Y-72656000D02*
G01*
X165469000Y-72656000D01*
X165469000Y-70854000D01*
X167271000Y-70854000D01*
X167271000Y-72656000D01*
G37*
G36*
X149491000Y-72021000D02*
G01*
X147689000Y-72021000D01*
X147689000Y-70219000D01*
X149491000Y-70219000D01*
X149491000Y-72021000D01*
G37*
G36*
X96633512Y-70223927D02*
G01*
X96782812Y-70253624D01*
X96946784Y-70321544D01*
X97094354Y-70420147D01*
X97219853Y-70545646D01*
X97318456Y-70693216D01*
X97386376Y-70857188D01*
X97421000Y-71031259D01*
X97421000Y-71208741D01*
X97386376Y-71382812D01*
X97318456Y-71546784D01*
X97219853Y-71694354D01*
X97094354Y-71819853D01*
X96946784Y-71918456D01*
X96782812Y-71986376D01*
X96633512Y-72016073D01*
X96608742Y-72021000D01*
X96431258Y-72021000D01*
X96406488Y-72016073D01*
X96257188Y-71986376D01*
X96093216Y-71918456D01*
X95945646Y-71819853D01*
X95820147Y-71694354D01*
X95721544Y-71546784D01*
X95653624Y-71382812D01*
X95619000Y-71208741D01*
X95619000Y-71031259D01*
X95653624Y-70857188D01*
X95721544Y-70693216D01*
X95820147Y-70545646D01*
X95945646Y-70420147D01*
X96093216Y-70321544D01*
X96257188Y-70253624D01*
X96406488Y-70223927D01*
X96431258Y-70219000D01*
X96608742Y-70219000D01*
X96633512Y-70223927D01*
G37*
G36*
X99961000Y-72021000D02*
G01*
X98159000Y-72021000D01*
X98159000Y-70219000D01*
X99961000Y-70219000D01*
X99961000Y-72021000D01*
G37*
G36*
X166483512Y-68318927D02*
G01*
X166632812Y-68348624D01*
X166796784Y-68416544D01*
X166944354Y-68515147D01*
X167069853Y-68640646D01*
X167168456Y-68788216D01*
X167236376Y-68952188D01*
X167271000Y-69126259D01*
X167271000Y-69303741D01*
X167236376Y-69477812D01*
X167168456Y-69641784D01*
X167069853Y-69789354D01*
X166944354Y-69914853D01*
X166796784Y-70013456D01*
X166632812Y-70081376D01*
X166483512Y-70111073D01*
X166458742Y-70116000D01*
X166281258Y-70116000D01*
X166256488Y-70111073D01*
X166107188Y-70081376D01*
X165943216Y-70013456D01*
X165795646Y-69914853D01*
X165670147Y-69789354D01*
X165571544Y-69641784D01*
X165503624Y-69477812D01*
X165469000Y-69303741D01*
X165469000Y-69126259D01*
X165503624Y-68952188D01*
X165571544Y-68788216D01*
X165670147Y-68640646D01*
X165795646Y-68515147D01*
X165943216Y-68416544D01*
X166107188Y-68348624D01*
X166256488Y-68318927D01*
X166281258Y-68314000D01*
X166458742Y-68314000D01*
X166483512Y-68318927D01*
G37*
G36*
X128536000Y-65671000D02*
G01*
X126734000Y-65671000D01*
X126734000Y-63869000D01*
X128536000Y-63869000D01*
X128536000Y-65671000D01*
G37*
G36*
X140448512Y-63873927D02*
G01*
X140597812Y-63903624D01*
X140761784Y-63971544D01*
X140909354Y-64070147D01*
X141034853Y-64195646D01*
X141133456Y-64343216D01*
X141201376Y-64507188D01*
X141236000Y-64681259D01*
X141236000Y-64858741D01*
X141201376Y-65032812D01*
X141133456Y-65196784D01*
X141034853Y-65344354D01*
X140909354Y-65469853D01*
X140761784Y-65568456D01*
X140597812Y-65636376D01*
X140448512Y-65666073D01*
X140423742Y-65671000D01*
X140246258Y-65671000D01*
X140221488Y-65666073D01*
X140072188Y-65636376D01*
X139908216Y-65568456D01*
X139760646Y-65469853D01*
X139635147Y-65344354D01*
X139536544Y-65196784D01*
X139468624Y-65032812D01*
X139434000Y-64858741D01*
X139434000Y-64681259D01*
X139468624Y-64507188D01*
X139536544Y-64343216D01*
X139635147Y-64195646D01*
X139760646Y-64070147D01*
X139908216Y-63971544D01*
X140072188Y-63903624D01*
X140221488Y-63873927D01*
X140246258Y-63869000D01*
X140423742Y-63869000D01*
X140448512Y-63873927D01*
G37*
G36*
X130288512Y-63873927D02*
G01*
X130437812Y-63903624D01*
X130601784Y-63971544D01*
X130749354Y-64070147D01*
X130874853Y-64195646D01*
X130973456Y-64343216D01*
X131041376Y-64507188D01*
X131076000Y-64681259D01*
X131076000Y-64858741D01*
X131041376Y-65032812D01*
X130973456Y-65196784D01*
X130874853Y-65344354D01*
X130749354Y-65469853D01*
X130601784Y-65568456D01*
X130437812Y-65636376D01*
X130288512Y-65666073D01*
X130263742Y-65671000D01*
X130086258Y-65671000D01*
X130061488Y-65666073D01*
X129912188Y-65636376D01*
X129748216Y-65568456D01*
X129600646Y-65469853D01*
X129475147Y-65344354D01*
X129376544Y-65196784D01*
X129308624Y-65032812D01*
X129274000Y-64858741D01*
X129274000Y-64681259D01*
X129308624Y-64507188D01*
X129376544Y-64343216D01*
X129475147Y-64195646D01*
X129600646Y-64070147D01*
X129748216Y-63971544D01*
X129912188Y-63903624D01*
X130061488Y-63873927D01*
X130086258Y-63869000D01*
X130263742Y-63869000D01*
X130288512Y-63873927D01*
G37*
G36*
X132828512Y-63873927D02*
G01*
X132977812Y-63903624D01*
X133141784Y-63971544D01*
X133289354Y-64070147D01*
X133414853Y-64195646D01*
X133513456Y-64343216D01*
X133581376Y-64507188D01*
X133616000Y-64681259D01*
X133616000Y-64858741D01*
X133581376Y-65032812D01*
X133513456Y-65196784D01*
X133414853Y-65344354D01*
X133289354Y-65469853D01*
X133141784Y-65568456D01*
X132977812Y-65636376D01*
X132828512Y-65666073D01*
X132803742Y-65671000D01*
X132626258Y-65671000D01*
X132601488Y-65666073D01*
X132452188Y-65636376D01*
X132288216Y-65568456D01*
X132140646Y-65469853D01*
X132015147Y-65344354D01*
X131916544Y-65196784D01*
X131848624Y-65032812D01*
X131814000Y-64858741D01*
X131814000Y-64681259D01*
X131848624Y-64507188D01*
X131916544Y-64343216D01*
X132015147Y-64195646D01*
X132140646Y-64070147D01*
X132288216Y-63971544D01*
X132452188Y-63903624D01*
X132601488Y-63873927D01*
X132626258Y-63869000D01*
X132803742Y-63869000D01*
X132828512Y-63873927D01*
G37*
G36*
X135368512Y-63873927D02*
G01*
X135517812Y-63903624D01*
X135681784Y-63971544D01*
X135829354Y-64070147D01*
X135954853Y-64195646D01*
X136053456Y-64343216D01*
X136121376Y-64507188D01*
X136156000Y-64681259D01*
X136156000Y-64858741D01*
X136121376Y-65032812D01*
X136053456Y-65196784D01*
X135954853Y-65344354D01*
X135829354Y-65469853D01*
X135681784Y-65568456D01*
X135517812Y-65636376D01*
X135368512Y-65666073D01*
X135343742Y-65671000D01*
X135166258Y-65671000D01*
X135141488Y-65666073D01*
X134992188Y-65636376D01*
X134828216Y-65568456D01*
X134680646Y-65469853D01*
X134555147Y-65344354D01*
X134456544Y-65196784D01*
X134388624Y-65032812D01*
X134354000Y-64858741D01*
X134354000Y-64681259D01*
X134388624Y-64507188D01*
X134456544Y-64343216D01*
X134555147Y-64195646D01*
X134680646Y-64070147D01*
X134828216Y-63971544D01*
X134992188Y-63903624D01*
X135141488Y-63873927D01*
X135166258Y-63869000D01*
X135343742Y-63869000D01*
X135368512Y-63873927D01*
G37*
G36*
X137908512Y-63873927D02*
G01*
X138057812Y-63903624D01*
X138221784Y-63971544D01*
X138369354Y-64070147D01*
X138494853Y-64195646D01*
X138593456Y-64343216D01*
X138661376Y-64507188D01*
X138696000Y-64681259D01*
X138696000Y-64858741D01*
X138661376Y-65032812D01*
X138593456Y-65196784D01*
X138494853Y-65344354D01*
X138369354Y-65469853D01*
X138221784Y-65568456D01*
X138057812Y-65636376D01*
X137908512Y-65666073D01*
X137883742Y-65671000D01*
X137706258Y-65671000D01*
X137681488Y-65666073D01*
X137532188Y-65636376D01*
X137368216Y-65568456D01*
X137220646Y-65469853D01*
X137095147Y-65344354D01*
X136996544Y-65196784D01*
X136928624Y-65032812D01*
X136894000Y-64858741D01*
X136894000Y-64681259D01*
X136928624Y-64507188D01*
X136996544Y-64343216D01*
X137095147Y-64195646D01*
X137220646Y-64070147D01*
X137368216Y-63971544D01*
X137532188Y-63903624D01*
X137681488Y-63873927D01*
X137706258Y-63869000D01*
X137883742Y-63869000D01*
X137908512Y-63873927D01*
G37*
G36*
X142988512Y-63873927D02*
G01*
X143137812Y-63903624D01*
X143301784Y-63971544D01*
X143449354Y-64070147D01*
X143574853Y-64195646D01*
X143673456Y-64343216D01*
X143741376Y-64507188D01*
X143776000Y-64681259D01*
X143776000Y-64858741D01*
X143741376Y-65032812D01*
X143673456Y-65196784D01*
X143574853Y-65344354D01*
X143449354Y-65469853D01*
X143301784Y-65568456D01*
X143137812Y-65636376D01*
X142988512Y-65666073D01*
X142963742Y-65671000D01*
X142786258Y-65671000D01*
X142761488Y-65666073D01*
X142612188Y-65636376D01*
X142448216Y-65568456D01*
X142300646Y-65469853D01*
X142175147Y-65344354D01*
X142076544Y-65196784D01*
X142008624Y-65032812D01*
X141974000Y-64858741D01*
X141974000Y-64681259D01*
X142008624Y-64507188D01*
X142076544Y-64343216D01*
X142175147Y-64195646D01*
X142300646Y-64070147D01*
X142448216Y-63971544D01*
X142612188Y-63903624D01*
X142761488Y-63873927D01*
X142786258Y-63869000D01*
X142963742Y-63869000D01*
X142988512Y-63873927D01*
G37*
G36*
X106293228Y-57601703D02*
G01*
X106448100Y-57665853D01*
X106587481Y-57758985D01*
X106706015Y-57877519D01*
X106799147Y-58016900D01*
X106863297Y-58171772D01*
X106896000Y-58336184D01*
X106896000Y-58503816D01*
X106863297Y-58668228D01*
X106799147Y-58823100D01*
X106706015Y-58962481D01*
X106587481Y-59081015D01*
X106448100Y-59174147D01*
X106293228Y-59238297D01*
X106128816Y-59271000D01*
X105961184Y-59271000D01*
X105796772Y-59238297D01*
X105641900Y-59174147D01*
X105502519Y-59081015D01*
X105383985Y-58962481D01*
X105290853Y-58823100D01*
X105226703Y-58668228D01*
X105194000Y-58503816D01*
X105194000Y-58336184D01*
X105226703Y-58171772D01*
X105290853Y-58016900D01*
X105383985Y-57877519D01*
X105502519Y-57758985D01*
X105641900Y-57665853D01*
X105796772Y-57601703D01*
X105961184Y-57569000D01*
X106128816Y-57569000D01*
X106293228Y-57601703D01*
G37*
G36*
X106293228Y-49981703D02*
G01*
X106448100Y-50045853D01*
X106587481Y-50138985D01*
X106706015Y-50257519D01*
X106799147Y-50396900D01*
X106863297Y-50551772D01*
X106896000Y-50716184D01*
X106896000Y-50883816D01*
X106863297Y-51048228D01*
X106799147Y-51203100D01*
X106706015Y-51342481D01*
X106587481Y-51461015D01*
X106448100Y-51554147D01*
X106293228Y-51618297D01*
X106128816Y-51651000D01*
X105961184Y-51651000D01*
X105796772Y-51618297D01*
X105641900Y-51554147D01*
X105502519Y-51461015D01*
X105383985Y-51342481D01*
X105290853Y-51203100D01*
X105226703Y-51048228D01*
X105194000Y-50883816D01*
X105194000Y-50716184D01*
X105226703Y-50551772D01*
X105290853Y-50396900D01*
X105383985Y-50257519D01*
X105502519Y-50138985D01*
X105641900Y-50045853D01*
X105796772Y-49981703D01*
X105961184Y-49949000D01*
X106128816Y-49949000D01*
X106293228Y-49981703D01*
G37*
G36*
X92958228Y-43631703D02*
G01*
X93113100Y-43695853D01*
X93252481Y-43788985D01*
X93371015Y-43907519D01*
X93464147Y-44046900D01*
X93528297Y-44201772D01*
X93561000Y-44366184D01*
X93561000Y-44533816D01*
X93528297Y-44698228D01*
X93464147Y-44853100D01*
X93371015Y-44992481D01*
X93252481Y-45111015D01*
X93113100Y-45204147D01*
X92958228Y-45268297D01*
X92793816Y-45301000D01*
X92626184Y-45301000D01*
X92461772Y-45268297D01*
X92306900Y-45204147D01*
X92167519Y-45111015D01*
X92048985Y-44992481D01*
X91955853Y-44853100D01*
X91891703Y-44698228D01*
X91859000Y-44533816D01*
X91859000Y-44366184D01*
X91891703Y-44201772D01*
X91955853Y-44046900D01*
X92048985Y-43907519D01*
X92167519Y-43788985D01*
X92306900Y-43695853D01*
X92461772Y-43631703D01*
X92626184Y-43599000D01*
X92793816Y-43599000D01*
X92958228Y-43631703D01*
G37*
G36*
X106139425Y-43704599D02*
G01*
X106263621Y-43729302D01*
X106400022Y-43785801D01*
X106522779Y-43867825D01*
X106627175Y-43972221D01*
X106709199Y-44094978D01*
X106765698Y-44231379D01*
X106794500Y-44376181D01*
X106794500Y-44523819D01*
X106765698Y-44668621D01*
X106709199Y-44805022D01*
X106627175Y-44927779D01*
X106522779Y-45032175D01*
X106400022Y-45114199D01*
X106263621Y-45170698D01*
X106139425Y-45195401D01*
X106118820Y-45199500D01*
X105971180Y-45199500D01*
X105950575Y-45195401D01*
X105826379Y-45170698D01*
X105689978Y-45114199D01*
X105567221Y-45032175D01*
X105462825Y-44927779D01*
X105380801Y-44805022D01*
X105324302Y-44668621D01*
X105295500Y-44523819D01*
X105295500Y-44376181D01*
X105324302Y-44231379D01*
X105380801Y-44094978D01*
X105462825Y-43972221D01*
X105567221Y-43867825D01*
X105689978Y-43785801D01*
X105826379Y-43729302D01*
X105950575Y-43704599D01*
X105971180Y-43700500D01*
X106118820Y-43700500D01*
X106139425Y-43704599D01*
G37*
G36*
X98519425Y-43704599D02*
G01*
X98643621Y-43729302D01*
X98780022Y-43785801D01*
X98902779Y-43867825D01*
X99007175Y-43972221D01*
X99089199Y-44094978D01*
X99145698Y-44231379D01*
X99174500Y-44376181D01*
X99174500Y-44523819D01*
X99145698Y-44668621D01*
X99089199Y-44805022D01*
X99007175Y-44927779D01*
X98902779Y-45032175D01*
X98780022Y-45114199D01*
X98643621Y-45170698D01*
X98519425Y-45195401D01*
X98498820Y-45199500D01*
X98351180Y-45199500D01*
X98330575Y-45195401D01*
X98206379Y-45170698D01*
X98069978Y-45114199D01*
X97947221Y-45032175D01*
X97842825Y-44927779D01*
X97760801Y-44805022D01*
X97704302Y-44668621D01*
X97675500Y-44523819D01*
X97675500Y-44376181D01*
X97704302Y-44231379D01*
X97760801Y-44094978D01*
X97842825Y-43972221D01*
X97947221Y-43867825D01*
X98069978Y-43785801D01*
X98206379Y-43729302D01*
X98330575Y-43704599D01*
X98351180Y-43700500D01*
X98498820Y-43700500D01*
X98519425Y-43704599D01*
G37*
G36*
X106139425Y-38624599D02*
G01*
X106263621Y-38649302D01*
X106400022Y-38705801D01*
X106522779Y-38787825D01*
X106627175Y-38892221D01*
X106709199Y-39014978D01*
X106765698Y-39151379D01*
X106794500Y-39296181D01*
X106794500Y-39443819D01*
X106765698Y-39588621D01*
X106709199Y-39725022D01*
X106627175Y-39847779D01*
X106522779Y-39952175D01*
X106400022Y-40034199D01*
X106263621Y-40090698D01*
X106139425Y-40115401D01*
X106118820Y-40119500D01*
X105971180Y-40119500D01*
X105950575Y-40115401D01*
X105826379Y-40090698D01*
X105689978Y-40034199D01*
X105567221Y-39952175D01*
X105462825Y-39847779D01*
X105380801Y-39725022D01*
X105324302Y-39588621D01*
X105295500Y-39443819D01*
X105295500Y-39296181D01*
X105324302Y-39151379D01*
X105380801Y-39014978D01*
X105462825Y-38892221D01*
X105567221Y-38787825D01*
X105689978Y-38705801D01*
X105826379Y-38649302D01*
X105950575Y-38624599D01*
X105971180Y-38620500D01*
X106118820Y-38620500D01*
X106139425Y-38624599D01*
G37*
G36*
X98519425Y-38624599D02*
G01*
X98643621Y-38649302D01*
X98780022Y-38705801D01*
X98902779Y-38787825D01*
X99007175Y-38892221D01*
X99089199Y-39014978D01*
X99145698Y-39151379D01*
X99174500Y-39296181D01*
X99174500Y-39443819D01*
X99145698Y-39588621D01*
X99089199Y-39725022D01*
X99007175Y-39847779D01*
X98902779Y-39952175D01*
X98780022Y-40034199D01*
X98643621Y-40090698D01*
X98519425Y-40115401D01*
X98498820Y-40119500D01*
X98351180Y-40119500D01*
X98330575Y-40115401D01*
X98206379Y-40090698D01*
X98069978Y-40034199D01*
X97947221Y-39952175D01*
X97842825Y-39847779D01*
X97760801Y-39725022D01*
X97704302Y-39588621D01*
X97675500Y-39443819D01*
X97675500Y-39296181D01*
X97704302Y-39151379D01*
X97760801Y-39014978D01*
X97842825Y-38892221D01*
X97947221Y-38787825D01*
X98069978Y-38705801D01*
X98206379Y-38649302D01*
X98330575Y-38624599D01*
X98351180Y-38620500D01*
X98498820Y-38620500D01*
X98519425Y-38624599D01*
G37*
G36*
X92958228Y-36131703D02*
G01*
X93113100Y-36195853D01*
X93252481Y-36288985D01*
X93371015Y-36407519D01*
X93464147Y-36546900D01*
X93528297Y-36701772D01*
X93561000Y-36866184D01*
X93561000Y-37033816D01*
X93528297Y-37198228D01*
X93464147Y-37353100D01*
X93371015Y-37492481D01*
X93252481Y-37611015D01*
X93113100Y-37704147D01*
X92958228Y-37768297D01*
X92793816Y-37801000D01*
X92626184Y-37801000D01*
X92461772Y-37768297D01*
X92306900Y-37704147D01*
X92167519Y-37611015D01*
X92048985Y-37492481D01*
X91955853Y-37353100D01*
X91891703Y-37198228D01*
X91859000Y-37033816D01*
X91859000Y-36866184D01*
X91891703Y-36701772D01*
X91955853Y-36546900D01*
X92048985Y-36407519D01*
X92167519Y-36288985D01*
X92306900Y-36195853D01*
X92461772Y-36131703D01*
X92626184Y-36099000D01*
X92793816Y-36099000D01*
X92958228Y-36131703D01*
G37*
M02*
