G04 #@! TF.GenerationSoftware,KiCad,Pcbnew,5.1.5-52549c5~84~ubuntu18.04.1*
G04 #@! TF.CreationDate,2019-11-27T16:08:13-05:00*
G04 #@! TF.ProjectId,miniPCB,6d696e69-5043-4422-9e6b-696361645f70,rev?*
G04 #@! TF.SameCoordinates,Original*
G04 #@! TF.FileFunction,Legend,Top*
G04 #@! TF.FilePolarity,Positive*
%FSLAX46Y46*%
G04 Gerber Fmt 4.6, Leading zero omitted, Abs format (unit mm)*
G04 Created by KiCad (PCBNEW 5.1.5-52549c5~84~ubuntu18.04.1) date 2019-11-27 16:08:13*
%MOMM*%
%LPD*%
G04 APERTURE LIST*
%ADD10C,0.150000*%
%ADD11C,0.120000*%
G04 APERTURE END LIST*
D10*
X170347142Y-35712380D02*
X170918571Y-35712380D01*
X170632857Y-36712380D02*
X170632857Y-35712380D01*
X171632857Y-36664761D02*
X171537619Y-36712380D01*
X171347142Y-36712380D01*
X171251904Y-36664761D01*
X171204285Y-36569523D01*
X171204285Y-36188571D01*
X171251904Y-36093333D01*
X171347142Y-36045714D01*
X171537619Y-36045714D01*
X171632857Y-36093333D01*
X171680476Y-36188571D01*
X171680476Y-36283809D01*
X171204285Y-36379047D01*
X172537619Y-36712380D02*
X172537619Y-36188571D01*
X172490000Y-36093333D01*
X172394761Y-36045714D01*
X172204285Y-36045714D01*
X172109047Y-36093333D01*
X172537619Y-36664761D02*
X172442380Y-36712380D01*
X172204285Y-36712380D01*
X172109047Y-36664761D01*
X172061428Y-36569523D01*
X172061428Y-36474285D01*
X172109047Y-36379047D01*
X172204285Y-36331428D01*
X172442380Y-36331428D01*
X172537619Y-36283809D01*
X173013809Y-36712380D02*
X173013809Y-36045714D01*
X173013809Y-36140952D02*
X173061428Y-36093333D01*
X173156666Y-36045714D01*
X173299523Y-36045714D01*
X173394761Y-36093333D01*
X173442380Y-36188571D01*
X173442380Y-36712380D01*
X173442380Y-36188571D02*
X173490000Y-36093333D01*
X173585238Y-36045714D01*
X173728095Y-36045714D01*
X173823333Y-36093333D01*
X173870952Y-36188571D01*
X173870952Y-36712380D01*
X175299523Y-35712380D02*
X175394761Y-35712380D01*
X175490000Y-35760000D01*
X175537619Y-35807619D01*
X175585238Y-35902857D01*
X175632857Y-36093333D01*
X175632857Y-36331428D01*
X175585238Y-36521904D01*
X175537619Y-36617142D01*
X175490000Y-36664761D01*
X175394761Y-36712380D01*
X175299523Y-36712380D01*
X175204285Y-36664761D01*
X175156666Y-36617142D01*
X175109047Y-36521904D01*
X175061428Y-36331428D01*
X175061428Y-36093333D01*
X175109047Y-35902857D01*
X175156666Y-35807619D01*
X175204285Y-35760000D01*
X175299523Y-35712380D01*
X175966190Y-35712380D02*
X176585238Y-35712380D01*
X176251904Y-36093333D01*
X176394761Y-36093333D01*
X176490000Y-36140952D01*
X176537619Y-36188571D01*
X176585238Y-36283809D01*
X176585238Y-36521904D01*
X176537619Y-36617142D01*
X176490000Y-36664761D01*
X176394761Y-36712380D01*
X176109047Y-36712380D01*
X176013809Y-36664761D01*
X175966190Y-36617142D01*
X176918571Y-35712380D02*
X177537619Y-35712380D01*
X177204285Y-36093333D01*
X177347142Y-36093333D01*
X177442380Y-36140952D01*
X177490000Y-36188571D01*
X177537619Y-36283809D01*
X177537619Y-36521904D01*
X177490000Y-36617142D01*
X177442380Y-36664761D01*
X177347142Y-36712380D01*
X177061428Y-36712380D01*
X176966190Y-36664761D01*
X176918571Y-36617142D01*
X162490000Y-38362380D02*
X162490000Y-37362380D01*
X163061428Y-38362380D01*
X163061428Y-37362380D01*
X163966190Y-38362380D02*
X163966190Y-37838571D01*
X163918571Y-37743333D01*
X163823333Y-37695714D01*
X163632857Y-37695714D01*
X163537619Y-37743333D01*
X163966190Y-38314761D02*
X163870952Y-38362380D01*
X163632857Y-38362380D01*
X163537619Y-38314761D01*
X163490000Y-38219523D01*
X163490000Y-38124285D01*
X163537619Y-38029047D01*
X163632857Y-37981428D01*
X163870952Y-37981428D01*
X163966190Y-37933809D01*
X164299523Y-37695714D02*
X164680476Y-37695714D01*
X164442380Y-37362380D02*
X164442380Y-38219523D01*
X164490000Y-38314761D01*
X164585238Y-38362380D01*
X164680476Y-38362380D01*
X165013809Y-38362380D02*
X165013809Y-37362380D01*
X165442380Y-38362380D02*
X165442380Y-37838571D01*
X165394761Y-37743333D01*
X165299523Y-37695714D01*
X165156666Y-37695714D01*
X165061428Y-37743333D01*
X165013809Y-37790952D01*
X166347142Y-38362380D02*
X166347142Y-37838571D01*
X166299523Y-37743333D01*
X166204285Y-37695714D01*
X166013809Y-37695714D01*
X165918571Y-37743333D01*
X166347142Y-38314761D02*
X166251904Y-38362380D01*
X166013809Y-38362380D01*
X165918571Y-38314761D01*
X165870952Y-38219523D01*
X165870952Y-38124285D01*
X165918571Y-38029047D01*
X166013809Y-37981428D01*
X166251904Y-37981428D01*
X166347142Y-37933809D01*
X166823333Y-37695714D02*
X166823333Y-38362380D01*
X166823333Y-37790952D02*
X166870952Y-37743333D01*
X166966190Y-37695714D01*
X167109047Y-37695714D01*
X167204285Y-37743333D01*
X167251904Y-37838571D01*
X167251904Y-38362380D01*
X167775714Y-38314761D02*
X167775714Y-38362380D01*
X167728095Y-38457619D01*
X167680476Y-38505238D01*
X168966190Y-38362380D02*
X168966190Y-37362380D01*
X169204285Y-37362380D01*
X169347142Y-37410000D01*
X169442380Y-37505238D01*
X169490000Y-37600476D01*
X169537619Y-37790952D01*
X169537619Y-37933809D01*
X169490000Y-38124285D01*
X169442380Y-38219523D01*
X169347142Y-38314761D01*
X169204285Y-38362380D01*
X168966190Y-38362380D01*
X170394761Y-38362380D02*
X170394761Y-37838571D01*
X170347142Y-37743333D01*
X170251904Y-37695714D01*
X170061428Y-37695714D01*
X169966190Y-37743333D01*
X170394761Y-38314761D02*
X170299523Y-38362380D01*
X170061428Y-38362380D01*
X169966190Y-38314761D01*
X169918571Y-38219523D01*
X169918571Y-38124285D01*
X169966190Y-38029047D01*
X170061428Y-37981428D01*
X170299523Y-37981428D01*
X170394761Y-37933809D01*
X170775714Y-37695714D02*
X171013809Y-38362380D01*
X171251904Y-37695714D01*
X172013809Y-38314761D02*
X171918571Y-38362380D01*
X171728095Y-38362380D01*
X171632857Y-38314761D01*
X171585238Y-38219523D01*
X171585238Y-37838571D01*
X171632857Y-37743333D01*
X171728095Y-37695714D01*
X171918571Y-37695714D01*
X172013809Y-37743333D01*
X172061428Y-37838571D01*
X172061428Y-37933809D01*
X171585238Y-38029047D01*
X172537619Y-38314761D02*
X172537619Y-38362380D01*
X172490000Y-38457619D01*
X172442380Y-38505238D01*
X174013809Y-37362380D02*
X174013809Y-38076666D01*
X173966190Y-38219523D01*
X173870952Y-38314761D01*
X173728095Y-38362380D01*
X173632857Y-38362380D01*
X174918571Y-38362380D02*
X174918571Y-37838571D01*
X174870952Y-37743333D01*
X174775714Y-37695714D01*
X174585238Y-37695714D01*
X174490000Y-37743333D01*
X174918571Y-38314761D02*
X174823333Y-38362380D01*
X174585238Y-38362380D01*
X174490000Y-38314761D01*
X174442380Y-38219523D01*
X174442380Y-38124285D01*
X174490000Y-38029047D01*
X174585238Y-37981428D01*
X174823333Y-37981428D01*
X174918571Y-37933809D01*
X175823333Y-38314761D02*
X175728095Y-38362380D01*
X175537619Y-38362380D01*
X175442380Y-38314761D01*
X175394761Y-38267142D01*
X175347142Y-38171904D01*
X175347142Y-37886190D01*
X175394761Y-37790952D01*
X175442380Y-37743333D01*
X175537619Y-37695714D01*
X175728095Y-37695714D01*
X175823333Y-37743333D01*
X176251904Y-38362380D02*
X176251904Y-37362380D01*
X176347142Y-37981428D02*
X176632857Y-38362380D01*
X176632857Y-37695714D02*
X176251904Y-38076666D01*
X177109047Y-38314761D02*
X177109047Y-38362380D01*
X177061428Y-38457619D01*
X177013809Y-38505238D01*
X178299523Y-38362380D02*
X178299523Y-37362380D01*
X178632857Y-38076666D01*
X178966190Y-37362380D01*
X178966190Y-38362380D01*
X179823333Y-38314761D02*
X179728095Y-38362380D01*
X179537619Y-38362380D01*
X179442380Y-38314761D01*
X179394761Y-38219523D01*
X179394761Y-37838571D01*
X179442380Y-37743333D01*
X179537619Y-37695714D01*
X179728095Y-37695714D01*
X179823333Y-37743333D01*
X179870952Y-37838571D01*
X179870952Y-37933809D01*
X179394761Y-38029047D01*
X180680476Y-38314761D02*
X180585238Y-38362380D01*
X180394761Y-38362380D01*
X180299523Y-38314761D01*
X180251904Y-38219523D01*
X180251904Y-37838571D01*
X180299523Y-37743333D01*
X180394761Y-37695714D01*
X180585238Y-37695714D01*
X180680476Y-37743333D01*
X180728095Y-37838571D01*
X180728095Y-37933809D01*
X180251904Y-38029047D01*
X181156666Y-37695714D02*
X181156666Y-38362380D01*
X181156666Y-37790952D02*
X181204285Y-37743333D01*
X181299523Y-37695714D01*
X181442380Y-37695714D01*
X181537619Y-37743333D01*
X181585238Y-37838571D01*
X181585238Y-38362380D01*
X182490000Y-38362380D02*
X182490000Y-37838571D01*
X182442380Y-37743333D01*
X182347142Y-37695714D01*
X182156666Y-37695714D01*
X182061428Y-37743333D01*
X182490000Y-38314761D02*
X182394761Y-38362380D01*
X182156666Y-38362380D01*
X182061428Y-38314761D01*
X182013809Y-38219523D01*
X182013809Y-38124285D01*
X182061428Y-38029047D01*
X182156666Y-37981428D01*
X182394761Y-37981428D01*
X182490000Y-37933809D01*
X182966190Y-38362380D02*
X182966190Y-37362380D01*
X183061428Y-37981428D02*
X183347142Y-38362380D01*
X183347142Y-37695714D02*
X182966190Y-38076666D01*
X183728095Y-38314761D02*
X183823333Y-38362380D01*
X184013809Y-38362380D01*
X184109047Y-38314761D01*
X184156666Y-38219523D01*
X184156666Y-38171904D01*
X184109047Y-38076666D01*
X184013809Y-38029047D01*
X183870952Y-38029047D01*
X183775714Y-37981428D01*
X183728095Y-37886190D01*
X183728095Y-37838571D01*
X183775714Y-37743333D01*
X183870952Y-37695714D01*
X184013809Y-37695714D01*
X184109047Y-37743333D01*
X184585238Y-38362380D02*
X184585238Y-37362380D01*
X185013809Y-38362380D02*
X185013809Y-37838571D01*
X184966190Y-37743333D01*
X184870952Y-37695714D01*
X184728095Y-37695714D01*
X184632857Y-37743333D01*
X184585238Y-37790952D01*
X185490000Y-38362380D02*
X185490000Y-37695714D01*
X185490000Y-37362380D02*
X185442380Y-37410000D01*
X185490000Y-37457619D01*
X185537619Y-37410000D01*
X185490000Y-37362380D01*
X185490000Y-37457619D01*
X172394761Y-40012380D02*
X172061428Y-39536190D01*
X171823333Y-40012380D02*
X171823333Y-39012380D01*
X172204285Y-39012380D01*
X172299523Y-39060000D01*
X172347142Y-39107619D01*
X172394761Y-39202857D01*
X172394761Y-39345714D01*
X172347142Y-39440952D01*
X172299523Y-39488571D01*
X172204285Y-39536190D01*
X171823333Y-39536190D01*
X173204285Y-39964761D02*
X173109047Y-40012380D01*
X172918571Y-40012380D01*
X172823333Y-39964761D01*
X172775714Y-39869523D01*
X172775714Y-39488571D01*
X172823333Y-39393333D01*
X172918571Y-39345714D01*
X173109047Y-39345714D01*
X173204285Y-39393333D01*
X173251904Y-39488571D01*
X173251904Y-39583809D01*
X172775714Y-39679047D01*
X173585238Y-39345714D02*
X173823333Y-40012380D01*
X174061428Y-39345714D01*
X175109047Y-39012380D02*
X175728095Y-39012380D01*
X175394761Y-39393333D01*
X175537619Y-39393333D01*
X175632857Y-39440952D01*
X175680476Y-39488571D01*
X175728095Y-39583809D01*
X175728095Y-39821904D01*
X175680476Y-39917142D01*
X175632857Y-39964761D01*
X175537619Y-40012380D01*
X175251904Y-40012380D01*
X175156666Y-39964761D01*
X175109047Y-39917142D01*
X176156666Y-39917142D02*
X176204285Y-39964761D01*
X176156666Y-40012380D01*
X176109047Y-39964761D01*
X176156666Y-39917142D01*
X176156666Y-40012380D01*
X170847142Y-41662380D02*
X170275714Y-41662380D01*
X170561428Y-41662380D02*
X170561428Y-40662380D01*
X170466190Y-40805238D01*
X170370952Y-40900476D01*
X170275714Y-40948095D01*
X171799523Y-41662380D02*
X171228095Y-41662380D01*
X171513809Y-41662380D02*
X171513809Y-40662380D01*
X171418571Y-40805238D01*
X171323333Y-40900476D01*
X171228095Y-40948095D01*
X172942380Y-40614761D02*
X172085238Y-41900476D01*
X173228095Y-40757619D02*
X173275714Y-40710000D01*
X173370952Y-40662380D01*
X173609047Y-40662380D01*
X173704285Y-40710000D01*
X173751904Y-40757619D01*
X173799523Y-40852857D01*
X173799523Y-40948095D01*
X173751904Y-41090952D01*
X173180476Y-41662380D01*
X173799523Y-41662380D01*
X174132857Y-40662380D02*
X174799523Y-40662380D01*
X174370952Y-41662380D01*
X175894761Y-40614761D02*
X175037619Y-41900476D01*
X176751904Y-41662380D02*
X176180476Y-41662380D01*
X176466190Y-41662380D02*
X176466190Y-40662380D01*
X176370952Y-40805238D01*
X176275714Y-40900476D01*
X176180476Y-40948095D01*
X177228095Y-41662380D02*
X177418571Y-41662380D01*
X177513809Y-41614761D01*
X177561428Y-41567142D01*
X177656666Y-41424285D01*
X177704285Y-41233809D01*
X177704285Y-40852857D01*
X177656666Y-40757619D01*
X177609047Y-40710000D01*
X177513809Y-40662380D01*
X177323333Y-40662380D01*
X177228095Y-40710000D01*
X177180476Y-40757619D01*
X177132857Y-40852857D01*
X177132857Y-41090952D01*
X177180476Y-41186190D01*
X177228095Y-41233809D01*
X177323333Y-41281428D01*
X177513809Y-41281428D01*
X177609047Y-41233809D01*
X177656666Y-41186190D01*
X177704285Y-41090952D01*
D11*
X130780000Y-83470000D02*
X129440000Y-83470000D01*
X130780000Y-82520000D02*
X130780000Y-83470000D01*
X131730000Y-82520000D02*
X130780000Y-82520000D01*
X141000000Y-82520000D02*
X141000000Y-83470000D01*
X140050000Y-82520000D02*
X141000000Y-82520000D01*
X130780000Y-92740000D02*
X130780000Y-91790000D01*
X131730000Y-92740000D02*
X130780000Y-92740000D01*
X141000000Y-92740000D02*
X141000000Y-91790000D01*
X140050000Y-92740000D02*
X141000000Y-92740000D01*
X177165000Y-119380000D02*
G75*
G03X177165000Y-119380000I-2540000J0D01*
G01*
X170815000Y-122890000D02*
X170815000Y-123190000D01*
X178435000Y-122890000D02*
X178435000Y-123190000D01*
X170815000Y-117810000D02*
X170815000Y-120950000D01*
X178435000Y-117810000D02*
X178435000Y-120950000D01*
X170815000Y-115570000D02*
X170815000Y-115870000D01*
X178435000Y-123190000D02*
X170815000Y-123190000D01*
X178435000Y-115570000D02*
X178435000Y-115870000D01*
X170815000Y-115570000D02*
X178435000Y-115570000D01*
X95885000Y-114935000D02*
X103505000Y-114935000D01*
X103505000Y-114935000D02*
X103505000Y-115235000D01*
X103505000Y-122555000D02*
X95885000Y-122555000D01*
X95885000Y-114935000D02*
X95885000Y-115235000D01*
X103505000Y-117175000D02*
X103505000Y-120315000D01*
X95885000Y-117175000D02*
X95885000Y-120315000D01*
X103505000Y-122255000D02*
X103505000Y-122555000D01*
X95885000Y-122255000D02*
X95885000Y-122555000D01*
X102235000Y-118745000D02*
G75*
G03X102235000Y-118745000I-2540000J0D01*
G01*
X104775000Y-41910000D02*
G75*
G03X104775000Y-41910000I-2540000J0D01*
G01*
X98425000Y-45420000D02*
X98425000Y-45720000D01*
X106045000Y-45420000D02*
X106045000Y-45720000D01*
X98425000Y-40340000D02*
X98425000Y-43480000D01*
X106045000Y-40340000D02*
X106045000Y-43480000D01*
X98425000Y-38100000D02*
X98425000Y-38400000D01*
X106045000Y-45720000D02*
X98425000Y-45720000D01*
X106045000Y-38100000D02*
X106045000Y-38400000D01*
X98425000Y-38100000D02*
X106045000Y-38100000D01*
X104675000Y-57880000D02*
X105005000Y-57880000D01*
X104675000Y-51340000D02*
X104675000Y-57880000D01*
X105005000Y-51340000D02*
X104675000Y-51340000D01*
X107415000Y-57880000D02*
X107085000Y-57880000D01*
X107415000Y-51340000D02*
X107415000Y-57880000D01*
X107085000Y-51340000D02*
X107415000Y-51340000D01*
X126305000Y-64770000D02*
X126305000Y-63440000D01*
X126305000Y-63440000D02*
X127635000Y-63440000D01*
X128905000Y-63440000D02*
X144205000Y-63440000D01*
X144205000Y-66100000D02*
X144205000Y-63440000D01*
X128905000Y-66100000D02*
X144205000Y-66100000D01*
X128905000Y-66100000D02*
X128905000Y-63440000D01*
X131385000Y-108585000D02*
X131385000Y-107255000D01*
X131385000Y-107255000D02*
X132715000Y-107255000D01*
X133985000Y-107255000D02*
X144205000Y-107255000D01*
X144205000Y-109915000D02*
X144205000Y-107255000D01*
X133985000Y-109915000D02*
X144205000Y-109915000D01*
X133985000Y-109915000D02*
X133985000Y-107255000D01*
X180340000Y-88840000D02*
X181670000Y-88840000D01*
X181670000Y-88840000D02*
X181670000Y-90170000D01*
X181670000Y-91440000D02*
X181670000Y-94040000D01*
X179010000Y-94040000D02*
X181670000Y-94040000D01*
X179010000Y-91440000D02*
X179010000Y-94040000D01*
X179010000Y-91440000D02*
X181670000Y-91440000D01*
X167700000Y-70485000D02*
X165040000Y-70485000D01*
X167700000Y-70485000D02*
X167700000Y-67885000D01*
X167700000Y-67885000D02*
X165040000Y-67885000D01*
X165040000Y-70485000D02*
X165040000Y-67885000D01*
X165040000Y-73085000D02*
X165040000Y-71755000D01*
X166370000Y-73085000D02*
X165040000Y-73085000D01*
X166370000Y-88325000D02*
X165040000Y-88325000D01*
X165040000Y-88325000D02*
X165040000Y-86995000D01*
X165040000Y-85725000D02*
X165040000Y-83125000D01*
X167700000Y-83125000D02*
X165040000Y-83125000D01*
X167700000Y-85725000D02*
X167700000Y-83125000D01*
X167700000Y-85725000D02*
X165040000Y-85725000D01*
X148590000Y-69790000D02*
X149920000Y-69790000D01*
X149920000Y-69790000D02*
X149920000Y-71120000D01*
X149920000Y-72390000D02*
X149920000Y-82610000D01*
X147260000Y-82610000D02*
X149920000Y-82610000D01*
X147260000Y-72390000D02*
X147260000Y-82610000D01*
X147260000Y-72390000D02*
X149920000Y-72390000D01*
X117475000Y-94555000D02*
X118805000Y-94555000D01*
X118805000Y-94555000D02*
X118805000Y-95885000D01*
X118805000Y-97155000D02*
X118805000Y-107375000D01*
X116145000Y-107375000D02*
X118805000Y-107375000D01*
X116145000Y-97155000D02*
X116145000Y-107375000D01*
X116145000Y-97155000D02*
X118805000Y-97155000D01*
X99060000Y-90865000D02*
X97730000Y-90865000D01*
X97730000Y-90865000D02*
X97730000Y-89535000D01*
X97730000Y-88265000D02*
X97730000Y-83125000D01*
X100390000Y-83125000D02*
X97730000Y-83125000D01*
X100390000Y-88265000D02*
X100390000Y-83125000D01*
X100390000Y-88265000D02*
X97730000Y-88265000D01*
X100390000Y-71120000D02*
X100390000Y-72450000D01*
X100390000Y-72450000D02*
X99060000Y-72450000D01*
X97790000Y-72450000D02*
X95190000Y-72450000D01*
X95190000Y-69790000D02*
X95190000Y-72450000D01*
X97790000Y-69790000D02*
X95190000Y-69790000D01*
X97790000Y-69790000D02*
X97790000Y-72450000D01*
X132155000Y-78105000D02*
G75*
G03X132155000Y-78105000I-3270000J0D01*
G01*
X149955000Y-96500000D02*
G75*
G03X149955000Y-96500000I-3270000J0D01*
G01*
X127095000Y-85745000D02*
G75*
G03X127095000Y-85745000I-3270000J0D01*
G01*
X92710000Y-37990000D02*
X92710000Y-38680000D01*
X92710000Y-43410000D02*
X92710000Y-42720000D01*
X91290000Y-38680000D02*
X91290000Y-42720000D01*
X94130000Y-38680000D02*
X91290000Y-38680000D01*
X94130000Y-42720000D02*
X94130000Y-38680000D01*
X91290000Y-42720000D02*
X94130000Y-42720000D01*
D10*
X135128095Y-79682380D02*
X135128095Y-80491904D01*
X135175714Y-80587142D01*
X135223333Y-80634761D01*
X135318571Y-80682380D01*
X135509047Y-80682380D01*
X135604285Y-80634761D01*
X135651904Y-80587142D01*
X135699523Y-80491904D01*
X135699523Y-79682380D01*
X136699523Y-80682380D02*
X136128095Y-80682380D01*
X136413809Y-80682380D02*
X136413809Y-79682380D01*
X136318571Y-79825238D01*
X136223333Y-79920476D01*
X136128095Y-79968095D01*
X173291666Y-115164761D02*
X173434523Y-115212380D01*
X173672619Y-115212380D01*
X173767857Y-115164761D01*
X173815476Y-115117142D01*
X173863095Y-115021904D01*
X173863095Y-114926666D01*
X173815476Y-114831428D01*
X173767857Y-114783809D01*
X173672619Y-114736190D01*
X173482142Y-114688571D01*
X173386904Y-114640952D01*
X173339285Y-114593333D01*
X173291666Y-114498095D01*
X173291666Y-114402857D01*
X173339285Y-114307619D01*
X173386904Y-114260000D01*
X173482142Y-114212380D01*
X173720238Y-114212380D01*
X173863095Y-114260000D01*
X174196428Y-114212380D02*
X174434523Y-115212380D01*
X174625000Y-114498095D01*
X174815476Y-115212380D01*
X175053571Y-114212380D01*
X175339285Y-114212380D02*
X175958333Y-114212380D01*
X175625000Y-114593333D01*
X175767857Y-114593333D01*
X175863095Y-114640952D01*
X175910714Y-114688571D01*
X175958333Y-114783809D01*
X175958333Y-115021904D01*
X175910714Y-115117142D01*
X175863095Y-115164761D01*
X175767857Y-115212380D01*
X175482142Y-115212380D01*
X175386904Y-115164761D01*
X175339285Y-115117142D01*
X98361666Y-114529761D02*
X98504523Y-114577380D01*
X98742619Y-114577380D01*
X98837857Y-114529761D01*
X98885476Y-114482142D01*
X98933095Y-114386904D01*
X98933095Y-114291666D01*
X98885476Y-114196428D01*
X98837857Y-114148809D01*
X98742619Y-114101190D01*
X98552142Y-114053571D01*
X98456904Y-114005952D01*
X98409285Y-113958333D01*
X98361666Y-113863095D01*
X98361666Y-113767857D01*
X98409285Y-113672619D01*
X98456904Y-113625000D01*
X98552142Y-113577380D01*
X98790238Y-113577380D01*
X98933095Y-113625000D01*
X99266428Y-113577380D02*
X99504523Y-114577380D01*
X99695000Y-113863095D01*
X99885476Y-114577380D01*
X100123571Y-113577380D01*
X100456904Y-113672619D02*
X100504523Y-113625000D01*
X100599761Y-113577380D01*
X100837857Y-113577380D01*
X100933095Y-113625000D01*
X100980714Y-113672619D01*
X101028333Y-113767857D01*
X101028333Y-113863095D01*
X100980714Y-114005952D01*
X100409285Y-114577380D01*
X101028333Y-114577380D01*
X100901666Y-37694761D02*
X101044523Y-37742380D01*
X101282619Y-37742380D01*
X101377857Y-37694761D01*
X101425476Y-37647142D01*
X101473095Y-37551904D01*
X101473095Y-37456666D01*
X101425476Y-37361428D01*
X101377857Y-37313809D01*
X101282619Y-37266190D01*
X101092142Y-37218571D01*
X100996904Y-37170952D01*
X100949285Y-37123333D01*
X100901666Y-37028095D01*
X100901666Y-36932857D01*
X100949285Y-36837619D01*
X100996904Y-36790000D01*
X101092142Y-36742380D01*
X101330238Y-36742380D01*
X101473095Y-36790000D01*
X101806428Y-36742380D02*
X102044523Y-37742380D01*
X102235000Y-37028095D01*
X102425476Y-37742380D01*
X102663571Y-36742380D01*
X103568333Y-37742380D02*
X102996904Y-37742380D01*
X103282619Y-37742380D02*
X103282619Y-36742380D01*
X103187380Y-36885238D01*
X103092142Y-36980476D01*
X102996904Y-37028095D01*
X108867380Y-54776666D02*
X108391190Y-55110000D01*
X108867380Y-55348095D02*
X107867380Y-55348095D01*
X107867380Y-54967142D01*
X107915000Y-54871904D01*
X107962619Y-54824285D01*
X108057857Y-54776666D01*
X108200714Y-54776666D01*
X108295952Y-54824285D01*
X108343571Y-54871904D01*
X108391190Y-54967142D01*
X108391190Y-55348095D01*
X108867380Y-53824285D02*
X108867380Y-54395714D01*
X108867380Y-54110000D02*
X107867380Y-54110000D01*
X108010238Y-54205238D01*
X108105476Y-54300476D01*
X108153095Y-54395714D01*
X124317380Y-65103333D02*
X125031666Y-65103333D01*
X125174523Y-65150952D01*
X125269761Y-65246190D01*
X125317380Y-65389047D01*
X125317380Y-65484285D01*
X125317380Y-64579523D02*
X125317380Y-64389047D01*
X125269761Y-64293809D01*
X125222142Y-64246190D01*
X125079285Y-64150952D01*
X124888809Y-64103333D01*
X124507857Y-64103333D01*
X124412619Y-64150952D01*
X124365000Y-64198571D01*
X124317380Y-64293809D01*
X124317380Y-64484285D01*
X124365000Y-64579523D01*
X124412619Y-64627142D01*
X124507857Y-64674761D01*
X124745952Y-64674761D01*
X124841190Y-64627142D01*
X124888809Y-64579523D01*
X124936428Y-64484285D01*
X124936428Y-64293809D01*
X124888809Y-64198571D01*
X124841190Y-64150952D01*
X124745952Y-64103333D01*
X129397380Y-108918333D02*
X130111666Y-108918333D01*
X130254523Y-108965952D01*
X130349761Y-109061190D01*
X130397380Y-109204047D01*
X130397380Y-109299285D01*
X129825952Y-108299285D02*
X129778333Y-108394523D01*
X129730714Y-108442142D01*
X129635476Y-108489761D01*
X129587857Y-108489761D01*
X129492619Y-108442142D01*
X129445000Y-108394523D01*
X129397380Y-108299285D01*
X129397380Y-108108809D01*
X129445000Y-108013571D01*
X129492619Y-107965952D01*
X129587857Y-107918333D01*
X129635476Y-107918333D01*
X129730714Y-107965952D01*
X129778333Y-108013571D01*
X129825952Y-108108809D01*
X129825952Y-108299285D01*
X129873571Y-108394523D01*
X129921190Y-108442142D01*
X130016428Y-108489761D01*
X130206904Y-108489761D01*
X130302142Y-108442142D01*
X130349761Y-108394523D01*
X130397380Y-108299285D01*
X130397380Y-108108809D01*
X130349761Y-108013571D01*
X130302142Y-107965952D01*
X130206904Y-107918333D01*
X130016428Y-107918333D01*
X129921190Y-107965952D01*
X129873571Y-108013571D01*
X129825952Y-108108809D01*
X180006666Y-86852380D02*
X180006666Y-87566666D01*
X179959047Y-87709523D01*
X179863809Y-87804761D01*
X179720952Y-87852380D01*
X179625714Y-87852380D01*
X180387619Y-86852380D02*
X181054285Y-86852380D01*
X180625714Y-87852380D01*
X166036666Y-73977380D02*
X166036666Y-74691666D01*
X165989047Y-74834523D01*
X165893809Y-74929761D01*
X165750952Y-74977380D01*
X165655714Y-74977380D01*
X166941428Y-73977380D02*
X166750952Y-73977380D01*
X166655714Y-74025000D01*
X166608095Y-74072619D01*
X166512857Y-74215476D01*
X166465238Y-74405952D01*
X166465238Y-74786904D01*
X166512857Y-74882142D01*
X166560476Y-74929761D01*
X166655714Y-74977380D01*
X166846190Y-74977380D01*
X166941428Y-74929761D01*
X166989047Y-74882142D01*
X167036666Y-74786904D01*
X167036666Y-74548809D01*
X166989047Y-74453571D01*
X166941428Y-74405952D01*
X166846190Y-74358333D01*
X166655714Y-74358333D01*
X166560476Y-74405952D01*
X166512857Y-74453571D01*
X166465238Y-74548809D01*
X166036666Y-89217380D02*
X166036666Y-89931666D01*
X165989047Y-90074523D01*
X165893809Y-90169761D01*
X165750952Y-90217380D01*
X165655714Y-90217380D01*
X166989047Y-89217380D02*
X166512857Y-89217380D01*
X166465238Y-89693571D01*
X166512857Y-89645952D01*
X166608095Y-89598333D01*
X166846190Y-89598333D01*
X166941428Y-89645952D01*
X166989047Y-89693571D01*
X167036666Y-89788809D01*
X167036666Y-90026904D01*
X166989047Y-90122142D01*
X166941428Y-90169761D01*
X166846190Y-90217380D01*
X166608095Y-90217380D01*
X166512857Y-90169761D01*
X166465238Y-90122142D01*
X148256666Y-67802380D02*
X148256666Y-68516666D01*
X148209047Y-68659523D01*
X148113809Y-68754761D01*
X147970952Y-68802380D01*
X147875714Y-68802380D01*
X149161428Y-68135714D02*
X149161428Y-68802380D01*
X148923333Y-67754761D02*
X148685238Y-68469047D01*
X149304285Y-68469047D01*
X117141666Y-92567380D02*
X117141666Y-93281666D01*
X117094047Y-93424523D01*
X116998809Y-93519761D01*
X116855952Y-93567380D01*
X116760714Y-93567380D01*
X117522619Y-92567380D02*
X118141666Y-92567380D01*
X117808333Y-92948333D01*
X117951190Y-92948333D01*
X118046428Y-92995952D01*
X118094047Y-93043571D01*
X118141666Y-93138809D01*
X118141666Y-93376904D01*
X118094047Y-93472142D01*
X118046428Y-93519761D01*
X117951190Y-93567380D01*
X117665476Y-93567380D01*
X117570238Y-93519761D01*
X117522619Y-93472142D01*
X98726666Y-91757380D02*
X98726666Y-92471666D01*
X98679047Y-92614523D01*
X98583809Y-92709761D01*
X98440952Y-92757380D01*
X98345714Y-92757380D01*
X99155238Y-91852619D02*
X99202857Y-91805000D01*
X99298095Y-91757380D01*
X99536190Y-91757380D01*
X99631428Y-91805000D01*
X99679047Y-91852619D01*
X99726666Y-91947857D01*
X99726666Y-92043095D01*
X99679047Y-92185952D01*
X99107619Y-92757380D01*
X99726666Y-92757380D01*
X101282380Y-71453333D02*
X101996666Y-71453333D01*
X102139523Y-71500952D01*
X102234761Y-71596190D01*
X102282380Y-71739047D01*
X102282380Y-71834285D01*
X102282380Y-70453333D02*
X102282380Y-71024761D01*
X102282380Y-70739047D02*
X101282380Y-70739047D01*
X101425238Y-70834285D01*
X101520476Y-70929523D01*
X101568095Y-71024761D01*
X128718333Y-74062142D02*
X128670714Y-74109761D01*
X128527857Y-74157380D01*
X128432619Y-74157380D01*
X128289761Y-74109761D01*
X128194523Y-74014523D01*
X128146904Y-73919285D01*
X128099285Y-73728809D01*
X128099285Y-73585952D01*
X128146904Y-73395476D01*
X128194523Y-73300238D01*
X128289761Y-73205000D01*
X128432619Y-73157380D01*
X128527857Y-73157380D01*
X128670714Y-73205000D01*
X128718333Y-73252619D01*
X129575476Y-73490714D02*
X129575476Y-74157380D01*
X129337380Y-73109761D02*
X129099285Y-73824047D01*
X129718333Y-73824047D01*
X151442142Y-96666666D02*
X151489761Y-96714285D01*
X151537380Y-96857142D01*
X151537380Y-96952380D01*
X151489761Y-97095238D01*
X151394523Y-97190476D01*
X151299285Y-97238095D01*
X151108809Y-97285714D01*
X150965952Y-97285714D01*
X150775476Y-97238095D01*
X150680238Y-97190476D01*
X150585000Y-97095238D01*
X150537380Y-96952380D01*
X150537380Y-96857142D01*
X150585000Y-96714285D01*
X150632619Y-96666666D01*
X150537380Y-96333333D02*
X150537380Y-95714285D01*
X150918333Y-96047619D01*
X150918333Y-95904761D01*
X150965952Y-95809523D01*
X151013571Y-95761904D01*
X151108809Y-95714285D01*
X151346904Y-95714285D01*
X151442142Y-95761904D01*
X151489761Y-95809523D01*
X151537380Y-95904761D01*
X151537380Y-96190476D01*
X151489761Y-96285714D01*
X151442142Y-96333333D01*
X119782142Y-85911666D02*
X119829761Y-85959285D01*
X119877380Y-86102142D01*
X119877380Y-86197380D01*
X119829761Y-86340238D01*
X119734523Y-86435476D01*
X119639285Y-86483095D01*
X119448809Y-86530714D01*
X119305952Y-86530714D01*
X119115476Y-86483095D01*
X119020238Y-86435476D01*
X118925000Y-86340238D01*
X118877380Y-86197380D01*
X118877380Y-86102142D01*
X118925000Y-85959285D01*
X118972619Y-85911666D01*
X118972619Y-85530714D02*
X118925000Y-85483095D01*
X118877380Y-85387857D01*
X118877380Y-85149761D01*
X118925000Y-85054523D01*
X118972619Y-85006904D01*
X119067857Y-84959285D01*
X119163095Y-84959285D01*
X119305952Y-85006904D01*
X119877380Y-85578333D01*
X119877380Y-84959285D01*
X90647142Y-40866666D02*
X90694761Y-40914285D01*
X90742380Y-41057142D01*
X90742380Y-41152380D01*
X90694761Y-41295238D01*
X90599523Y-41390476D01*
X90504285Y-41438095D01*
X90313809Y-41485714D01*
X90170952Y-41485714D01*
X89980476Y-41438095D01*
X89885238Y-41390476D01*
X89790000Y-41295238D01*
X89742380Y-41152380D01*
X89742380Y-41057142D01*
X89790000Y-40914285D01*
X89837619Y-40866666D01*
X90742380Y-39914285D02*
X90742380Y-40485714D01*
X90742380Y-40200000D02*
X89742380Y-40200000D01*
X89885238Y-40295238D01*
X89980476Y-40390476D01*
X90028095Y-40485714D01*
M02*
