G04 #@! TF.GenerationSoftware,KiCad,Pcbnew,5.1.5-52549c5~84~ubuntu18.04.1*
G04 #@! TF.CreationDate,2019-11-27T16:08:13-05:00*
G04 #@! TF.ProjectId,miniPCB,6d696e69-5043-4422-9e6b-696361645f70,rev?*
G04 #@! TF.SameCoordinates,Original*
G04 #@! TF.FileFunction,Copper,L2,Bot*
G04 #@! TF.FilePolarity,Positive*
%FSLAX46Y46*%
G04 Gerber Fmt 4.6, Leading zero omitted, Abs format (unit mm)*
G04 Created by KiCad (PCBNEW 5.1.5-52549c5~84~ubuntu18.04.1) date 2019-11-27 16:08:13*
%MOMM*%
%LPD*%
G04 APERTURE LIST*
%ADD10C,1.397000*%
%ADD11O,1.600000X1.600000*%
%ADD12C,1.600000*%
%ADD13O,1.700000X1.700000*%
%ADD14R,1.700000X1.700000*%
%ADD15C,0.800000*%
%ADD16C,0.250000*%
%ADD17C,0.254000*%
G04 APERTURE END LIST*
D10*
X170815000Y-121920000D03*
X170815000Y-116840000D03*
X178435000Y-121920000D03*
X178435000Y-116840000D03*
X103505000Y-116205000D03*
X103505000Y-121285000D03*
X95885000Y-116205000D03*
X95885000Y-121285000D03*
X98425000Y-44450000D03*
X98425000Y-39370000D03*
X106045000Y-44450000D03*
X106045000Y-39370000D03*
D11*
X106045000Y-58420000D03*
D12*
X106045000Y-50800000D03*
D13*
X142875000Y-64770000D03*
X140335000Y-64770000D03*
X137795000Y-64770000D03*
X135255000Y-64770000D03*
X132715000Y-64770000D03*
X130175000Y-64770000D03*
D14*
X127635000Y-64770000D03*
D13*
X142875000Y-108585000D03*
X140335000Y-108585000D03*
X137795000Y-108585000D03*
X135255000Y-108585000D03*
D14*
X132715000Y-108585000D03*
D13*
X180340000Y-92710000D03*
D14*
X180340000Y-90170000D03*
X166370000Y-71755000D03*
D13*
X166370000Y-69215000D03*
X166370000Y-84455000D03*
D14*
X166370000Y-86995000D03*
D13*
X148590000Y-81280000D03*
X148590000Y-78740000D03*
X148590000Y-76200000D03*
X148590000Y-73660000D03*
D14*
X148590000Y-71120000D03*
D13*
X117475000Y-106045000D03*
X117475000Y-103505000D03*
X117475000Y-100965000D03*
X117475000Y-98425000D03*
D14*
X117475000Y-95885000D03*
D13*
X99060000Y-84455000D03*
X99060000Y-86995000D03*
D14*
X99060000Y-89535000D03*
D13*
X96520000Y-71120000D03*
D14*
X99060000Y-71120000D03*
D12*
X130135000Y-78105000D03*
X127635000Y-78105000D03*
X146685000Y-97750000D03*
X146685000Y-95250000D03*
X123825000Y-84495000D03*
X123825000Y-86995000D03*
D11*
X92710000Y-36950000D03*
D12*
X92710000Y-44450000D03*
D15*
X106045000Y-88265000D03*
X109855000Y-84455000D03*
X121285000Y-69850000D03*
X124460000Y-80645000D03*
X143510000Y-86155000D03*
X136525000Y-88265000D03*
X117475000Y-69850000D03*
X117475000Y-72390000D03*
X127000000Y-71120000D03*
X138430000Y-71120000D03*
D16*
X106045000Y-88265000D02*
X109855000Y-84455000D01*
X121285000Y-69850000D02*
X124460000Y-73025000D01*
X124460000Y-73025000D02*
X124460000Y-80645000D01*
X143510000Y-86155000D02*
X138635000Y-86155000D01*
X138635000Y-86155000D02*
X136525000Y-88265000D01*
X117475000Y-69850000D02*
X117475000Y-72390000D01*
X127000000Y-71120000D02*
X138430000Y-71120000D01*
D17*
G36*
X186665001Y-130785000D02*
G01*
X88290000Y-130785000D01*
X88290000Y-121153662D01*
X94551500Y-121153662D01*
X94551500Y-121416338D01*
X94602746Y-121673968D01*
X94703268Y-121916649D01*
X94849203Y-122135057D01*
X95034943Y-122320797D01*
X95253351Y-122466732D01*
X95496032Y-122567254D01*
X95753662Y-122618500D01*
X96016338Y-122618500D01*
X96273968Y-122567254D01*
X96516649Y-122466732D01*
X96735057Y-122320797D01*
X96920797Y-122135057D01*
X97066732Y-121916649D01*
X97167254Y-121673968D01*
X97218500Y-121416338D01*
X97218500Y-121153662D01*
X102171500Y-121153662D01*
X102171500Y-121416338D01*
X102222746Y-121673968D01*
X102323268Y-121916649D01*
X102469203Y-122135057D01*
X102654943Y-122320797D01*
X102873351Y-122466732D01*
X103116032Y-122567254D01*
X103373662Y-122618500D01*
X103636338Y-122618500D01*
X103893968Y-122567254D01*
X104136649Y-122466732D01*
X104355057Y-122320797D01*
X104540797Y-122135057D01*
X104686732Y-121916649D01*
X104739746Y-121788662D01*
X169481500Y-121788662D01*
X169481500Y-122051338D01*
X169532746Y-122308968D01*
X169633268Y-122551649D01*
X169779203Y-122770057D01*
X169964943Y-122955797D01*
X170183351Y-123101732D01*
X170426032Y-123202254D01*
X170683662Y-123253500D01*
X170946338Y-123253500D01*
X171203968Y-123202254D01*
X171446649Y-123101732D01*
X171665057Y-122955797D01*
X171850797Y-122770057D01*
X171996732Y-122551649D01*
X172097254Y-122308968D01*
X172148500Y-122051338D01*
X172148500Y-121788662D01*
X177101500Y-121788662D01*
X177101500Y-122051338D01*
X177152746Y-122308968D01*
X177253268Y-122551649D01*
X177399203Y-122770057D01*
X177584943Y-122955797D01*
X177803351Y-123101732D01*
X178046032Y-123202254D01*
X178303662Y-123253500D01*
X178566338Y-123253500D01*
X178823968Y-123202254D01*
X179066649Y-123101732D01*
X179285057Y-122955797D01*
X179470797Y-122770057D01*
X179616732Y-122551649D01*
X179717254Y-122308968D01*
X179768500Y-122051338D01*
X179768500Y-121788662D01*
X179717254Y-121531032D01*
X179616732Y-121288351D01*
X179470797Y-121069943D01*
X179285057Y-120884203D01*
X179066649Y-120738268D01*
X178823968Y-120637746D01*
X178566338Y-120586500D01*
X178303662Y-120586500D01*
X178046032Y-120637746D01*
X177803351Y-120738268D01*
X177584943Y-120884203D01*
X177399203Y-121069943D01*
X177253268Y-121288351D01*
X177152746Y-121531032D01*
X177101500Y-121788662D01*
X172148500Y-121788662D01*
X172097254Y-121531032D01*
X171996732Y-121288351D01*
X171850797Y-121069943D01*
X171665057Y-120884203D01*
X171446649Y-120738268D01*
X171203968Y-120637746D01*
X170946338Y-120586500D01*
X170683662Y-120586500D01*
X170426032Y-120637746D01*
X170183351Y-120738268D01*
X169964943Y-120884203D01*
X169779203Y-121069943D01*
X169633268Y-121288351D01*
X169532746Y-121531032D01*
X169481500Y-121788662D01*
X104739746Y-121788662D01*
X104787254Y-121673968D01*
X104838500Y-121416338D01*
X104838500Y-121153662D01*
X104787254Y-120896032D01*
X104686732Y-120653351D01*
X104540797Y-120434943D01*
X104355057Y-120249203D01*
X104136649Y-120103268D01*
X103893968Y-120002746D01*
X103636338Y-119951500D01*
X103373662Y-119951500D01*
X103116032Y-120002746D01*
X102873351Y-120103268D01*
X102654943Y-120249203D01*
X102469203Y-120434943D01*
X102323268Y-120653351D01*
X102222746Y-120896032D01*
X102171500Y-121153662D01*
X97218500Y-121153662D01*
X97167254Y-120896032D01*
X97066732Y-120653351D01*
X96920797Y-120434943D01*
X96735057Y-120249203D01*
X96516649Y-120103268D01*
X96273968Y-120002746D01*
X96016338Y-119951500D01*
X95753662Y-119951500D01*
X95496032Y-120002746D01*
X95253351Y-120103268D01*
X95034943Y-120249203D01*
X94849203Y-120434943D01*
X94703268Y-120653351D01*
X94602746Y-120896032D01*
X94551500Y-121153662D01*
X88290000Y-121153662D01*
X88290000Y-117760197D01*
X170074408Y-117760197D01*
X170133686Y-117993812D01*
X170371875Y-118104559D01*
X170627093Y-118166711D01*
X170889533Y-118177876D01*
X171149107Y-118137629D01*
X171395842Y-118047514D01*
X171496314Y-117993812D01*
X171555592Y-117760197D01*
X177694408Y-117760197D01*
X177753686Y-117993812D01*
X177991875Y-118104559D01*
X178247093Y-118166711D01*
X178509533Y-118177876D01*
X178769107Y-118137629D01*
X179015842Y-118047514D01*
X179116314Y-117993812D01*
X179175592Y-117760197D01*
X178435000Y-117019605D01*
X177694408Y-117760197D01*
X171555592Y-117760197D01*
X170815000Y-117019605D01*
X170074408Y-117760197D01*
X88290000Y-117760197D01*
X88290000Y-117125197D01*
X95144408Y-117125197D01*
X95203686Y-117358812D01*
X95441875Y-117469559D01*
X95697093Y-117531711D01*
X95959533Y-117542876D01*
X96219107Y-117502629D01*
X96465842Y-117412514D01*
X96566314Y-117358812D01*
X96625592Y-117125197D01*
X102764408Y-117125197D01*
X102823686Y-117358812D01*
X103061875Y-117469559D01*
X103317093Y-117531711D01*
X103579533Y-117542876D01*
X103839107Y-117502629D01*
X104085842Y-117412514D01*
X104186314Y-117358812D01*
X104245592Y-117125197D01*
X103505000Y-116384605D01*
X102764408Y-117125197D01*
X96625592Y-117125197D01*
X95885000Y-116384605D01*
X95144408Y-117125197D01*
X88290000Y-117125197D01*
X88290000Y-116279533D01*
X94547124Y-116279533D01*
X94587371Y-116539107D01*
X94677486Y-116785842D01*
X94731188Y-116886314D01*
X94964803Y-116945592D01*
X95705395Y-116205000D01*
X96064605Y-116205000D01*
X96805197Y-116945592D01*
X97038812Y-116886314D01*
X97149559Y-116648125D01*
X97211711Y-116392907D01*
X97216534Y-116279533D01*
X102167124Y-116279533D01*
X102207371Y-116539107D01*
X102297486Y-116785842D01*
X102351188Y-116886314D01*
X102584803Y-116945592D01*
X103325395Y-116205000D01*
X103684605Y-116205000D01*
X104425197Y-116945592D01*
X104547600Y-116914533D01*
X169477124Y-116914533D01*
X169517371Y-117174107D01*
X169607486Y-117420842D01*
X169661188Y-117521314D01*
X169894803Y-117580592D01*
X170635395Y-116840000D01*
X170994605Y-116840000D01*
X171735197Y-117580592D01*
X171968812Y-117521314D01*
X172079559Y-117283125D01*
X172141711Y-117027907D01*
X172146534Y-116914533D01*
X177097124Y-116914533D01*
X177137371Y-117174107D01*
X177227486Y-117420842D01*
X177281188Y-117521314D01*
X177514803Y-117580592D01*
X178255395Y-116840000D01*
X178614605Y-116840000D01*
X179355197Y-117580592D01*
X179588812Y-117521314D01*
X179699559Y-117283125D01*
X179761711Y-117027907D01*
X179772876Y-116765467D01*
X179732629Y-116505893D01*
X179642514Y-116259158D01*
X179588812Y-116158686D01*
X179355197Y-116099408D01*
X178614605Y-116840000D01*
X178255395Y-116840000D01*
X177514803Y-116099408D01*
X177281188Y-116158686D01*
X177170441Y-116396875D01*
X177108289Y-116652093D01*
X177097124Y-116914533D01*
X172146534Y-116914533D01*
X172152876Y-116765467D01*
X172112629Y-116505893D01*
X172022514Y-116259158D01*
X171968812Y-116158686D01*
X171735197Y-116099408D01*
X170994605Y-116840000D01*
X170635395Y-116840000D01*
X169894803Y-116099408D01*
X169661188Y-116158686D01*
X169550441Y-116396875D01*
X169488289Y-116652093D01*
X169477124Y-116914533D01*
X104547600Y-116914533D01*
X104658812Y-116886314D01*
X104769559Y-116648125D01*
X104831711Y-116392907D01*
X104842876Y-116130467D01*
X104810213Y-115919803D01*
X170074408Y-115919803D01*
X170815000Y-116660395D01*
X171555592Y-115919803D01*
X177694408Y-115919803D01*
X178435000Y-116660395D01*
X179175592Y-115919803D01*
X179116314Y-115686188D01*
X178878125Y-115575441D01*
X178622907Y-115513289D01*
X178360467Y-115502124D01*
X178100893Y-115542371D01*
X177854158Y-115632486D01*
X177753686Y-115686188D01*
X177694408Y-115919803D01*
X171555592Y-115919803D01*
X171496314Y-115686188D01*
X171258125Y-115575441D01*
X171002907Y-115513289D01*
X170740467Y-115502124D01*
X170480893Y-115542371D01*
X170234158Y-115632486D01*
X170133686Y-115686188D01*
X170074408Y-115919803D01*
X104810213Y-115919803D01*
X104802629Y-115870893D01*
X104712514Y-115624158D01*
X104658812Y-115523686D01*
X104425197Y-115464408D01*
X103684605Y-116205000D01*
X103325395Y-116205000D01*
X102584803Y-115464408D01*
X102351188Y-115523686D01*
X102240441Y-115761875D01*
X102178289Y-116017093D01*
X102167124Y-116279533D01*
X97216534Y-116279533D01*
X97222876Y-116130467D01*
X97182629Y-115870893D01*
X97092514Y-115624158D01*
X97038812Y-115523686D01*
X96805197Y-115464408D01*
X96064605Y-116205000D01*
X95705395Y-116205000D01*
X94964803Y-115464408D01*
X94731188Y-115523686D01*
X94620441Y-115761875D01*
X94558289Y-116017093D01*
X94547124Y-116279533D01*
X88290000Y-116279533D01*
X88290000Y-115284803D01*
X95144408Y-115284803D01*
X95885000Y-116025395D01*
X96625592Y-115284803D01*
X102764408Y-115284803D01*
X103505000Y-116025395D01*
X104245592Y-115284803D01*
X104186314Y-115051188D01*
X103948125Y-114940441D01*
X103692907Y-114878289D01*
X103430467Y-114867124D01*
X103170893Y-114907371D01*
X102924158Y-114997486D01*
X102823686Y-115051188D01*
X102764408Y-115284803D01*
X96625592Y-115284803D01*
X96566314Y-115051188D01*
X96328125Y-114940441D01*
X96072907Y-114878289D01*
X95810467Y-114867124D01*
X95550893Y-114907371D01*
X95304158Y-114997486D01*
X95203686Y-115051188D01*
X95144408Y-115284803D01*
X88290000Y-115284803D01*
X88290000Y-107735000D01*
X131226928Y-107735000D01*
X131226928Y-109435000D01*
X131239188Y-109559482D01*
X131275498Y-109679180D01*
X131334463Y-109789494D01*
X131413815Y-109886185D01*
X131510506Y-109965537D01*
X131620820Y-110024502D01*
X131740518Y-110060812D01*
X131865000Y-110073072D01*
X133565000Y-110073072D01*
X133689482Y-110060812D01*
X133809180Y-110024502D01*
X133919494Y-109965537D01*
X134016185Y-109886185D01*
X134095537Y-109789494D01*
X134154502Y-109679180D01*
X134176513Y-109606620D01*
X134308368Y-109738475D01*
X134551589Y-109900990D01*
X134821842Y-110012932D01*
X135108740Y-110070000D01*
X135401260Y-110070000D01*
X135688158Y-110012932D01*
X135958411Y-109900990D01*
X136201632Y-109738475D01*
X136408475Y-109531632D01*
X136525000Y-109357240D01*
X136641525Y-109531632D01*
X136848368Y-109738475D01*
X137091589Y-109900990D01*
X137361842Y-110012932D01*
X137648740Y-110070000D01*
X137941260Y-110070000D01*
X138228158Y-110012932D01*
X138498411Y-109900990D01*
X138741632Y-109738475D01*
X138948475Y-109531632D01*
X139065000Y-109357240D01*
X139181525Y-109531632D01*
X139388368Y-109738475D01*
X139631589Y-109900990D01*
X139901842Y-110012932D01*
X140188740Y-110070000D01*
X140481260Y-110070000D01*
X140768158Y-110012932D01*
X141038411Y-109900990D01*
X141281632Y-109738475D01*
X141488475Y-109531632D01*
X141605000Y-109357240D01*
X141721525Y-109531632D01*
X141928368Y-109738475D01*
X142171589Y-109900990D01*
X142441842Y-110012932D01*
X142728740Y-110070000D01*
X143021260Y-110070000D01*
X143308158Y-110012932D01*
X143578411Y-109900990D01*
X143821632Y-109738475D01*
X144028475Y-109531632D01*
X144190990Y-109288411D01*
X144302932Y-109018158D01*
X144360000Y-108731260D01*
X144360000Y-108438740D01*
X144302932Y-108151842D01*
X144190990Y-107881589D01*
X144028475Y-107638368D01*
X143821632Y-107431525D01*
X143578411Y-107269010D01*
X143308158Y-107157068D01*
X143021260Y-107100000D01*
X142728740Y-107100000D01*
X142441842Y-107157068D01*
X142171589Y-107269010D01*
X141928368Y-107431525D01*
X141721525Y-107638368D01*
X141605000Y-107812760D01*
X141488475Y-107638368D01*
X141281632Y-107431525D01*
X141038411Y-107269010D01*
X140768158Y-107157068D01*
X140481260Y-107100000D01*
X140188740Y-107100000D01*
X139901842Y-107157068D01*
X139631589Y-107269010D01*
X139388368Y-107431525D01*
X139181525Y-107638368D01*
X139065000Y-107812760D01*
X138948475Y-107638368D01*
X138741632Y-107431525D01*
X138498411Y-107269010D01*
X138228158Y-107157068D01*
X137941260Y-107100000D01*
X137648740Y-107100000D01*
X137361842Y-107157068D01*
X137091589Y-107269010D01*
X136848368Y-107431525D01*
X136641525Y-107638368D01*
X136525000Y-107812760D01*
X136408475Y-107638368D01*
X136201632Y-107431525D01*
X135958411Y-107269010D01*
X135688158Y-107157068D01*
X135401260Y-107100000D01*
X135108740Y-107100000D01*
X134821842Y-107157068D01*
X134551589Y-107269010D01*
X134308368Y-107431525D01*
X134176513Y-107563380D01*
X134154502Y-107490820D01*
X134095537Y-107380506D01*
X134016185Y-107283815D01*
X133919494Y-107204463D01*
X133809180Y-107145498D01*
X133689482Y-107109188D01*
X133565000Y-107096928D01*
X131865000Y-107096928D01*
X131740518Y-107109188D01*
X131620820Y-107145498D01*
X131510506Y-107204463D01*
X131413815Y-107283815D01*
X131334463Y-107380506D01*
X131275498Y-107490820D01*
X131239188Y-107610518D01*
X131226928Y-107735000D01*
X88290000Y-107735000D01*
X88290000Y-95035000D01*
X115986928Y-95035000D01*
X115986928Y-96735000D01*
X115999188Y-96859482D01*
X116035498Y-96979180D01*
X116094463Y-97089494D01*
X116173815Y-97186185D01*
X116270506Y-97265537D01*
X116380820Y-97324502D01*
X116453380Y-97346513D01*
X116321525Y-97478368D01*
X116159010Y-97721589D01*
X116047068Y-97991842D01*
X115990000Y-98278740D01*
X115990000Y-98571260D01*
X116047068Y-98858158D01*
X116159010Y-99128411D01*
X116321525Y-99371632D01*
X116528368Y-99578475D01*
X116702760Y-99695000D01*
X116528368Y-99811525D01*
X116321525Y-100018368D01*
X116159010Y-100261589D01*
X116047068Y-100531842D01*
X115990000Y-100818740D01*
X115990000Y-101111260D01*
X116047068Y-101398158D01*
X116159010Y-101668411D01*
X116321525Y-101911632D01*
X116528368Y-102118475D01*
X116702760Y-102235000D01*
X116528368Y-102351525D01*
X116321525Y-102558368D01*
X116159010Y-102801589D01*
X116047068Y-103071842D01*
X115990000Y-103358740D01*
X115990000Y-103651260D01*
X116047068Y-103938158D01*
X116159010Y-104208411D01*
X116321525Y-104451632D01*
X116528368Y-104658475D01*
X116702760Y-104775000D01*
X116528368Y-104891525D01*
X116321525Y-105098368D01*
X116159010Y-105341589D01*
X116047068Y-105611842D01*
X115990000Y-105898740D01*
X115990000Y-106191260D01*
X116047068Y-106478158D01*
X116159010Y-106748411D01*
X116321525Y-106991632D01*
X116528368Y-107198475D01*
X116771589Y-107360990D01*
X117041842Y-107472932D01*
X117328740Y-107530000D01*
X117621260Y-107530000D01*
X117908158Y-107472932D01*
X118178411Y-107360990D01*
X118421632Y-107198475D01*
X118628475Y-106991632D01*
X118790990Y-106748411D01*
X118902932Y-106478158D01*
X118960000Y-106191260D01*
X118960000Y-105898740D01*
X118902932Y-105611842D01*
X118790990Y-105341589D01*
X118628475Y-105098368D01*
X118421632Y-104891525D01*
X118247240Y-104775000D01*
X118421632Y-104658475D01*
X118628475Y-104451632D01*
X118790990Y-104208411D01*
X118902932Y-103938158D01*
X118960000Y-103651260D01*
X118960000Y-103358740D01*
X118902932Y-103071842D01*
X118790990Y-102801589D01*
X118628475Y-102558368D01*
X118421632Y-102351525D01*
X118247240Y-102235000D01*
X118421632Y-102118475D01*
X118628475Y-101911632D01*
X118790990Y-101668411D01*
X118902932Y-101398158D01*
X118960000Y-101111260D01*
X118960000Y-100818740D01*
X118902932Y-100531842D01*
X118790990Y-100261589D01*
X118628475Y-100018368D01*
X118421632Y-99811525D01*
X118247240Y-99695000D01*
X118421632Y-99578475D01*
X118628475Y-99371632D01*
X118790990Y-99128411D01*
X118902932Y-98858158D01*
X118925897Y-98742702D01*
X145871903Y-98742702D01*
X145943486Y-98986671D01*
X146198996Y-99107571D01*
X146473184Y-99176300D01*
X146755512Y-99190217D01*
X147035130Y-99148787D01*
X147301292Y-99053603D01*
X147426514Y-98986671D01*
X147498097Y-98742702D01*
X146685000Y-97929605D01*
X145871903Y-98742702D01*
X118925897Y-98742702D01*
X118960000Y-98571260D01*
X118960000Y-98278740D01*
X118902932Y-97991842D01*
X118831966Y-97820512D01*
X145244783Y-97820512D01*
X145286213Y-98100130D01*
X145381397Y-98366292D01*
X145448329Y-98491514D01*
X145692298Y-98563097D01*
X146505395Y-97750000D01*
X146864605Y-97750000D01*
X147677702Y-98563097D01*
X147921671Y-98491514D01*
X148042571Y-98236004D01*
X148111300Y-97961816D01*
X148125217Y-97679488D01*
X148083787Y-97399870D01*
X147988603Y-97133708D01*
X147921671Y-97008486D01*
X147677702Y-96936903D01*
X146864605Y-97750000D01*
X146505395Y-97750000D01*
X145692298Y-96936903D01*
X145448329Y-97008486D01*
X145327429Y-97263996D01*
X145258700Y-97538184D01*
X145244783Y-97820512D01*
X118831966Y-97820512D01*
X118790990Y-97721589D01*
X118628475Y-97478368D01*
X118496620Y-97346513D01*
X118569180Y-97324502D01*
X118679494Y-97265537D01*
X118776185Y-97186185D01*
X118855537Y-97089494D01*
X118914502Y-96979180D01*
X118950812Y-96859482D01*
X118963072Y-96735000D01*
X118963072Y-95108665D01*
X145250000Y-95108665D01*
X145250000Y-95391335D01*
X145305147Y-95668574D01*
X145413320Y-95929727D01*
X145570363Y-96164759D01*
X145770241Y-96364637D01*
X145970869Y-96498692D01*
X145943486Y-96513329D01*
X145871903Y-96757298D01*
X146685000Y-97570395D01*
X147498097Y-96757298D01*
X147426514Y-96513329D01*
X147397659Y-96499676D01*
X147599759Y-96364637D01*
X147799637Y-96164759D01*
X147956680Y-95929727D01*
X148064853Y-95668574D01*
X148120000Y-95391335D01*
X148120000Y-95108665D01*
X148064853Y-94831426D01*
X147956680Y-94570273D01*
X147799637Y-94335241D01*
X147599759Y-94135363D01*
X147364727Y-93978320D01*
X147103574Y-93870147D01*
X146826335Y-93815000D01*
X146543665Y-93815000D01*
X146266426Y-93870147D01*
X146005273Y-93978320D01*
X145770241Y-94135363D01*
X145570363Y-94335241D01*
X145413320Y-94570273D01*
X145305147Y-94831426D01*
X145250000Y-95108665D01*
X118963072Y-95108665D01*
X118963072Y-95035000D01*
X118950812Y-94910518D01*
X118914502Y-94790820D01*
X118855537Y-94680506D01*
X118776185Y-94583815D01*
X118679494Y-94504463D01*
X118569180Y-94445498D01*
X118449482Y-94409188D01*
X118325000Y-94396928D01*
X116625000Y-94396928D01*
X116500518Y-94409188D01*
X116380820Y-94445498D01*
X116270506Y-94504463D01*
X116173815Y-94583815D01*
X116094463Y-94680506D01*
X116035498Y-94790820D01*
X115999188Y-94910518D01*
X115986928Y-95035000D01*
X88290000Y-95035000D01*
X88290000Y-90385000D01*
X97571928Y-90385000D01*
X97584188Y-90509482D01*
X97620498Y-90629180D01*
X97679463Y-90739494D01*
X97758815Y-90836185D01*
X97855506Y-90915537D01*
X97965820Y-90974502D01*
X98085518Y-91010812D01*
X98210000Y-91023072D01*
X98774250Y-91020000D01*
X98933000Y-90861250D01*
X98933000Y-89662000D01*
X99187000Y-89662000D01*
X99187000Y-90861250D01*
X99345750Y-91020000D01*
X99910000Y-91023072D01*
X100034482Y-91010812D01*
X100154180Y-90974502D01*
X100264494Y-90915537D01*
X100361185Y-90836185D01*
X100440537Y-90739494D01*
X100499502Y-90629180D01*
X100535812Y-90509482D01*
X100548072Y-90385000D01*
X100545000Y-89820750D01*
X100386250Y-89662000D01*
X99187000Y-89662000D01*
X98933000Y-89662000D01*
X97733750Y-89662000D01*
X97575000Y-89820750D01*
X97571928Y-90385000D01*
X88290000Y-90385000D01*
X88290000Y-88685000D01*
X97571928Y-88685000D01*
X97575000Y-89249250D01*
X97733750Y-89408000D01*
X98933000Y-89408000D01*
X98933000Y-89388000D01*
X99187000Y-89388000D01*
X99187000Y-89408000D01*
X100386250Y-89408000D01*
X100474250Y-89320000D01*
X178851928Y-89320000D01*
X178851928Y-91020000D01*
X178864188Y-91144482D01*
X178900498Y-91264180D01*
X178959463Y-91374494D01*
X179038815Y-91471185D01*
X179135506Y-91550537D01*
X179245820Y-91609502D01*
X179318380Y-91631513D01*
X179186525Y-91763368D01*
X179024010Y-92006589D01*
X178912068Y-92276842D01*
X178855000Y-92563740D01*
X178855000Y-92856260D01*
X178912068Y-93143158D01*
X179024010Y-93413411D01*
X179186525Y-93656632D01*
X179393368Y-93863475D01*
X179636589Y-94025990D01*
X179906842Y-94137932D01*
X180193740Y-94195000D01*
X180486260Y-94195000D01*
X180773158Y-94137932D01*
X181043411Y-94025990D01*
X181286632Y-93863475D01*
X181493475Y-93656632D01*
X181655990Y-93413411D01*
X181767932Y-93143158D01*
X181825000Y-92856260D01*
X181825000Y-92563740D01*
X181767932Y-92276842D01*
X181655990Y-92006589D01*
X181493475Y-91763368D01*
X181361620Y-91631513D01*
X181434180Y-91609502D01*
X181544494Y-91550537D01*
X181641185Y-91471185D01*
X181720537Y-91374494D01*
X181779502Y-91264180D01*
X181815812Y-91144482D01*
X181828072Y-91020000D01*
X181828072Y-89320000D01*
X181815812Y-89195518D01*
X181779502Y-89075820D01*
X181720537Y-88965506D01*
X181641185Y-88868815D01*
X181544494Y-88789463D01*
X181434180Y-88730498D01*
X181314482Y-88694188D01*
X181190000Y-88681928D01*
X179490000Y-88681928D01*
X179365518Y-88694188D01*
X179245820Y-88730498D01*
X179135506Y-88789463D01*
X179038815Y-88868815D01*
X178959463Y-88965506D01*
X178900498Y-89075820D01*
X178864188Y-89195518D01*
X178851928Y-89320000D01*
X100474250Y-89320000D01*
X100545000Y-89249250D01*
X100548072Y-88685000D01*
X100535812Y-88560518D01*
X100499502Y-88440820D01*
X100440537Y-88330506D01*
X100361185Y-88233815D01*
X100264494Y-88154463D01*
X100154180Y-88095498D01*
X100081620Y-88073487D01*
X100213475Y-87941632D01*
X100375990Y-87698411D01*
X100487932Y-87428158D01*
X100545000Y-87141260D01*
X100545000Y-86853665D01*
X122390000Y-86853665D01*
X122390000Y-87136335D01*
X122445147Y-87413574D01*
X122553320Y-87674727D01*
X122710363Y-87909759D01*
X122910241Y-88109637D01*
X123145273Y-88266680D01*
X123406426Y-88374853D01*
X123683665Y-88430000D01*
X123966335Y-88430000D01*
X124243574Y-88374853D01*
X124504727Y-88266680D01*
X124659804Y-88163061D01*
X135490000Y-88163061D01*
X135490000Y-88366939D01*
X135529774Y-88566898D01*
X135607795Y-88755256D01*
X135721063Y-88924774D01*
X135865226Y-89068937D01*
X136034744Y-89182205D01*
X136223102Y-89260226D01*
X136423061Y-89300000D01*
X136626939Y-89300000D01*
X136826898Y-89260226D01*
X137015256Y-89182205D01*
X137184774Y-89068937D01*
X137328937Y-88924774D01*
X137442205Y-88755256D01*
X137520226Y-88566898D01*
X137560000Y-88366939D01*
X137560000Y-88304801D01*
X138949802Y-86915000D01*
X142806289Y-86915000D01*
X142850226Y-86958937D01*
X143019744Y-87072205D01*
X143208102Y-87150226D01*
X143408061Y-87190000D01*
X143611939Y-87190000D01*
X143811898Y-87150226D01*
X144000256Y-87072205D01*
X144169774Y-86958937D01*
X144313937Y-86814774D01*
X144427205Y-86645256D01*
X144505226Y-86456898D01*
X144545000Y-86256939D01*
X144545000Y-86145000D01*
X164881928Y-86145000D01*
X164881928Y-87845000D01*
X164894188Y-87969482D01*
X164930498Y-88089180D01*
X164989463Y-88199494D01*
X165068815Y-88296185D01*
X165165506Y-88375537D01*
X165275820Y-88434502D01*
X165395518Y-88470812D01*
X165520000Y-88483072D01*
X167220000Y-88483072D01*
X167344482Y-88470812D01*
X167464180Y-88434502D01*
X167574494Y-88375537D01*
X167671185Y-88296185D01*
X167750537Y-88199494D01*
X167809502Y-88089180D01*
X167845812Y-87969482D01*
X167858072Y-87845000D01*
X167858072Y-86145000D01*
X167845812Y-86020518D01*
X167809502Y-85900820D01*
X167750537Y-85790506D01*
X167671185Y-85693815D01*
X167574494Y-85614463D01*
X167464180Y-85555498D01*
X167383534Y-85531034D01*
X167467588Y-85455269D01*
X167641641Y-85221920D01*
X167766825Y-84959099D01*
X167811476Y-84811890D01*
X167690155Y-84582000D01*
X166497000Y-84582000D01*
X166497000Y-84602000D01*
X166243000Y-84602000D01*
X166243000Y-84582000D01*
X165049845Y-84582000D01*
X164928524Y-84811890D01*
X164973175Y-84959099D01*
X165098359Y-85221920D01*
X165272412Y-85455269D01*
X165356466Y-85531034D01*
X165275820Y-85555498D01*
X165165506Y-85614463D01*
X165068815Y-85693815D01*
X164989463Y-85790506D01*
X164930498Y-85900820D01*
X164894188Y-86020518D01*
X164881928Y-86145000D01*
X144545000Y-86145000D01*
X144545000Y-86053061D01*
X144505226Y-85853102D01*
X144427205Y-85664744D01*
X144313937Y-85495226D01*
X144169774Y-85351063D01*
X144000256Y-85237795D01*
X143811898Y-85159774D01*
X143611939Y-85120000D01*
X143408061Y-85120000D01*
X143208102Y-85159774D01*
X143019744Y-85237795D01*
X142850226Y-85351063D01*
X142806289Y-85395000D01*
X138672333Y-85395000D01*
X138635000Y-85391323D01*
X138597667Y-85395000D01*
X138486014Y-85405997D01*
X138342753Y-85449454D01*
X138210724Y-85520026D01*
X138094999Y-85614999D01*
X138071201Y-85643997D01*
X136485199Y-87230000D01*
X136423061Y-87230000D01*
X136223102Y-87269774D01*
X136034744Y-87347795D01*
X135865226Y-87461063D01*
X135721063Y-87605226D01*
X135607795Y-87774744D01*
X135529774Y-87963102D01*
X135490000Y-88163061D01*
X124659804Y-88163061D01*
X124739759Y-88109637D01*
X124939637Y-87909759D01*
X125096680Y-87674727D01*
X125204853Y-87413574D01*
X125260000Y-87136335D01*
X125260000Y-86853665D01*
X125204853Y-86576426D01*
X125096680Y-86315273D01*
X124939637Y-86080241D01*
X124739759Y-85880363D01*
X124539131Y-85746308D01*
X124566514Y-85731671D01*
X124638097Y-85487702D01*
X123825000Y-84674605D01*
X123011903Y-85487702D01*
X123083486Y-85731671D01*
X123112341Y-85745324D01*
X122910241Y-85880363D01*
X122710363Y-86080241D01*
X122553320Y-86315273D01*
X122445147Y-86576426D01*
X122390000Y-86853665D01*
X100545000Y-86853665D01*
X100545000Y-86848740D01*
X100487932Y-86561842D01*
X100375990Y-86291589D01*
X100213475Y-86048368D01*
X100006632Y-85841525D01*
X99832240Y-85725000D01*
X100006632Y-85608475D01*
X100213475Y-85401632D01*
X100375990Y-85158411D01*
X100487932Y-84888158D01*
X100545000Y-84601260D01*
X100545000Y-84565512D01*
X122384783Y-84565512D01*
X122426213Y-84845130D01*
X122521397Y-85111292D01*
X122588329Y-85236514D01*
X122832298Y-85308097D01*
X123645395Y-84495000D01*
X124004605Y-84495000D01*
X124817702Y-85308097D01*
X125061671Y-85236514D01*
X125182571Y-84981004D01*
X125251300Y-84706816D01*
X125265217Y-84424488D01*
X125223787Y-84144870D01*
X125207065Y-84098110D01*
X164928524Y-84098110D01*
X165049845Y-84328000D01*
X166243000Y-84328000D01*
X166243000Y-83134186D01*
X166497000Y-83134186D01*
X166497000Y-84328000D01*
X167690155Y-84328000D01*
X167811476Y-84098110D01*
X167766825Y-83950901D01*
X167641641Y-83688080D01*
X167467588Y-83454731D01*
X167251355Y-83259822D01*
X167001252Y-83110843D01*
X166726891Y-83013519D01*
X166497000Y-83134186D01*
X166243000Y-83134186D01*
X166013109Y-83013519D01*
X165738748Y-83110843D01*
X165488645Y-83259822D01*
X165272412Y-83454731D01*
X165098359Y-83688080D01*
X164973175Y-83950901D01*
X164928524Y-84098110D01*
X125207065Y-84098110D01*
X125128603Y-83878708D01*
X125061671Y-83753486D01*
X124817702Y-83681903D01*
X124004605Y-84495000D01*
X123645395Y-84495000D01*
X122832298Y-83681903D01*
X122588329Y-83753486D01*
X122467429Y-84008996D01*
X122398700Y-84283184D01*
X122384783Y-84565512D01*
X100545000Y-84565512D01*
X100545000Y-84308740D01*
X100487932Y-84021842D01*
X100375990Y-83751589D01*
X100213475Y-83508368D01*
X100207405Y-83502298D01*
X123011903Y-83502298D01*
X123825000Y-84315395D01*
X124638097Y-83502298D01*
X124566514Y-83258329D01*
X124311004Y-83137429D01*
X124036816Y-83068700D01*
X123754488Y-83054783D01*
X123474870Y-83096213D01*
X123208708Y-83191397D01*
X123083486Y-83258329D01*
X123011903Y-83502298D01*
X100207405Y-83502298D01*
X100006632Y-83301525D01*
X99763411Y-83139010D01*
X99493158Y-83027068D01*
X99206260Y-82970000D01*
X98913740Y-82970000D01*
X98626842Y-83027068D01*
X98356589Y-83139010D01*
X98113368Y-83301525D01*
X97906525Y-83508368D01*
X97744010Y-83751589D01*
X97632068Y-84021842D01*
X97575000Y-84308740D01*
X97575000Y-84601260D01*
X97632068Y-84888158D01*
X97744010Y-85158411D01*
X97906525Y-85401632D01*
X98113368Y-85608475D01*
X98287760Y-85725000D01*
X98113368Y-85841525D01*
X97906525Y-86048368D01*
X97744010Y-86291589D01*
X97632068Y-86561842D01*
X97575000Y-86848740D01*
X97575000Y-87141260D01*
X97632068Y-87428158D01*
X97744010Y-87698411D01*
X97906525Y-87941632D01*
X98038380Y-88073487D01*
X97965820Y-88095498D01*
X97855506Y-88154463D01*
X97758815Y-88233815D01*
X97679463Y-88330506D01*
X97620498Y-88440820D01*
X97584188Y-88560518D01*
X97571928Y-88685000D01*
X88290000Y-88685000D01*
X88290000Y-71476891D01*
X95078519Y-71476891D01*
X95175843Y-71751252D01*
X95324822Y-72001355D01*
X95519731Y-72217588D01*
X95753080Y-72391641D01*
X96015901Y-72516825D01*
X96163110Y-72561476D01*
X96393000Y-72440155D01*
X96393000Y-71247000D01*
X95199186Y-71247000D01*
X95078519Y-71476891D01*
X88290000Y-71476891D01*
X88290000Y-70763109D01*
X95078519Y-70763109D01*
X95199186Y-70993000D01*
X96393000Y-70993000D01*
X96393000Y-69799845D01*
X96647000Y-69799845D01*
X96647000Y-70993000D01*
X96667000Y-70993000D01*
X96667000Y-71247000D01*
X96647000Y-71247000D01*
X96647000Y-72440155D01*
X96876890Y-72561476D01*
X97024099Y-72516825D01*
X97286920Y-72391641D01*
X97520269Y-72217588D01*
X97596034Y-72133534D01*
X97620498Y-72214180D01*
X97679463Y-72324494D01*
X97758815Y-72421185D01*
X97855506Y-72500537D01*
X97965820Y-72559502D01*
X98085518Y-72595812D01*
X98210000Y-72608072D01*
X99910000Y-72608072D01*
X100034482Y-72595812D01*
X100154180Y-72559502D01*
X100264494Y-72500537D01*
X100361185Y-72421185D01*
X100440537Y-72324494D01*
X100499502Y-72214180D01*
X100535812Y-72094482D01*
X100548072Y-71970000D01*
X100548072Y-70270000D01*
X100535812Y-70145518D01*
X100499502Y-70025820D01*
X100440537Y-69915506D01*
X100361185Y-69818815D01*
X100274971Y-69748061D01*
X116440000Y-69748061D01*
X116440000Y-69951939D01*
X116479774Y-70151898D01*
X116557795Y-70340256D01*
X116671063Y-70509774D01*
X116715000Y-70553711D01*
X116715001Y-71686288D01*
X116671063Y-71730226D01*
X116557795Y-71899744D01*
X116479774Y-72088102D01*
X116440000Y-72288061D01*
X116440000Y-72491939D01*
X116479774Y-72691898D01*
X116557795Y-72880256D01*
X116671063Y-73049774D01*
X116815226Y-73193937D01*
X116984744Y-73307205D01*
X117173102Y-73385226D01*
X117373061Y-73425000D01*
X117576939Y-73425000D01*
X117776898Y-73385226D01*
X117965256Y-73307205D01*
X118134774Y-73193937D01*
X118278937Y-73049774D01*
X118392205Y-72880256D01*
X118470226Y-72691898D01*
X118510000Y-72491939D01*
X118510000Y-72288061D01*
X118470226Y-72088102D01*
X118392205Y-71899744D01*
X118278937Y-71730226D01*
X118235000Y-71686289D01*
X118235000Y-70553711D01*
X118278937Y-70509774D01*
X118392205Y-70340256D01*
X118470226Y-70151898D01*
X118510000Y-69951939D01*
X118510000Y-69748061D01*
X120250000Y-69748061D01*
X120250000Y-69951939D01*
X120289774Y-70151898D01*
X120367795Y-70340256D01*
X120481063Y-70509774D01*
X120625226Y-70653937D01*
X120794744Y-70767205D01*
X120983102Y-70845226D01*
X121183061Y-70885000D01*
X121245199Y-70885000D01*
X123700000Y-73339802D01*
X123700001Y-79941288D01*
X123656063Y-79985226D01*
X123542795Y-80154744D01*
X123464774Y-80343102D01*
X123425000Y-80543061D01*
X123425000Y-80746939D01*
X123464774Y-80946898D01*
X123542795Y-81135256D01*
X123656063Y-81304774D01*
X123800226Y-81448937D01*
X123969744Y-81562205D01*
X124158102Y-81640226D01*
X124358061Y-81680000D01*
X124561939Y-81680000D01*
X124761898Y-81640226D01*
X124950256Y-81562205D01*
X125119774Y-81448937D01*
X125263937Y-81304774D01*
X125377205Y-81135256D01*
X125455226Y-80946898D01*
X125495000Y-80746939D01*
X125495000Y-80543061D01*
X125455226Y-80343102D01*
X125377205Y-80154744D01*
X125263937Y-79985226D01*
X125220000Y-79941289D01*
X125220000Y-77963665D01*
X126200000Y-77963665D01*
X126200000Y-78246335D01*
X126255147Y-78523574D01*
X126363320Y-78784727D01*
X126520363Y-79019759D01*
X126720241Y-79219637D01*
X126955273Y-79376680D01*
X127216426Y-79484853D01*
X127493665Y-79540000D01*
X127776335Y-79540000D01*
X128053574Y-79484853D01*
X128314727Y-79376680D01*
X128549759Y-79219637D01*
X128671694Y-79097702D01*
X129321903Y-79097702D01*
X129393486Y-79341671D01*
X129648996Y-79462571D01*
X129923184Y-79531300D01*
X130205512Y-79545217D01*
X130485130Y-79503787D01*
X130751292Y-79408603D01*
X130876514Y-79341671D01*
X130948097Y-79097702D01*
X130135000Y-78284605D01*
X129321903Y-79097702D01*
X128671694Y-79097702D01*
X128749637Y-79019759D01*
X128883692Y-78819131D01*
X128898329Y-78846514D01*
X129142298Y-78918097D01*
X129955395Y-78105000D01*
X130314605Y-78105000D01*
X131127702Y-78918097D01*
X131371671Y-78846514D01*
X131491276Y-78593740D01*
X147105000Y-78593740D01*
X147105000Y-78886260D01*
X147162068Y-79173158D01*
X147274010Y-79443411D01*
X147436525Y-79686632D01*
X147643368Y-79893475D01*
X147817760Y-80010000D01*
X147643368Y-80126525D01*
X147436525Y-80333368D01*
X147274010Y-80576589D01*
X147162068Y-80846842D01*
X147105000Y-81133740D01*
X147105000Y-81426260D01*
X147162068Y-81713158D01*
X147274010Y-81983411D01*
X147436525Y-82226632D01*
X147643368Y-82433475D01*
X147886589Y-82595990D01*
X148156842Y-82707932D01*
X148443740Y-82765000D01*
X148736260Y-82765000D01*
X149023158Y-82707932D01*
X149293411Y-82595990D01*
X149536632Y-82433475D01*
X149743475Y-82226632D01*
X149905990Y-81983411D01*
X150017932Y-81713158D01*
X150075000Y-81426260D01*
X150075000Y-81133740D01*
X150017932Y-80846842D01*
X149905990Y-80576589D01*
X149743475Y-80333368D01*
X149536632Y-80126525D01*
X149362240Y-80010000D01*
X149536632Y-79893475D01*
X149743475Y-79686632D01*
X149905990Y-79443411D01*
X150017932Y-79173158D01*
X150075000Y-78886260D01*
X150075000Y-78593740D01*
X150017932Y-78306842D01*
X149905990Y-78036589D01*
X149743475Y-77793368D01*
X149536632Y-77586525D01*
X149354466Y-77464805D01*
X149471355Y-77395178D01*
X149687588Y-77200269D01*
X149861641Y-76966920D01*
X149986825Y-76704099D01*
X150031476Y-76556890D01*
X149910155Y-76327000D01*
X148717000Y-76327000D01*
X148717000Y-76347000D01*
X148463000Y-76347000D01*
X148463000Y-76327000D01*
X147269845Y-76327000D01*
X147148524Y-76556890D01*
X147193175Y-76704099D01*
X147318359Y-76966920D01*
X147492412Y-77200269D01*
X147708645Y-77395178D01*
X147825534Y-77464805D01*
X147643368Y-77586525D01*
X147436525Y-77793368D01*
X147274010Y-78036589D01*
X147162068Y-78306842D01*
X147105000Y-78593740D01*
X131491276Y-78593740D01*
X131492571Y-78591004D01*
X131561300Y-78316816D01*
X131575217Y-78034488D01*
X131533787Y-77754870D01*
X131438603Y-77488708D01*
X131371671Y-77363486D01*
X131127702Y-77291903D01*
X130314605Y-78105000D01*
X129955395Y-78105000D01*
X129142298Y-77291903D01*
X128898329Y-77363486D01*
X128884676Y-77392341D01*
X128749637Y-77190241D01*
X128671694Y-77112298D01*
X129321903Y-77112298D01*
X130135000Y-77925395D01*
X130948097Y-77112298D01*
X130876514Y-76868329D01*
X130621004Y-76747429D01*
X130346816Y-76678700D01*
X130064488Y-76664783D01*
X129784870Y-76706213D01*
X129518708Y-76801397D01*
X129393486Y-76868329D01*
X129321903Y-77112298D01*
X128671694Y-77112298D01*
X128549759Y-76990363D01*
X128314727Y-76833320D01*
X128053574Y-76725147D01*
X127776335Y-76670000D01*
X127493665Y-76670000D01*
X127216426Y-76725147D01*
X126955273Y-76833320D01*
X126720241Y-76990363D01*
X126520363Y-77190241D01*
X126363320Y-77425273D01*
X126255147Y-77686426D01*
X126200000Y-77963665D01*
X125220000Y-77963665D01*
X125220000Y-73062322D01*
X125223676Y-73024999D01*
X125220000Y-72987676D01*
X125220000Y-72987667D01*
X125209003Y-72876014D01*
X125165546Y-72732753D01*
X125094975Y-72600725D01*
X125094974Y-72600723D01*
X125023799Y-72513997D01*
X125000001Y-72484999D01*
X124971004Y-72461202D01*
X123527863Y-71018061D01*
X125965000Y-71018061D01*
X125965000Y-71221939D01*
X126004774Y-71421898D01*
X126082795Y-71610256D01*
X126196063Y-71779774D01*
X126340226Y-71923937D01*
X126509744Y-72037205D01*
X126698102Y-72115226D01*
X126898061Y-72155000D01*
X127101939Y-72155000D01*
X127301898Y-72115226D01*
X127490256Y-72037205D01*
X127659774Y-71923937D01*
X127703711Y-71880000D01*
X137726289Y-71880000D01*
X137770226Y-71923937D01*
X137939744Y-72037205D01*
X138128102Y-72115226D01*
X138328061Y-72155000D01*
X138531939Y-72155000D01*
X138731898Y-72115226D01*
X138920256Y-72037205D01*
X139089774Y-71923937D01*
X139233937Y-71779774D01*
X139347205Y-71610256D01*
X139425226Y-71421898D01*
X139465000Y-71221939D01*
X139465000Y-71018061D01*
X139425226Y-70818102D01*
X139347205Y-70629744D01*
X139233937Y-70460226D01*
X139089774Y-70316063D01*
X139020836Y-70270000D01*
X147101928Y-70270000D01*
X147101928Y-71970000D01*
X147114188Y-72094482D01*
X147150498Y-72214180D01*
X147209463Y-72324494D01*
X147288815Y-72421185D01*
X147385506Y-72500537D01*
X147495820Y-72559502D01*
X147568380Y-72581513D01*
X147436525Y-72713368D01*
X147274010Y-72956589D01*
X147162068Y-73226842D01*
X147105000Y-73513740D01*
X147105000Y-73806260D01*
X147162068Y-74093158D01*
X147274010Y-74363411D01*
X147436525Y-74606632D01*
X147643368Y-74813475D01*
X147825534Y-74935195D01*
X147708645Y-75004822D01*
X147492412Y-75199731D01*
X147318359Y-75433080D01*
X147193175Y-75695901D01*
X147148524Y-75843110D01*
X147269845Y-76073000D01*
X148463000Y-76073000D01*
X148463000Y-76053000D01*
X148717000Y-76053000D01*
X148717000Y-76073000D01*
X149910155Y-76073000D01*
X150031476Y-75843110D01*
X149986825Y-75695901D01*
X149861641Y-75433080D01*
X149687588Y-75199731D01*
X149471355Y-75004822D01*
X149354466Y-74935195D01*
X149536632Y-74813475D01*
X149743475Y-74606632D01*
X149905990Y-74363411D01*
X150017932Y-74093158D01*
X150075000Y-73806260D01*
X150075000Y-73513740D01*
X150017932Y-73226842D01*
X149905990Y-72956589D01*
X149743475Y-72713368D01*
X149611620Y-72581513D01*
X149684180Y-72559502D01*
X149794494Y-72500537D01*
X149891185Y-72421185D01*
X149970537Y-72324494D01*
X150029502Y-72214180D01*
X150065812Y-72094482D01*
X150078072Y-71970000D01*
X150078072Y-70905000D01*
X164881928Y-70905000D01*
X164881928Y-72605000D01*
X164894188Y-72729482D01*
X164930498Y-72849180D01*
X164989463Y-72959494D01*
X165068815Y-73056185D01*
X165165506Y-73135537D01*
X165275820Y-73194502D01*
X165395518Y-73230812D01*
X165520000Y-73243072D01*
X167220000Y-73243072D01*
X167344482Y-73230812D01*
X167464180Y-73194502D01*
X167574494Y-73135537D01*
X167671185Y-73056185D01*
X167750537Y-72959494D01*
X167809502Y-72849180D01*
X167845812Y-72729482D01*
X167858072Y-72605000D01*
X167858072Y-70905000D01*
X167845812Y-70780518D01*
X167809502Y-70660820D01*
X167750537Y-70550506D01*
X167671185Y-70453815D01*
X167574494Y-70374463D01*
X167464180Y-70315498D01*
X167383534Y-70291034D01*
X167467588Y-70215269D01*
X167641641Y-69981920D01*
X167766825Y-69719099D01*
X167811476Y-69571890D01*
X167690155Y-69342000D01*
X166497000Y-69342000D01*
X166497000Y-69362000D01*
X166243000Y-69362000D01*
X166243000Y-69342000D01*
X165049845Y-69342000D01*
X164928524Y-69571890D01*
X164973175Y-69719099D01*
X165098359Y-69981920D01*
X165272412Y-70215269D01*
X165356466Y-70291034D01*
X165275820Y-70315498D01*
X165165506Y-70374463D01*
X165068815Y-70453815D01*
X164989463Y-70550506D01*
X164930498Y-70660820D01*
X164894188Y-70780518D01*
X164881928Y-70905000D01*
X150078072Y-70905000D01*
X150078072Y-70270000D01*
X150065812Y-70145518D01*
X150029502Y-70025820D01*
X149970537Y-69915506D01*
X149891185Y-69818815D01*
X149794494Y-69739463D01*
X149684180Y-69680498D01*
X149564482Y-69644188D01*
X149440000Y-69631928D01*
X147740000Y-69631928D01*
X147615518Y-69644188D01*
X147495820Y-69680498D01*
X147385506Y-69739463D01*
X147288815Y-69818815D01*
X147209463Y-69915506D01*
X147150498Y-70025820D01*
X147114188Y-70145518D01*
X147101928Y-70270000D01*
X139020836Y-70270000D01*
X138920256Y-70202795D01*
X138731898Y-70124774D01*
X138531939Y-70085000D01*
X138328061Y-70085000D01*
X138128102Y-70124774D01*
X137939744Y-70202795D01*
X137770226Y-70316063D01*
X137726289Y-70360000D01*
X127703711Y-70360000D01*
X127659774Y-70316063D01*
X127490256Y-70202795D01*
X127301898Y-70124774D01*
X127101939Y-70085000D01*
X126898061Y-70085000D01*
X126698102Y-70124774D01*
X126509744Y-70202795D01*
X126340226Y-70316063D01*
X126196063Y-70460226D01*
X126082795Y-70629744D01*
X126004774Y-70818102D01*
X125965000Y-71018061D01*
X123527863Y-71018061D01*
X122320000Y-69810199D01*
X122320000Y-69748061D01*
X122280226Y-69548102D01*
X122202205Y-69359744D01*
X122088937Y-69190226D01*
X121944774Y-69046063D01*
X121775256Y-68932795D01*
X121594952Y-68858110D01*
X164928524Y-68858110D01*
X165049845Y-69088000D01*
X166243000Y-69088000D01*
X166243000Y-67894186D01*
X166497000Y-67894186D01*
X166497000Y-69088000D01*
X167690155Y-69088000D01*
X167811476Y-68858110D01*
X167766825Y-68710901D01*
X167641641Y-68448080D01*
X167467588Y-68214731D01*
X167251355Y-68019822D01*
X167001252Y-67870843D01*
X166726891Y-67773519D01*
X166497000Y-67894186D01*
X166243000Y-67894186D01*
X166013109Y-67773519D01*
X165738748Y-67870843D01*
X165488645Y-68019822D01*
X165272412Y-68214731D01*
X165098359Y-68448080D01*
X164973175Y-68710901D01*
X164928524Y-68858110D01*
X121594952Y-68858110D01*
X121586898Y-68854774D01*
X121386939Y-68815000D01*
X121183061Y-68815000D01*
X120983102Y-68854774D01*
X120794744Y-68932795D01*
X120625226Y-69046063D01*
X120481063Y-69190226D01*
X120367795Y-69359744D01*
X120289774Y-69548102D01*
X120250000Y-69748061D01*
X118510000Y-69748061D01*
X118470226Y-69548102D01*
X118392205Y-69359744D01*
X118278937Y-69190226D01*
X118134774Y-69046063D01*
X117965256Y-68932795D01*
X117776898Y-68854774D01*
X117576939Y-68815000D01*
X117373061Y-68815000D01*
X117173102Y-68854774D01*
X116984744Y-68932795D01*
X116815226Y-69046063D01*
X116671063Y-69190226D01*
X116557795Y-69359744D01*
X116479774Y-69548102D01*
X116440000Y-69748061D01*
X100274971Y-69748061D01*
X100264494Y-69739463D01*
X100154180Y-69680498D01*
X100034482Y-69644188D01*
X99910000Y-69631928D01*
X98210000Y-69631928D01*
X98085518Y-69644188D01*
X97965820Y-69680498D01*
X97855506Y-69739463D01*
X97758815Y-69818815D01*
X97679463Y-69915506D01*
X97620498Y-70025820D01*
X97596034Y-70106466D01*
X97520269Y-70022412D01*
X97286920Y-69848359D01*
X97024099Y-69723175D01*
X96876890Y-69678524D01*
X96647000Y-69799845D01*
X96393000Y-69799845D01*
X96163110Y-69678524D01*
X96015901Y-69723175D01*
X95753080Y-69848359D01*
X95519731Y-70022412D01*
X95324822Y-70238645D01*
X95175843Y-70488748D01*
X95078519Y-70763109D01*
X88290000Y-70763109D01*
X88290000Y-63920000D01*
X126146928Y-63920000D01*
X126146928Y-65620000D01*
X126159188Y-65744482D01*
X126195498Y-65864180D01*
X126254463Y-65974494D01*
X126333815Y-66071185D01*
X126430506Y-66150537D01*
X126540820Y-66209502D01*
X126660518Y-66245812D01*
X126785000Y-66258072D01*
X128485000Y-66258072D01*
X128609482Y-66245812D01*
X128729180Y-66209502D01*
X128839494Y-66150537D01*
X128936185Y-66071185D01*
X129015537Y-65974494D01*
X129074502Y-65864180D01*
X129096513Y-65791620D01*
X129228368Y-65923475D01*
X129471589Y-66085990D01*
X129741842Y-66197932D01*
X130028740Y-66255000D01*
X130321260Y-66255000D01*
X130608158Y-66197932D01*
X130878411Y-66085990D01*
X131121632Y-65923475D01*
X131328475Y-65716632D01*
X131445000Y-65542240D01*
X131561525Y-65716632D01*
X131768368Y-65923475D01*
X132011589Y-66085990D01*
X132281842Y-66197932D01*
X132568740Y-66255000D01*
X132861260Y-66255000D01*
X133148158Y-66197932D01*
X133418411Y-66085990D01*
X133661632Y-65923475D01*
X133868475Y-65716632D01*
X133985000Y-65542240D01*
X134101525Y-65716632D01*
X134308368Y-65923475D01*
X134551589Y-66085990D01*
X134821842Y-66197932D01*
X135108740Y-66255000D01*
X135401260Y-66255000D01*
X135688158Y-66197932D01*
X135958411Y-66085990D01*
X136201632Y-65923475D01*
X136408475Y-65716632D01*
X136525000Y-65542240D01*
X136641525Y-65716632D01*
X136848368Y-65923475D01*
X137091589Y-66085990D01*
X137361842Y-66197932D01*
X137648740Y-66255000D01*
X137941260Y-66255000D01*
X138228158Y-66197932D01*
X138498411Y-66085990D01*
X138741632Y-65923475D01*
X138948475Y-65716632D01*
X139065000Y-65542240D01*
X139181525Y-65716632D01*
X139388368Y-65923475D01*
X139631589Y-66085990D01*
X139901842Y-66197932D01*
X140188740Y-66255000D01*
X140481260Y-66255000D01*
X140768158Y-66197932D01*
X141038411Y-66085990D01*
X141281632Y-65923475D01*
X141488475Y-65716632D01*
X141605000Y-65542240D01*
X141721525Y-65716632D01*
X141928368Y-65923475D01*
X142171589Y-66085990D01*
X142441842Y-66197932D01*
X142728740Y-66255000D01*
X143021260Y-66255000D01*
X143308158Y-66197932D01*
X143578411Y-66085990D01*
X143821632Y-65923475D01*
X144028475Y-65716632D01*
X144190990Y-65473411D01*
X144302932Y-65203158D01*
X144360000Y-64916260D01*
X144360000Y-64623740D01*
X144302932Y-64336842D01*
X144190990Y-64066589D01*
X144028475Y-63823368D01*
X143821632Y-63616525D01*
X143578411Y-63454010D01*
X143308158Y-63342068D01*
X143021260Y-63285000D01*
X142728740Y-63285000D01*
X142441842Y-63342068D01*
X142171589Y-63454010D01*
X141928368Y-63616525D01*
X141721525Y-63823368D01*
X141605000Y-63997760D01*
X141488475Y-63823368D01*
X141281632Y-63616525D01*
X141038411Y-63454010D01*
X140768158Y-63342068D01*
X140481260Y-63285000D01*
X140188740Y-63285000D01*
X139901842Y-63342068D01*
X139631589Y-63454010D01*
X139388368Y-63616525D01*
X139181525Y-63823368D01*
X139065000Y-63997760D01*
X138948475Y-63823368D01*
X138741632Y-63616525D01*
X138498411Y-63454010D01*
X138228158Y-63342068D01*
X137941260Y-63285000D01*
X137648740Y-63285000D01*
X137361842Y-63342068D01*
X137091589Y-63454010D01*
X136848368Y-63616525D01*
X136641525Y-63823368D01*
X136525000Y-63997760D01*
X136408475Y-63823368D01*
X136201632Y-63616525D01*
X135958411Y-63454010D01*
X135688158Y-63342068D01*
X135401260Y-63285000D01*
X135108740Y-63285000D01*
X134821842Y-63342068D01*
X134551589Y-63454010D01*
X134308368Y-63616525D01*
X134101525Y-63823368D01*
X133985000Y-63997760D01*
X133868475Y-63823368D01*
X133661632Y-63616525D01*
X133418411Y-63454010D01*
X133148158Y-63342068D01*
X132861260Y-63285000D01*
X132568740Y-63285000D01*
X132281842Y-63342068D01*
X132011589Y-63454010D01*
X131768368Y-63616525D01*
X131561525Y-63823368D01*
X131445000Y-63997760D01*
X131328475Y-63823368D01*
X131121632Y-63616525D01*
X130878411Y-63454010D01*
X130608158Y-63342068D01*
X130321260Y-63285000D01*
X130028740Y-63285000D01*
X129741842Y-63342068D01*
X129471589Y-63454010D01*
X129228368Y-63616525D01*
X129096513Y-63748380D01*
X129074502Y-63675820D01*
X129015537Y-63565506D01*
X128936185Y-63468815D01*
X128839494Y-63389463D01*
X128729180Y-63330498D01*
X128609482Y-63294188D01*
X128485000Y-63281928D01*
X126785000Y-63281928D01*
X126660518Y-63294188D01*
X126540820Y-63330498D01*
X126430506Y-63389463D01*
X126333815Y-63468815D01*
X126254463Y-63565506D01*
X126195498Y-63675820D01*
X126159188Y-63795518D01*
X126146928Y-63920000D01*
X88290000Y-63920000D01*
X88290000Y-58278665D01*
X104610000Y-58278665D01*
X104610000Y-58561335D01*
X104665147Y-58838574D01*
X104773320Y-59099727D01*
X104930363Y-59334759D01*
X105130241Y-59534637D01*
X105365273Y-59691680D01*
X105626426Y-59799853D01*
X105903665Y-59855000D01*
X106186335Y-59855000D01*
X106463574Y-59799853D01*
X106724727Y-59691680D01*
X106959759Y-59534637D01*
X107159637Y-59334759D01*
X107316680Y-59099727D01*
X107424853Y-58838574D01*
X107480000Y-58561335D01*
X107480000Y-58278665D01*
X107424853Y-58001426D01*
X107316680Y-57740273D01*
X107159637Y-57505241D01*
X106959759Y-57305363D01*
X106724727Y-57148320D01*
X106463574Y-57040147D01*
X106186335Y-56985000D01*
X105903665Y-56985000D01*
X105626426Y-57040147D01*
X105365273Y-57148320D01*
X105130241Y-57305363D01*
X104930363Y-57505241D01*
X104773320Y-57740273D01*
X104665147Y-58001426D01*
X104610000Y-58278665D01*
X88290000Y-58278665D01*
X88290000Y-50658665D01*
X104610000Y-50658665D01*
X104610000Y-50941335D01*
X104665147Y-51218574D01*
X104773320Y-51479727D01*
X104930363Y-51714759D01*
X105130241Y-51914637D01*
X105365273Y-52071680D01*
X105626426Y-52179853D01*
X105903665Y-52235000D01*
X106186335Y-52235000D01*
X106463574Y-52179853D01*
X106724727Y-52071680D01*
X106959759Y-51914637D01*
X107159637Y-51714759D01*
X107316680Y-51479727D01*
X107424853Y-51218574D01*
X107480000Y-50941335D01*
X107480000Y-50658665D01*
X107424853Y-50381426D01*
X107316680Y-50120273D01*
X107159637Y-49885241D01*
X106959759Y-49685363D01*
X106724727Y-49528320D01*
X106463574Y-49420147D01*
X106186335Y-49365000D01*
X105903665Y-49365000D01*
X105626426Y-49420147D01*
X105365273Y-49528320D01*
X105130241Y-49685363D01*
X104930363Y-49885241D01*
X104773320Y-50120273D01*
X104665147Y-50381426D01*
X104610000Y-50658665D01*
X88290000Y-50658665D01*
X88290000Y-44308665D01*
X91275000Y-44308665D01*
X91275000Y-44591335D01*
X91330147Y-44868574D01*
X91438320Y-45129727D01*
X91595363Y-45364759D01*
X91795241Y-45564637D01*
X92030273Y-45721680D01*
X92291426Y-45829853D01*
X92568665Y-45885000D01*
X92851335Y-45885000D01*
X93128574Y-45829853D01*
X93389727Y-45721680D01*
X93624759Y-45564637D01*
X93824637Y-45364759D01*
X93981680Y-45129727D01*
X94089853Y-44868574D01*
X94145000Y-44591335D01*
X94145000Y-44318662D01*
X97091500Y-44318662D01*
X97091500Y-44581338D01*
X97142746Y-44838968D01*
X97243268Y-45081649D01*
X97389203Y-45300057D01*
X97574943Y-45485797D01*
X97793351Y-45631732D01*
X98036032Y-45732254D01*
X98293662Y-45783500D01*
X98556338Y-45783500D01*
X98813968Y-45732254D01*
X99056649Y-45631732D01*
X99275057Y-45485797D01*
X99460797Y-45300057D01*
X99606732Y-45081649D01*
X99707254Y-44838968D01*
X99758500Y-44581338D01*
X99758500Y-44318662D01*
X104711500Y-44318662D01*
X104711500Y-44581338D01*
X104762746Y-44838968D01*
X104863268Y-45081649D01*
X105009203Y-45300057D01*
X105194943Y-45485797D01*
X105413351Y-45631732D01*
X105656032Y-45732254D01*
X105913662Y-45783500D01*
X106176338Y-45783500D01*
X106433968Y-45732254D01*
X106676649Y-45631732D01*
X106895057Y-45485797D01*
X107080797Y-45300057D01*
X107226732Y-45081649D01*
X107327254Y-44838968D01*
X107378500Y-44581338D01*
X107378500Y-44318662D01*
X107327254Y-44061032D01*
X107226732Y-43818351D01*
X107080797Y-43599943D01*
X106895057Y-43414203D01*
X106676649Y-43268268D01*
X106433968Y-43167746D01*
X106176338Y-43116500D01*
X105913662Y-43116500D01*
X105656032Y-43167746D01*
X105413351Y-43268268D01*
X105194943Y-43414203D01*
X105009203Y-43599943D01*
X104863268Y-43818351D01*
X104762746Y-44061032D01*
X104711500Y-44318662D01*
X99758500Y-44318662D01*
X99707254Y-44061032D01*
X99606732Y-43818351D01*
X99460797Y-43599943D01*
X99275057Y-43414203D01*
X99056649Y-43268268D01*
X98813968Y-43167746D01*
X98556338Y-43116500D01*
X98293662Y-43116500D01*
X98036032Y-43167746D01*
X97793351Y-43268268D01*
X97574943Y-43414203D01*
X97389203Y-43599943D01*
X97243268Y-43818351D01*
X97142746Y-44061032D01*
X97091500Y-44318662D01*
X94145000Y-44318662D01*
X94145000Y-44308665D01*
X94089853Y-44031426D01*
X93981680Y-43770273D01*
X93824637Y-43535241D01*
X93624759Y-43335363D01*
X93389727Y-43178320D01*
X93128574Y-43070147D01*
X92851335Y-43015000D01*
X92568665Y-43015000D01*
X92291426Y-43070147D01*
X92030273Y-43178320D01*
X91795241Y-43335363D01*
X91595363Y-43535241D01*
X91438320Y-43770273D01*
X91330147Y-44031426D01*
X91275000Y-44308665D01*
X88290000Y-44308665D01*
X88290000Y-40290197D01*
X97684408Y-40290197D01*
X97743686Y-40523812D01*
X97981875Y-40634559D01*
X98237093Y-40696711D01*
X98499533Y-40707876D01*
X98759107Y-40667629D01*
X99005842Y-40577514D01*
X99106314Y-40523812D01*
X99165592Y-40290197D01*
X105304408Y-40290197D01*
X105363686Y-40523812D01*
X105601875Y-40634559D01*
X105857093Y-40696711D01*
X106119533Y-40707876D01*
X106379107Y-40667629D01*
X106625842Y-40577514D01*
X106726314Y-40523812D01*
X106785592Y-40290197D01*
X106045000Y-39549605D01*
X105304408Y-40290197D01*
X99165592Y-40290197D01*
X98425000Y-39549605D01*
X97684408Y-40290197D01*
X88290000Y-40290197D01*
X88290000Y-39444533D01*
X97087124Y-39444533D01*
X97127371Y-39704107D01*
X97217486Y-39950842D01*
X97271188Y-40051314D01*
X97504803Y-40110592D01*
X98245395Y-39370000D01*
X98604605Y-39370000D01*
X99345197Y-40110592D01*
X99578812Y-40051314D01*
X99689559Y-39813125D01*
X99751711Y-39557907D01*
X99756534Y-39444533D01*
X104707124Y-39444533D01*
X104747371Y-39704107D01*
X104837486Y-39950842D01*
X104891188Y-40051314D01*
X105124803Y-40110592D01*
X105865395Y-39370000D01*
X106224605Y-39370000D01*
X106965197Y-40110592D01*
X107198812Y-40051314D01*
X107309559Y-39813125D01*
X107371711Y-39557907D01*
X107382876Y-39295467D01*
X107342629Y-39035893D01*
X107252514Y-38789158D01*
X107198812Y-38688686D01*
X106965197Y-38629408D01*
X106224605Y-39370000D01*
X105865395Y-39370000D01*
X105124803Y-38629408D01*
X104891188Y-38688686D01*
X104780441Y-38926875D01*
X104718289Y-39182093D01*
X104707124Y-39444533D01*
X99756534Y-39444533D01*
X99762876Y-39295467D01*
X99722629Y-39035893D01*
X99632514Y-38789158D01*
X99578812Y-38688686D01*
X99345197Y-38629408D01*
X98604605Y-39370000D01*
X98245395Y-39370000D01*
X97504803Y-38629408D01*
X97271188Y-38688686D01*
X97160441Y-38926875D01*
X97098289Y-39182093D01*
X97087124Y-39444533D01*
X88290000Y-39444533D01*
X88290000Y-38449803D01*
X97684408Y-38449803D01*
X98425000Y-39190395D01*
X99165592Y-38449803D01*
X105304408Y-38449803D01*
X106045000Y-39190395D01*
X106785592Y-38449803D01*
X106726314Y-38216188D01*
X106488125Y-38105441D01*
X106232907Y-38043289D01*
X105970467Y-38032124D01*
X105710893Y-38072371D01*
X105464158Y-38162486D01*
X105363686Y-38216188D01*
X105304408Y-38449803D01*
X99165592Y-38449803D01*
X99106314Y-38216188D01*
X98868125Y-38105441D01*
X98612907Y-38043289D01*
X98350467Y-38032124D01*
X98090893Y-38072371D01*
X97844158Y-38162486D01*
X97743686Y-38216188D01*
X97684408Y-38449803D01*
X88290000Y-38449803D01*
X88290000Y-37299040D01*
X91318091Y-37299040D01*
X91412930Y-37563881D01*
X91557615Y-37805131D01*
X91746586Y-38013519D01*
X91972580Y-38181037D01*
X92226913Y-38301246D01*
X92360961Y-38341904D01*
X92583000Y-38219915D01*
X92583000Y-37077000D01*
X92837000Y-37077000D01*
X92837000Y-38219915D01*
X93059039Y-38341904D01*
X93193087Y-38301246D01*
X93447420Y-38181037D01*
X93673414Y-38013519D01*
X93862385Y-37805131D01*
X94007070Y-37563881D01*
X94101909Y-37299040D01*
X93980624Y-37077000D01*
X92837000Y-37077000D01*
X92583000Y-37077000D01*
X91439376Y-37077000D01*
X91318091Y-37299040D01*
X88290000Y-37299040D01*
X88290000Y-36600960D01*
X91318091Y-36600960D01*
X91439376Y-36823000D01*
X92583000Y-36823000D01*
X92583000Y-35680085D01*
X92837000Y-35680085D01*
X92837000Y-36823000D01*
X93980624Y-36823000D01*
X94101909Y-36600960D01*
X94007070Y-36336119D01*
X93862385Y-36094869D01*
X93673414Y-35886481D01*
X93447420Y-35718963D01*
X93193087Y-35598754D01*
X93059039Y-35558096D01*
X92837000Y-35680085D01*
X92583000Y-35680085D01*
X92360961Y-35558096D01*
X92226913Y-35598754D01*
X91972580Y-35718963D01*
X91746586Y-35886481D01*
X91557615Y-36094869D01*
X91412930Y-36336119D01*
X91318091Y-36600960D01*
X88290000Y-36600960D01*
X88290000Y-33045000D01*
X186665000Y-33045000D01*
X186665001Y-130785000D01*
G37*
X186665001Y-130785000D02*
X88290000Y-130785000D01*
X88290000Y-121153662D01*
X94551500Y-121153662D01*
X94551500Y-121416338D01*
X94602746Y-121673968D01*
X94703268Y-121916649D01*
X94849203Y-122135057D01*
X95034943Y-122320797D01*
X95253351Y-122466732D01*
X95496032Y-122567254D01*
X95753662Y-122618500D01*
X96016338Y-122618500D01*
X96273968Y-122567254D01*
X96516649Y-122466732D01*
X96735057Y-122320797D01*
X96920797Y-122135057D01*
X97066732Y-121916649D01*
X97167254Y-121673968D01*
X97218500Y-121416338D01*
X97218500Y-121153662D01*
X102171500Y-121153662D01*
X102171500Y-121416338D01*
X102222746Y-121673968D01*
X102323268Y-121916649D01*
X102469203Y-122135057D01*
X102654943Y-122320797D01*
X102873351Y-122466732D01*
X103116032Y-122567254D01*
X103373662Y-122618500D01*
X103636338Y-122618500D01*
X103893968Y-122567254D01*
X104136649Y-122466732D01*
X104355057Y-122320797D01*
X104540797Y-122135057D01*
X104686732Y-121916649D01*
X104739746Y-121788662D01*
X169481500Y-121788662D01*
X169481500Y-122051338D01*
X169532746Y-122308968D01*
X169633268Y-122551649D01*
X169779203Y-122770057D01*
X169964943Y-122955797D01*
X170183351Y-123101732D01*
X170426032Y-123202254D01*
X170683662Y-123253500D01*
X170946338Y-123253500D01*
X171203968Y-123202254D01*
X171446649Y-123101732D01*
X171665057Y-122955797D01*
X171850797Y-122770057D01*
X171996732Y-122551649D01*
X172097254Y-122308968D01*
X172148500Y-122051338D01*
X172148500Y-121788662D01*
X177101500Y-121788662D01*
X177101500Y-122051338D01*
X177152746Y-122308968D01*
X177253268Y-122551649D01*
X177399203Y-122770057D01*
X177584943Y-122955797D01*
X177803351Y-123101732D01*
X178046032Y-123202254D01*
X178303662Y-123253500D01*
X178566338Y-123253500D01*
X178823968Y-123202254D01*
X179066649Y-123101732D01*
X179285057Y-122955797D01*
X179470797Y-122770057D01*
X179616732Y-122551649D01*
X179717254Y-122308968D01*
X179768500Y-122051338D01*
X179768500Y-121788662D01*
X179717254Y-121531032D01*
X179616732Y-121288351D01*
X179470797Y-121069943D01*
X179285057Y-120884203D01*
X179066649Y-120738268D01*
X178823968Y-120637746D01*
X178566338Y-120586500D01*
X178303662Y-120586500D01*
X178046032Y-120637746D01*
X177803351Y-120738268D01*
X177584943Y-120884203D01*
X177399203Y-121069943D01*
X177253268Y-121288351D01*
X177152746Y-121531032D01*
X177101500Y-121788662D01*
X172148500Y-121788662D01*
X172097254Y-121531032D01*
X171996732Y-121288351D01*
X171850797Y-121069943D01*
X171665057Y-120884203D01*
X171446649Y-120738268D01*
X171203968Y-120637746D01*
X170946338Y-120586500D01*
X170683662Y-120586500D01*
X170426032Y-120637746D01*
X170183351Y-120738268D01*
X169964943Y-120884203D01*
X169779203Y-121069943D01*
X169633268Y-121288351D01*
X169532746Y-121531032D01*
X169481500Y-121788662D01*
X104739746Y-121788662D01*
X104787254Y-121673968D01*
X104838500Y-121416338D01*
X104838500Y-121153662D01*
X104787254Y-120896032D01*
X104686732Y-120653351D01*
X104540797Y-120434943D01*
X104355057Y-120249203D01*
X104136649Y-120103268D01*
X103893968Y-120002746D01*
X103636338Y-119951500D01*
X103373662Y-119951500D01*
X103116032Y-120002746D01*
X102873351Y-120103268D01*
X102654943Y-120249203D01*
X102469203Y-120434943D01*
X102323268Y-120653351D01*
X102222746Y-120896032D01*
X102171500Y-121153662D01*
X97218500Y-121153662D01*
X97167254Y-120896032D01*
X97066732Y-120653351D01*
X96920797Y-120434943D01*
X96735057Y-120249203D01*
X96516649Y-120103268D01*
X96273968Y-120002746D01*
X96016338Y-119951500D01*
X95753662Y-119951500D01*
X95496032Y-120002746D01*
X95253351Y-120103268D01*
X95034943Y-120249203D01*
X94849203Y-120434943D01*
X94703268Y-120653351D01*
X94602746Y-120896032D01*
X94551500Y-121153662D01*
X88290000Y-121153662D01*
X88290000Y-117760197D01*
X170074408Y-117760197D01*
X170133686Y-117993812D01*
X170371875Y-118104559D01*
X170627093Y-118166711D01*
X170889533Y-118177876D01*
X171149107Y-118137629D01*
X171395842Y-118047514D01*
X171496314Y-117993812D01*
X171555592Y-117760197D01*
X177694408Y-117760197D01*
X177753686Y-117993812D01*
X177991875Y-118104559D01*
X178247093Y-118166711D01*
X178509533Y-118177876D01*
X178769107Y-118137629D01*
X179015842Y-118047514D01*
X179116314Y-117993812D01*
X179175592Y-117760197D01*
X178435000Y-117019605D01*
X177694408Y-117760197D01*
X171555592Y-117760197D01*
X170815000Y-117019605D01*
X170074408Y-117760197D01*
X88290000Y-117760197D01*
X88290000Y-117125197D01*
X95144408Y-117125197D01*
X95203686Y-117358812D01*
X95441875Y-117469559D01*
X95697093Y-117531711D01*
X95959533Y-117542876D01*
X96219107Y-117502629D01*
X96465842Y-117412514D01*
X96566314Y-117358812D01*
X96625592Y-117125197D01*
X102764408Y-117125197D01*
X102823686Y-117358812D01*
X103061875Y-117469559D01*
X103317093Y-117531711D01*
X103579533Y-117542876D01*
X103839107Y-117502629D01*
X104085842Y-117412514D01*
X104186314Y-117358812D01*
X104245592Y-117125197D01*
X103505000Y-116384605D01*
X102764408Y-117125197D01*
X96625592Y-117125197D01*
X95885000Y-116384605D01*
X95144408Y-117125197D01*
X88290000Y-117125197D01*
X88290000Y-116279533D01*
X94547124Y-116279533D01*
X94587371Y-116539107D01*
X94677486Y-116785842D01*
X94731188Y-116886314D01*
X94964803Y-116945592D01*
X95705395Y-116205000D01*
X96064605Y-116205000D01*
X96805197Y-116945592D01*
X97038812Y-116886314D01*
X97149559Y-116648125D01*
X97211711Y-116392907D01*
X97216534Y-116279533D01*
X102167124Y-116279533D01*
X102207371Y-116539107D01*
X102297486Y-116785842D01*
X102351188Y-116886314D01*
X102584803Y-116945592D01*
X103325395Y-116205000D01*
X103684605Y-116205000D01*
X104425197Y-116945592D01*
X104547600Y-116914533D01*
X169477124Y-116914533D01*
X169517371Y-117174107D01*
X169607486Y-117420842D01*
X169661188Y-117521314D01*
X169894803Y-117580592D01*
X170635395Y-116840000D01*
X170994605Y-116840000D01*
X171735197Y-117580592D01*
X171968812Y-117521314D01*
X172079559Y-117283125D01*
X172141711Y-117027907D01*
X172146534Y-116914533D01*
X177097124Y-116914533D01*
X177137371Y-117174107D01*
X177227486Y-117420842D01*
X177281188Y-117521314D01*
X177514803Y-117580592D01*
X178255395Y-116840000D01*
X178614605Y-116840000D01*
X179355197Y-117580592D01*
X179588812Y-117521314D01*
X179699559Y-117283125D01*
X179761711Y-117027907D01*
X179772876Y-116765467D01*
X179732629Y-116505893D01*
X179642514Y-116259158D01*
X179588812Y-116158686D01*
X179355197Y-116099408D01*
X178614605Y-116840000D01*
X178255395Y-116840000D01*
X177514803Y-116099408D01*
X177281188Y-116158686D01*
X177170441Y-116396875D01*
X177108289Y-116652093D01*
X177097124Y-116914533D01*
X172146534Y-116914533D01*
X172152876Y-116765467D01*
X172112629Y-116505893D01*
X172022514Y-116259158D01*
X171968812Y-116158686D01*
X171735197Y-116099408D01*
X170994605Y-116840000D01*
X170635395Y-116840000D01*
X169894803Y-116099408D01*
X169661188Y-116158686D01*
X169550441Y-116396875D01*
X169488289Y-116652093D01*
X169477124Y-116914533D01*
X104547600Y-116914533D01*
X104658812Y-116886314D01*
X104769559Y-116648125D01*
X104831711Y-116392907D01*
X104842876Y-116130467D01*
X104810213Y-115919803D01*
X170074408Y-115919803D01*
X170815000Y-116660395D01*
X171555592Y-115919803D01*
X177694408Y-115919803D01*
X178435000Y-116660395D01*
X179175592Y-115919803D01*
X179116314Y-115686188D01*
X178878125Y-115575441D01*
X178622907Y-115513289D01*
X178360467Y-115502124D01*
X178100893Y-115542371D01*
X177854158Y-115632486D01*
X177753686Y-115686188D01*
X177694408Y-115919803D01*
X171555592Y-115919803D01*
X171496314Y-115686188D01*
X171258125Y-115575441D01*
X171002907Y-115513289D01*
X170740467Y-115502124D01*
X170480893Y-115542371D01*
X170234158Y-115632486D01*
X170133686Y-115686188D01*
X170074408Y-115919803D01*
X104810213Y-115919803D01*
X104802629Y-115870893D01*
X104712514Y-115624158D01*
X104658812Y-115523686D01*
X104425197Y-115464408D01*
X103684605Y-116205000D01*
X103325395Y-116205000D01*
X102584803Y-115464408D01*
X102351188Y-115523686D01*
X102240441Y-115761875D01*
X102178289Y-116017093D01*
X102167124Y-116279533D01*
X97216534Y-116279533D01*
X97222876Y-116130467D01*
X97182629Y-115870893D01*
X97092514Y-115624158D01*
X97038812Y-115523686D01*
X96805197Y-115464408D01*
X96064605Y-116205000D01*
X95705395Y-116205000D01*
X94964803Y-115464408D01*
X94731188Y-115523686D01*
X94620441Y-115761875D01*
X94558289Y-116017093D01*
X94547124Y-116279533D01*
X88290000Y-116279533D01*
X88290000Y-115284803D01*
X95144408Y-115284803D01*
X95885000Y-116025395D01*
X96625592Y-115284803D01*
X102764408Y-115284803D01*
X103505000Y-116025395D01*
X104245592Y-115284803D01*
X104186314Y-115051188D01*
X103948125Y-114940441D01*
X103692907Y-114878289D01*
X103430467Y-114867124D01*
X103170893Y-114907371D01*
X102924158Y-114997486D01*
X102823686Y-115051188D01*
X102764408Y-115284803D01*
X96625592Y-115284803D01*
X96566314Y-115051188D01*
X96328125Y-114940441D01*
X96072907Y-114878289D01*
X95810467Y-114867124D01*
X95550893Y-114907371D01*
X95304158Y-114997486D01*
X95203686Y-115051188D01*
X95144408Y-115284803D01*
X88290000Y-115284803D01*
X88290000Y-107735000D01*
X131226928Y-107735000D01*
X131226928Y-109435000D01*
X131239188Y-109559482D01*
X131275498Y-109679180D01*
X131334463Y-109789494D01*
X131413815Y-109886185D01*
X131510506Y-109965537D01*
X131620820Y-110024502D01*
X131740518Y-110060812D01*
X131865000Y-110073072D01*
X133565000Y-110073072D01*
X133689482Y-110060812D01*
X133809180Y-110024502D01*
X133919494Y-109965537D01*
X134016185Y-109886185D01*
X134095537Y-109789494D01*
X134154502Y-109679180D01*
X134176513Y-109606620D01*
X134308368Y-109738475D01*
X134551589Y-109900990D01*
X134821842Y-110012932D01*
X135108740Y-110070000D01*
X135401260Y-110070000D01*
X135688158Y-110012932D01*
X135958411Y-109900990D01*
X136201632Y-109738475D01*
X136408475Y-109531632D01*
X136525000Y-109357240D01*
X136641525Y-109531632D01*
X136848368Y-109738475D01*
X137091589Y-109900990D01*
X137361842Y-110012932D01*
X137648740Y-110070000D01*
X137941260Y-110070000D01*
X138228158Y-110012932D01*
X138498411Y-109900990D01*
X138741632Y-109738475D01*
X138948475Y-109531632D01*
X139065000Y-109357240D01*
X139181525Y-109531632D01*
X139388368Y-109738475D01*
X139631589Y-109900990D01*
X139901842Y-110012932D01*
X140188740Y-110070000D01*
X140481260Y-110070000D01*
X140768158Y-110012932D01*
X141038411Y-109900990D01*
X141281632Y-109738475D01*
X141488475Y-109531632D01*
X141605000Y-109357240D01*
X141721525Y-109531632D01*
X141928368Y-109738475D01*
X142171589Y-109900990D01*
X142441842Y-110012932D01*
X142728740Y-110070000D01*
X143021260Y-110070000D01*
X143308158Y-110012932D01*
X143578411Y-109900990D01*
X143821632Y-109738475D01*
X144028475Y-109531632D01*
X144190990Y-109288411D01*
X144302932Y-109018158D01*
X144360000Y-108731260D01*
X144360000Y-108438740D01*
X144302932Y-108151842D01*
X144190990Y-107881589D01*
X144028475Y-107638368D01*
X143821632Y-107431525D01*
X143578411Y-107269010D01*
X143308158Y-107157068D01*
X143021260Y-107100000D01*
X142728740Y-107100000D01*
X142441842Y-107157068D01*
X142171589Y-107269010D01*
X141928368Y-107431525D01*
X141721525Y-107638368D01*
X141605000Y-107812760D01*
X141488475Y-107638368D01*
X141281632Y-107431525D01*
X141038411Y-107269010D01*
X140768158Y-107157068D01*
X140481260Y-107100000D01*
X140188740Y-107100000D01*
X139901842Y-107157068D01*
X139631589Y-107269010D01*
X139388368Y-107431525D01*
X139181525Y-107638368D01*
X139065000Y-107812760D01*
X138948475Y-107638368D01*
X138741632Y-107431525D01*
X138498411Y-107269010D01*
X138228158Y-107157068D01*
X137941260Y-107100000D01*
X137648740Y-107100000D01*
X137361842Y-107157068D01*
X137091589Y-107269010D01*
X136848368Y-107431525D01*
X136641525Y-107638368D01*
X136525000Y-107812760D01*
X136408475Y-107638368D01*
X136201632Y-107431525D01*
X135958411Y-107269010D01*
X135688158Y-107157068D01*
X135401260Y-107100000D01*
X135108740Y-107100000D01*
X134821842Y-107157068D01*
X134551589Y-107269010D01*
X134308368Y-107431525D01*
X134176513Y-107563380D01*
X134154502Y-107490820D01*
X134095537Y-107380506D01*
X134016185Y-107283815D01*
X133919494Y-107204463D01*
X133809180Y-107145498D01*
X133689482Y-107109188D01*
X133565000Y-107096928D01*
X131865000Y-107096928D01*
X131740518Y-107109188D01*
X131620820Y-107145498D01*
X131510506Y-107204463D01*
X131413815Y-107283815D01*
X131334463Y-107380506D01*
X131275498Y-107490820D01*
X131239188Y-107610518D01*
X131226928Y-107735000D01*
X88290000Y-107735000D01*
X88290000Y-95035000D01*
X115986928Y-95035000D01*
X115986928Y-96735000D01*
X115999188Y-96859482D01*
X116035498Y-96979180D01*
X116094463Y-97089494D01*
X116173815Y-97186185D01*
X116270506Y-97265537D01*
X116380820Y-97324502D01*
X116453380Y-97346513D01*
X116321525Y-97478368D01*
X116159010Y-97721589D01*
X116047068Y-97991842D01*
X115990000Y-98278740D01*
X115990000Y-98571260D01*
X116047068Y-98858158D01*
X116159010Y-99128411D01*
X116321525Y-99371632D01*
X116528368Y-99578475D01*
X116702760Y-99695000D01*
X116528368Y-99811525D01*
X116321525Y-100018368D01*
X116159010Y-100261589D01*
X116047068Y-100531842D01*
X115990000Y-100818740D01*
X115990000Y-101111260D01*
X116047068Y-101398158D01*
X116159010Y-101668411D01*
X116321525Y-101911632D01*
X116528368Y-102118475D01*
X116702760Y-102235000D01*
X116528368Y-102351525D01*
X116321525Y-102558368D01*
X116159010Y-102801589D01*
X116047068Y-103071842D01*
X115990000Y-103358740D01*
X115990000Y-103651260D01*
X116047068Y-103938158D01*
X116159010Y-104208411D01*
X116321525Y-104451632D01*
X116528368Y-104658475D01*
X116702760Y-104775000D01*
X116528368Y-104891525D01*
X116321525Y-105098368D01*
X116159010Y-105341589D01*
X116047068Y-105611842D01*
X115990000Y-105898740D01*
X115990000Y-106191260D01*
X116047068Y-106478158D01*
X116159010Y-106748411D01*
X116321525Y-106991632D01*
X116528368Y-107198475D01*
X116771589Y-107360990D01*
X117041842Y-107472932D01*
X117328740Y-107530000D01*
X117621260Y-107530000D01*
X117908158Y-107472932D01*
X118178411Y-107360990D01*
X118421632Y-107198475D01*
X118628475Y-106991632D01*
X118790990Y-106748411D01*
X118902932Y-106478158D01*
X118960000Y-106191260D01*
X118960000Y-105898740D01*
X118902932Y-105611842D01*
X118790990Y-105341589D01*
X118628475Y-105098368D01*
X118421632Y-104891525D01*
X118247240Y-104775000D01*
X118421632Y-104658475D01*
X118628475Y-104451632D01*
X118790990Y-104208411D01*
X118902932Y-103938158D01*
X118960000Y-103651260D01*
X118960000Y-103358740D01*
X118902932Y-103071842D01*
X118790990Y-102801589D01*
X118628475Y-102558368D01*
X118421632Y-102351525D01*
X118247240Y-102235000D01*
X118421632Y-102118475D01*
X118628475Y-101911632D01*
X118790990Y-101668411D01*
X118902932Y-101398158D01*
X118960000Y-101111260D01*
X118960000Y-100818740D01*
X118902932Y-100531842D01*
X118790990Y-100261589D01*
X118628475Y-100018368D01*
X118421632Y-99811525D01*
X118247240Y-99695000D01*
X118421632Y-99578475D01*
X118628475Y-99371632D01*
X118790990Y-99128411D01*
X118902932Y-98858158D01*
X118925897Y-98742702D01*
X145871903Y-98742702D01*
X145943486Y-98986671D01*
X146198996Y-99107571D01*
X146473184Y-99176300D01*
X146755512Y-99190217D01*
X147035130Y-99148787D01*
X147301292Y-99053603D01*
X147426514Y-98986671D01*
X147498097Y-98742702D01*
X146685000Y-97929605D01*
X145871903Y-98742702D01*
X118925897Y-98742702D01*
X118960000Y-98571260D01*
X118960000Y-98278740D01*
X118902932Y-97991842D01*
X118831966Y-97820512D01*
X145244783Y-97820512D01*
X145286213Y-98100130D01*
X145381397Y-98366292D01*
X145448329Y-98491514D01*
X145692298Y-98563097D01*
X146505395Y-97750000D01*
X146864605Y-97750000D01*
X147677702Y-98563097D01*
X147921671Y-98491514D01*
X148042571Y-98236004D01*
X148111300Y-97961816D01*
X148125217Y-97679488D01*
X148083787Y-97399870D01*
X147988603Y-97133708D01*
X147921671Y-97008486D01*
X147677702Y-96936903D01*
X146864605Y-97750000D01*
X146505395Y-97750000D01*
X145692298Y-96936903D01*
X145448329Y-97008486D01*
X145327429Y-97263996D01*
X145258700Y-97538184D01*
X145244783Y-97820512D01*
X118831966Y-97820512D01*
X118790990Y-97721589D01*
X118628475Y-97478368D01*
X118496620Y-97346513D01*
X118569180Y-97324502D01*
X118679494Y-97265537D01*
X118776185Y-97186185D01*
X118855537Y-97089494D01*
X118914502Y-96979180D01*
X118950812Y-96859482D01*
X118963072Y-96735000D01*
X118963072Y-95108665D01*
X145250000Y-95108665D01*
X145250000Y-95391335D01*
X145305147Y-95668574D01*
X145413320Y-95929727D01*
X145570363Y-96164759D01*
X145770241Y-96364637D01*
X145970869Y-96498692D01*
X145943486Y-96513329D01*
X145871903Y-96757298D01*
X146685000Y-97570395D01*
X147498097Y-96757298D01*
X147426514Y-96513329D01*
X147397659Y-96499676D01*
X147599759Y-96364637D01*
X147799637Y-96164759D01*
X147956680Y-95929727D01*
X148064853Y-95668574D01*
X148120000Y-95391335D01*
X148120000Y-95108665D01*
X148064853Y-94831426D01*
X147956680Y-94570273D01*
X147799637Y-94335241D01*
X147599759Y-94135363D01*
X147364727Y-93978320D01*
X147103574Y-93870147D01*
X146826335Y-93815000D01*
X146543665Y-93815000D01*
X146266426Y-93870147D01*
X146005273Y-93978320D01*
X145770241Y-94135363D01*
X145570363Y-94335241D01*
X145413320Y-94570273D01*
X145305147Y-94831426D01*
X145250000Y-95108665D01*
X118963072Y-95108665D01*
X118963072Y-95035000D01*
X118950812Y-94910518D01*
X118914502Y-94790820D01*
X118855537Y-94680506D01*
X118776185Y-94583815D01*
X118679494Y-94504463D01*
X118569180Y-94445498D01*
X118449482Y-94409188D01*
X118325000Y-94396928D01*
X116625000Y-94396928D01*
X116500518Y-94409188D01*
X116380820Y-94445498D01*
X116270506Y-94504463D01*
X116173815Y-94583815D01*
X116094463Y-94680506D01*
X116035498Y-94790820D01*
X115999188Y-94910518D01*
X115986928Y-95035000D01*
X88290000Y-95035000D01*
X88290000Y-90385000D01*
X97571928Y-90385000D01*
X97584188Y-90509482D01*
X97620498Y-90629180D01*
X97679463Y-90739494D01*
X97758815Y-90836185D01*
X97855506Y-90915537D01*
X97965820Y-90974502D01*
X98085518Y-91010812D01*
X98210000Y-91023072D01*
X98774250Y-91020000D01*
X98933000Y-90861250D01*
X98933000Y-89662000D01*
X99187000Y-89662000D01*
X99187000Y-90861250D01*
X99345750Y-91020000D01*
X99910000Y-91023072D01*
X100034482Y-91010812D01*
X100154180Y-90974502D01*
X100264494Y-90915537D01*
X100361185Y-90836185D01*
X100440537Y-90739494D01*
X100499502Y-90629180D01*
X100535812Y-90509482D01*
X100548072Y-90385000D01*
X100545000Y-89820750D01*
X100386250Y-89662000D01*
X99187000Y-89662000D01*
X98933000Y-89662000D01*
X97733750Y-89662000D01*
X97575000Y-89820750D01*
X97571928Y-90385000D01*
X88290000Y-90385000D01*
X88290000Y-88685000D01*
X97571928Y-88685000D01*
X97575000Y-89249250D01*
X97733750Y-89408000D01*
X98933000Y-89408000D01*
X98933000Y-89388000D01*
X99187000Y-89388000D01*
X99187000Y-89408000D01*
X100386250Y-89408000D01*
X100474250Y-89320000D01*
X178851928Y-89320000D01*
X178851928Y-91020000D01*
X178864188Y-91144482D01*
X178900498Y-91264180D01*
X178959463Y-91374494D01*
X179038815Y-91471185D01*
X179135506Y-91550537D01*
X179245820Y-91609502D01*
X179318380Y-91631513D01*
X179186525Y-91763368D01*
X179024010Y-92006589D01*
X178912068Y-92276842D01*
X178855000Y-92563740D01*
X178855000Y-92856260D01*
X178912068Y-93143158D01*
X179024010Y-93413411D01*
X179186525Y-93656632D01*
X179393368Y-93863475D01*
X179636589Y-94025990D01*
X179906842Y-94137932D01*
X180193740Y-94195000D01*
X180486260Y-94195000D01*
X180773158Y-94137932D01*
X181043411Y-94025990D01*
X181286632Y-93863475D01*
X181493475Y-93656632D01*
X181655990Y-93413411D01*
X181767932Y-93143158D01*
X181825000Y-92856260D01*
X181825000Y-92563740D01*
X181767932Y-92276842D01*
X181655990Y-92006589D01*
X181493475Y-91763368D01*
X181361620Y-91631513D01*
X181434180Y-91609502D01*
X181544494Y-91550537D01*
X181641185Y-91471185D01*
X181720537Y-91374494D01*
X181779502Y-91264180D01*
X181815812Y-91144482D01*
X181828072Y-91020000D01*
X181828072Y-89320000D01*
X181815812Y-89195518D01*
X181779502Y-89075820D01*
X181720537Y-88965506D01*
X181641185Y-88868815D01*
X181544494Y-88789463D01*
X181434180Y-88730498D01*
X181314482Y-88694188D01*
X181190000Y-88681928D01*
X179490000Y-88681928D01*
X179365518Y-88694188D01*
X179245820Y-88730498D01*
X179135506Y-88789463D01*
X179038815Y-88868815D01*
X178959463Y-88965506D01*
X178900498Y-89075820D01*
X178864188Y-89195518D01*
X178851928Y-89320000D01*
X100474250Y-89320000D01*
X100545000Y-89249250D01*
X100548072Y-88685000D01*
X100535812Y-88560518D01*
X100499502Y-88440820D01*
X100440537Y-88330506D01*
X100361185Y-88233815D01*
X100264494Y-88154463D01*
X100154180Y-88095498D01*
X100081620Y-88073487D01*
X100213475Y-87941632D01*
X100375990Y-87698411D01*
X100487932Y-87428158D01*
X100545000Y-87141260D01*
X100545000Y-86853665D01*
X122390000Y-86853665D01*
X122390000Y-87136335D01*
X122445147Y-87413574D01*
X122553320Y-87674727D01*
X122710363Y-87909759D01*
X122910241Y-88109637D01*
X123145273Y-88266680D01*
X123406426Y-88374853D01*
X123683665Y-88430000D01*
X123966335Y-88430000D01*
X124243574Y-88374853D01*
X124504727Y-88266680D01*
X124659804Y-88163061D01*
X135490000Y-88163061D01*
X135490000Y-88366939D01*
X135529774Y-88566898D01*
X135607795Y-88755256D01*
X135721063Y-88924774D01*
X135865226Y-89068937D01*
X136034744Y-89182205D01*
X136223102Y-89260226D01*
X136423061Y-89300000D01*
X136626939Y-89300000D01*
X136826898Y-89260226D01*
X137015256Y-89182205D01*
X137184774Y-89068937D01*
X137328937Y-88924774D01*
X137442205Y-88755256D01*
X137520226Y-88566898D01*
X137560000Y-88366939D01*
X137560000Y-88304801D01*
X138949802Y-86915000D01*
X142806289Y-86915000D01*
X142850226Y-86958937D01*
X143019744Y-87072205D01*
X143208102Y-87150226D01*
X143408061Y-87190000D01*
X143611939Y-87190000D01*
X143811898Y-87150226D01*
X144000256Y-87072205D01*
X144169774Y-86958937D01*
X144313937Y-86814774D01*
X144427205Y-86645256D01*
X144505226Y-86456898D01*
X144545000Y-86256939D01*
X144545000Y-86145000D01*
X164881928Y-86145000D01*
X164881928Y-87845000D01*
X164894188Y-87969482D01*
X164930498Y-88089180D01*
X164989463Y-88199494D01*
X165068815Y-88296185D01*
X165165506Y-88375537D01*
X165275820Y-88434502D01*
X165395518Y-88470812D01*
X165520000Y-88483072D01*
X167220000Y-88483072D01*
X167344482Y-88470812D01*
X167464180Y-88434502D01*
X167574494Y-88375537D01*
X167671185Y-88296185D01*
X167750537Y-88199494D01*
X167809502Y-88089180D01*
X167845812Y-87969482D01*
X167858072Y-87845000D01*
X167858072Y-86145000D01*
X167845812Y-86020518D01*
X167809502Y-85900820D01*
X167750537Y-85790506D01*
X167671185Y-85693815D01*
X167574494Y-85614463D01*
X167464180Y-85555498D01*
X167383534Y-85531034D01*
X167467588Y-85455269D01*
X167641641Y-85221920D01*
X167766825Y-84959099D01*
X167811476Y-84811890D01*
X167690155Y-84582000D01*
X166497000Y-84582000D01*
X166497000Y-84602000D01*
X166243000Y-84602000D01*
X166243000Y-84582000D01*
X165049845Y-84582000D01*
X164928524Y-84811890D01*
X164973175Y-84959099D01*
X165098359Y-85221920D01*
X165272412Y-85455269D01*
X165356466Y-85531034D01*
X165275820Y-85555498D01*
X165165506Y-85614463D01*
X165068815Y-85693815D01*
X164989463Y-85790506D01*
X164930498Y-85900820D01*
X164894188Y-86020518D01*
X164881928Y-86145000D01*
X144545000Y-86145000D01*
X144545000Y-86053061D01*
X144505226Y-85853102D01*
X144427205Y-85664744D01*
X144313937Y-85495226D01*
X144169774Y-85351063D01*
X144000256Y-85237795D01*
X143811898Y-85159774D01*
X143611939Y-85120000D01*
X143408061Y-85120000D01*
X143208102Y-85159774D01*
X143019744Y-85237795D01*
X142850226Y-85351063D01*
X142806289Y-85395000D01*
X138672333Y-85395000D01*
X138635000Y-85391323D01*
X138597667Y-85395000D01*
X138486014Y-85405997D01*
X138342753Y-85449454D01*
X138210724Y-85520026D01*
X138094999Y-85614999D01*
X138071201Y-85643997D01*
X136485199Y-87230000D01*
X136423061Y-87230000D01*
X136223102Y-87269774D01*
X136034744Y-87347795D01*
X135865226Y-87461063D01*
X135721063Y-87605226D01*
X135607795Y-87774744D01*
X135529774Y-87963102D01*
X135490000Y-88163061D01*
X124659804Y-88163061D01*
X124739759Y-88109637D01*
X124939637Y-87909759D01*
X125096680Y-87674727D01*
X125204853Y-87413574D01*
X125260000Y-87136335D01*
X125260000Y-86853665D01*
X125204853Y-86576426D01*
X125096680Y-86315273D01*
X124939637Y-86080241D01*
X124739759Y-85880363D01*
X124539131Y-85746308D01*
X124566514Y-85731671D01*
X124638097Y-85487702D01*
X123825000Y-84674605D01*
X123011903Y-85487702D01*
X123083486Y-85731671D01*
X123112341Y-85745324D01*
X122910241Y-85880363D01*
X122710363Y-86080241D01*
X122553320Y-86315273D01*
X122445147Y-86576426D01*
X122390000Y-86853665D01*
X100545000Y-86853665D01*
X100545000Y-86848740D01*
X100487932Y-86561842D01*
X100375990Y-86291589D01*
X100213475Y-86048368D01*
X100006632Y-85841525D01*
X99832240Y-85725000D01*
X100006632Y-85608475D01*
X100213475Y-85401632D01*
X100375990Y-85158411D01*
X100487932Y-84888158D01*
X100545000Y-84601260D01*
X100545000Y-84565512D01*
X122384783Y-84565512D01*
X122426213Y-84845130D01*
X122521397Y-85111292D01*
X122588329Y-85236514D01*
X122832298Y-85308097D01*
X123645395Y-84495000D01*
X124004605Y-84495000D01*
X124817702Y-85308097D01*
X125061671Y-85236514D01*
X125182571Y-84981004D01*
X125251300Y-84706816D01*
X125265217Y-84424488D01*
X125223787Y-84144870D01*
X125207065Y-84098110D01*
X164928524Y-84098110D01*
X165049845Y-84328000D01*
X166243000Y-84328000D01*
X166243000Y-83134186D01*
X166497000Y-83134186D01*
X166497000Y-84328000D01*
X167690155Y-84328000D01*
X167811476Y-84098110D01*
X167766825Y-83950901D01*
X167641641Y-83688080D01*
X167467588Y-83454731D01*
X167251355Y-83259822D01*
X167001252Y-83110843D01*
X166726891Y-83013519D01*
X166497000Y-83134186D01*
X166243000Y-83134186D01*
X166013109Y-83013519D01*
X165738748Y-83110843D01*
X165488645Y-83259822D01*
X165272412Y-83454731D01*
X165098359Y-83688080D01*
X164973175Y-83950901D01*
X164928524Y-84098110D01*
X125207065Y-84098110D01*
X125128603Y-83878708D01*
X125061671Y-83753486D01*
X124817702Y-83681903D01*
X124004605Y-84495000D01*
X123645395Y-84495000D01*
X122832298Y-83681903D01*
X122588329Y-83753486D01*
X122467429Y-84008996D01*
X122398700Y-84283184D01*
X122384783Y-84565512D01*
X100545000Y-84565512D01*
X100545000Y-84308740D01*
X100487932Y-84021842D01*
X100375990Y-83751589D01*
X100213475Y-83508368D01*
X100207405Y-83502298D01*
X123011903Y-83502298D01*
X123825000Y-84315395D01*
X124638097Y-83502298D01*
X124566514Y-83258329D01*
X124311004Y-83137429D01*
X124036816Y-83068700D01*
X123754488Y-83054783D01*
X123474870Y-83096213D01*
X123208708Y-83191397D01*
X123083486Y-83258329D01*
X123011903Y-83502298D01*
X100207405Y-83502298D01*
X100006632Y-83301525D01*
X99763411Y-83139010D01*
X99493158Y-83027068D01*
X99206260Y-82970000D01*
X98913740Y-82970000D01*
X98626842Y-83027068D01*
X98356589Y-83139010D01*
X98113368Y-83301525D01*
X97906525Y-83508368D01*
X97744010Y-83751589D01*
X97632068Y-84021842D01*
X97575000Y-84308740D01*
X97575000Y-84601260D01*
X97632068Y-84888158D01*
X97744010Y-85158411D01*
X97906525Y-85401632D01*
X98113368Y-85608475D01*
X98287760Y-85725000D01*
X98113368Y-85841525D01*
X97906525Y-86048368D01*
X97744010Y-86291589D01*
X97632068Y-86561842D01*
X97575000Y-86848740D01*
X97575000Y-87141260D01*
X97632068Y-87428158D01*
X97744010Y-87698411D01*
X97906525Y-87941632D01*
X98038380Y-88073487D01*
X97965820Y-88095498D01*
X97855506Y-88154463D01*
X97758815Y-88233815D01*
X97679463Y-88330506D01*
X97620498Y-88440820D01*
X97584188Y-88560518D01*
X97571928Y-88685000D01*
X88290000Y-88685000D01*
X88290000Y-71476891D01*
X95078519Y-71476891D01*
X95175843Y-71751252D01*
X95324822Y-72001355D01*
X95519731Y-72217588D01*
X95753080Y-72391641D01*
X96015901Y-72516825D01*
X96163110Y-72561476D01*
X96393000Y-72440155D01*
X96393000Y-71247000D01*
X95199186Y-71247000D01*
X95078519Y-71476891D01*
X88290000Y-71476891D01*
X88290000Y-70763109D01*
X95078519Y-70763109D01*
X95199186Y-70993000D01*
X96393000Y-70993000D01*
X96393000Y-69799845D01*
X96647000Y-69799845D01*
X96647000Y-70993000D01*
X96667000Y-70993000D01*
X96667000Y-71247000D01*
X96647000Y-71247000D01*
X96647000Y-72440155D01*
X96876890Y-72561476D01*
X97024099Y-72516825D01*
X97286920Y-72391641D01*
X97520269Y-72217588D01*
X97596034Y-72133534D01*
X97620498Y-72214180D01*
X97679463Y-72324494D01*
X97758815Y-72421185D01*
X97855506Y-72500537D01*
X97965820Y-72559502D01*
X98085518Y-72595812D01*
X98210000Y-72608072D01*
X99910000Y-72608072D01*
X100034482Y-72595812D01*
X100154180Y-72559502D01*
X100264494Y-72500537D01*
X100361185Y-72421185D01*
X100440537Y-72324494D01*
X100499502Y-72214180D01*
X100535812Y-72094482D01*
X100548072Y-71970000D01*
X100548072Y-70270000D01*
X100535812Y-70145518D01*
X100499502Y-70025820D01*
X100440537Y-69915506D01*
X100361185Y-69818815D01*
X100274971Y-69748061D01*
X116440000Y-69748061D01*
X116440000Y-69951939D01*
X116479774Y-70151898D01*
X116557795Y-70340256D01*
X116671063Y-70509774D01*
X116715000Y-70553711D01*
X116715001Y-71686288D01*
X116671063Y-71730226D01*
X116557795Y-71899744D01*
X116479774Y-72088102D01*
X116440000Y-72288061D01*
X116440000Y-72491939D01*
X116479774Y-72691898D01*
X116557795Y-72880256D01*
X116671063Y-73049774D01*
X116815226Y-73193937D01*
X116984744Y-73307205D01*
X117173102Y-73385226D01*
X117373061Y-73425000D01*
X117576939Y-73425000D01*
X117776898Y-73385226D01*
X117965256Y-73307205D01*
X118134774Y-73193937D01*
X118278937Y-73049774D01*
X118392205Y-72880256D01*
X118470226Y-72691898D01*
X118510000Y-72491939D01*
X118510000Y-72288061D01*
X118470226Y-72088102D01*
X118392205Y-71899744D01*
X118278937Y-71730226D01*
X118235000Y-71686289D01*
X118235000Y-70553711D01*
X118278937Y-70509774D01*
X118392205Y-70340256D01*
X118470226Y-70151898D01*
X118510000Y-69951939D01*
X118510000Y-69748061D01*
X120250000Y-69748061D01*
X120250000Y-69951939D01*
X120289774Y-70151898D01*
X120367795Y-70340256D01*
X120481063Y-70509774D01*
X120625226Y-70653937D01*
X120794744Y-70767205D01*
X120983102Y-70845226D01*
X121183061Y-70885000D01*
X121245199Y-70885000D01*
X123700000Y-73339802D01*
X123700001Y-79941288D01*
X123656063Y-79985226D01*
X123542795Y-80154744D01*
X123464774Y-80343102D01*
X123425000Y-80543061D01*
X123425000Y-80746939D01*
X123464774Y-80946898D01*
X123542795Y-81135256D01*
X123656063Y-81304774D01*
X123800226Y-81448937D01*
X123969744Y-81562205D01*
X124158102Y-81640226D01*
X124358061Y-81680000D01*
X124561939Y-81680000D01*
X124761898Y-81640226D01*
X124950256Y-81562205D01*
X125119774Y-81448937D01*
X125263937Y-81304774D01*
X125377205Y-81135256D01*
X125455226Y-80946898D01*
X125495000Y-80746939D01*
X125495000Y-80543061D01*
X125455226Y-80343102D01*
X125377205Y-80154744D01*
X125263937Y-79985226D01*
X125220000Y-79941289D01*
X125220000Y-77963665D01*
X126200000Y-77963665D01*
X126200000Y-78246335D01*
X126255147Y-78523574D01*
X126363320Y-78784727D01*
X126520363Y-79019759D01*
X126720241Y-79219637D01*
X126955273Y-79376680D01*
X127216426Y-79484853D01*
X127493665Y-79540000D01*
X127776335Y-79540000D01*
X128053574Y-79484853D01*
X128314727Y-79376680D01*
X128549759Y-79219637D01*
X128671694Y-79097702D01*
X129321903Y-79097702D01*
X129393486Y-79341671D01*
X129648996Y-79462571D01*
X129923184Y-79531300D01*
X130205512Y-79545217D01*
X130485130Y-79503787D01*
X130751292Y-79408603D01*
X130876514Y-79341671D01*
X130948097Y-79097702D01*
X130135000Y-78284605D01*
X129321903Y-79097702D01*
X128671694Y-79097702D01*
X128749637Y-79019759D01*
X128883692Y-78819131D01*
X128898329Y-78846514D01*
X129142298Y-78918097D01*
X129955395Y-78105000D01*
X130314605Y-78105000D01*
X131127702Y-78918097D01*
X131371671Y-78846514D01*
X131491276Y-78593740D01*
X147105000Y-78593740D01*
X147105000Y-78886260D01*
X147162068Y-79173158D01*
X147274010Y-79443411D01*
X147436525Y-79686632D01*
X147643368Y-79893475D01*
X147817760Y-80010000D01*
X147643368Y-80126525D01*
X147436525Y-80333368D01*
X147274010Y-80576589D01*
X147162068Y-80846842D01*
X147105000Y-81133740D01*
X147105000Y-81426260D01*
X147162068Y-81713158D01*
X147274010Y-81983411D01*
X147436525Y-82226632D01*
X147643368Y-82433475D01*
X147886589Y-82595990D01*
X148156842Y-82707932D01*
X148443740Y-82765000D01*
X148736260Y-82765000D01*
X149023158Y-82707932D01*
X149293411Y-82595990D01*
X149536632Y-82433475D01*
X149743475Y-82226632D01*
X149905990Y-81983411D01*
X150017932Y-81713158D01*
X150075000Y-81426260D01*
X150075000Y-81133740D01*
X150017932Y-80846842D01*
X149905990Y-80576589D01*
X149743475Y-80333368D01*
X149536632Y-80126525D01*
X149362240Y-80010000D01*
X149536632Y-79893475D01*
X149743475Y-79686632D01*
X149905990Y-79443411D01*
X150017932Y-79173158D01*
X150075000Y-78886260D01*
X150075000Y-78593740D01*
X150017932Y-78306842D01*
X149905990Y-78036589D01*
X149743475Y-77793368D01*
X149536632Y-77586525D01*
X149354466Y-77464805D01*
X149471355Y-77395178D01*
X149687588Y-77200269D01*
X149861641Y-76966920D01*
X149986825Y-76704099D01*
X150031476Y-76556890D01*
X149910155Y-76327000D01*
X148717000Y-76327000D01*
X148717000Y-76347000D01*
X148463000Y-76347000D01*
X148463000Y-76327000D01*
X147269845Y-76327000D01*
X147148524Y-76556890D01*
X147193175Y-76704099D01*
X147318359Y-76966920D01*
X147492412Y-77200269D01*
X147708645Y-77395178D01*
X147825534Y-77464805D01*
X147643368Y-77586525D01*
X147436525Y-77793368D01*
X147274010Y-78036589D01*
X147162068Y-78306842D01*
X147105000Y-78593740D01*
X131491276Y-78593740D01*
X131492571Y-78591004D01*
X131561300Y-78316816D01*
X131575217Y-78034488D01*
X131533787Y-77754870D01*
X131438603Y-77488708D01*
X131371671Y-77363486D01*
X131127702Y-77291903D01*
X130314605Y-78105000D01*
X129955395Y-78105000D01*
X129142298Y-77291903D01*
X128898329Y-77363486D01*
X128884676Y-77392341D01*
X128749637Y-77190241D01*
X128671694Y-77112298D01*
X129321903Y-77112298D01*
X130135000Y-77925395D01*
X130948097Y-77112298D01*
X130876514Y-76868329D01*
X130621004Y-76747429D01*
X130346816Y-76678700D01*
X130064488Y-76664783D01*
X129784870Y-76706213D01*
X129518708Y-76801397D01*
X129393486Y-76868329D01*
X129321903Y-77112298D01*
X128671694Y-77112298D01*
X128549759Y-76990363D01*
X128314727Y-76833320D01*
X128053574Y-76725147D01*
X127776335Y-76670000D01*
X127493665Y-76670000D01*
X127216426Y-76725147D01*
X126955273Y-76833320D01*
X126720241Y-76990363D01*
X126520363Y-77190241D01*
X126363320Y-77425273D01*
X126255147Y-77686426D01*
X126200000Y-77963665D01*
X125220000Y-77963665D01*
X125220000Y-73062322D01*
X125223676Y-73024999D01*
X125220000Y-72987676D01*
X125220000Y-72987667D01*
X125209003Y-72876014D01*
X125165546Y-72732753D01*
X125094975Y-72600725D01*
X125094974Y-72600723D01*
X125023799Y-72513997D01*
X125000001Y-72484999D01*
X124971004Y-72461202D01*
X123527863Y-71018061D01*
X125965000Y-71018061D01*
X125965000Y-71221939D01*
X126004774Y-71421898D01*
X126082795Y-71610256D01*
X126196063Y-71779774D01*
X126340226Y-71923937D01*
X126509744Y-72037205D01*
X126698102Y-72115226D01*
X126898061Y-72155000D01*
X127101939Y-72155000D01*
X127301898Y-72115226D01*
X127490256Y-72037205D01*
X127659774Y-71923937D01*
X127703711Y-71880000D01*
X137726289Y-71880000D01*
X137770226Y-71923937D01*
X137939744Y-72037205D01*
X138128102Y-72115226D01*
X138328061Y-72155000D01*
X138531939Y-72155000D01*
X138731898Y-72115226D01*
X138920256Y-72037205D01*
X139089774Y-71923937D01*
X139233937Y-71779774D01*
X139347205Y-71610256D01*
X139425226Y-71421898D01*
X139465000Y-71221939D01*
X139465000Y-71018061D01*
X139425226Y-70818102D01*
X139347205Y-70629744D01*
X139233937Y-70460226D01*
X139089774Y-70316063D01*
X139020836Y-70270000D01*
X147101928Y-70270000D01*
X147101928Y-71970000D01*
X147114188Y-72094482D01*
X147150498Y-72214180D01*
X147209463Y-72324494D01*
X147288815Y-72421185D01*
X147385506Y-72500537D01*
X147495820Y-72559502D01*
X147568380Y-72581513D01*
X147436525Y-72713368D01*
X147274010Y-72956589D01*
X147162068Y-73226842D01*
X147105000Y-73513740D01*
X147105000Y-73806260D01*
X147162068Y-74093158D01*
X147274010Y-74363411D01*
X147436525Y-74606632D01*
X147643368Y-74813475D01*
X147825534Y-74935195D01*
X147708645Y-75004822D01*
X147492412Y-75199731D01*
X147318359Y-75433080D01*
X147193175Y-75695901D01*
X147148524Y-75843110D01*
X147269845Y-76073000D01*
X148463000Y-76073000D01*
X148463000Y-76053000D01*
X148717000Y-76053000D01*
X148717000Y-76073000D01*
X149910155Y-76073000D01*
X150031476Y-75843110D01*
X149986825Y-75695901D01*
X149861641Y-75433080D01*
X149687588Y-75199731D01*
X149471355Y-75004822D01*
X149354466Y-74935195D01*
X149536632Y-74813475D01*
X149743475Y-74606632D01*
X149905990Y-74363411D01*
X150017932Y-74093158D01*
X150075000Y-73806260D01*
X150075000Y-73513740D01*
X150017932Y-73226842D01*
X149905990Y-72956589D01*
X149743475Y-72713368D01*
X149611620Y-72581513D01*
X149684180Y-72559502D01*
X149794494Y-72500537D01*
X149891185Y-72421185D01*
X149970537Y-72324494D01*
X150029502Y-72214180D01*
X150065812Y-72094482D01*
X150078072Y-71970000D01*
X150078072Y-70905000D01*
X164881928Y-70905000D01*
X164881928Y-72605000D01*
X164894188Y-72729482D01*
X164930498Y-72849180D01*
X164989463Y-72959494D01*
X165068815Y-73056185D01*
X165165506Y-73135537D01*
X165275820Y-73194502D01*
X165395518Y-73230812D01*
X165520000Y-73243072D01*
X167220000Y-73243072D01*
X167344482Y-73230812D01*
X167464180Y-73194502D01*
X167574494Y-73135537D01*
X167671185Y-73056185D01*
X167750537Y-72959494D01*
X167809502Y-72849180D01*
X167845812Y-72729482D01*
X167858072Y-72605000D01*
X167858072Y-70905000D01*
X167845812Y-70780518D01*
X167809502Y-70660820D01*
X167750537Y-70550506D01*
X167671185Y-70453815D01*
X167574494Y-70374463D01*
X167464180Y-70315498D01*
X167383534Y-70291034D01*
X167467588Y-70215269D01*
X167641641Y-69981920D01*
X167766825Y-69719099D01*
X167811476Y-69571890D01*
X167690155Y-69342000D01*
X166497000Y-69342000D01*
X166497000Y-69362000D01*
X166243000Y-69362000D01*
X166243000Y-69342000D01*
X165049845Y-69342000D01*
X164928524Y-69571890D01*
X164973175Y-69719099D01*
X165098359Y-69981920D01*
X165272412Y-70215269D01*
X165356466Y-70291034D01*
X165275820Y-70315498D01*
X165165506Y-70374463D01*
X165068815Y-70453815D01*
X164989463Y-70550506D01*
X164930498Y-70660820D01*
X164894188Y-70780518D01*
X164881928Y-70905000D01*
X150078072Y-70905000D01*
X150078072Y-70270000D01*
X150065812Y-70145518D01*
X150029502Y-70025820D01*
X149970537Y-69915506D01*
X149891185Y-69818815D01*
X149794494Y-69739463D01*
X149684180Y-69680498D01*
X149564482Y-69644188D01*
X149440000Y-69631928D01*
X147740000Y-69631928D01*
X147615518Y-69644188D01*
X147495820Y-69680498D01*
X147385506Y-69739463D01*
X147288815Y-69818815D01*
X147209463Y-69915506D01*
X147150498Y-70025820D01*
X147114188Y-70145518D01*
X147101928Y-70270000D01*
X139020836Y-70270000D01*
X138920256Y-70202795D01*
X138731898Y-70124774D01*
X138531939Y-70085000D01*
X138328061Y-70085000D01*
X138128102Y-70124774D01*
X137939744Y-70202795D01*
X137770226Y-70316063D01*
X137726289Y-70360000D01*
X127703711Y-70360000D01*
X127659774Y-70316063D01*
X127490256Y-70202795D01*
X127301898Y-70124774D01*
X127101939Y-70085000D01*
X126898061Y-70085000D01*
X126698102Y-70124774D01*
X126509744Y-70202795D01*
X126340226Y-70316063D01*
X126196063Y-70460226D01*
X126082795Y-70629744D01*
X126004774Y-70818102D01*
X125965000Y-71018061D01*
X123527863Y-71018061D01*
X122320000Y-69810199D01*
X122320000Y-69748061D01*
X122280226Y-69548102D01*
X122202205Y-69359744D01*
X122088937Y-69190226D01*
X121944774Y-69046063D01*
X121775256Y-68932795D01*
X121594952Y-68858110D01*
X164928524Y-68858110D01*
X165049845Y-69088000D01*
X166243000Y-69088000D01*
X166243000Y-67894186D01*
X166497000Y-67894186D01*
X166497000Y-69088000D01*
X167690155Y-69088000D01*
X167811476Y-68858110D01*
X167766825Y-68710901D01*
X167641641Y-68448080D01*
X167467588Y-68214731D01*
X167251355Y-68019822D01*
X167001252Y-67870843D01*
X166726891Y-67773519D01*
X166497000Y-67894186D01*
X166243000Y-67894186D01*
X166013109Y-67773519D01*
X165738748Y-67870843D01*
X165488645Y-68019822D01*
X165272412Y-68214731D01*
X165098359Y-68448080D01*
X164973175Y-68710901D01*
X164928524Y-68858110D01*
X121594952Y-68858110D01*
X121586898Y-68854774D01*
X121386939Y-68815000D01*
X121183061Y-68815000D01*
X120983102Y-68854774D01*
X120794744Y-68932795D01*
X120625226Y-69046063D01*
X120481063Y-69190226D01*
X120367795Y-69359744D01*
X120289774Y-69548102D01*
X120250000Y-69748061D01*
X118510000Y-69748061D01*
X118470226Y-69548102D01*
X118392205Y-69359744D01*
X118278937Y-69190226D01*
X118134774Y-69046063D01*
X117965256Y-68932795D01*
X117776898Y-68854774D01*
X117576939Y-68815000D01*
X117373061Y-68815000D01*
X117173102Y-68854774D01*
X116984744Y-68932795D01*
X116815226Y-69046063D01*
X116671063Y-69190226D01*
X116557795Y-69359744D01*
X116479774Y-69548102D01*
X116440000Y-69748061D01*
X100274971Y-69748061D01*
X100264494Y-69739463D01*
X100154180Y-69680498D01*
X100034482Y-69644188D01*
X99910000Y-69631928D01*
X98210000Y-69631928D01*
X98085518Y-69644188D01*
X97965820Y-69680498D01*
X97855506Y-69739463D01*
X97758815Y-69818815D01*
X97679463Y-69915506D01*
X97620498Y-70025820D01*
X97596034Y-70106466D01*
X97520269Y-70022412D01*
X97286920Y-69848359D01*
X97024099Y-69723175D01*
X96876890Y-69678524D01*
X96647000Y-69799845D01*
X96393000Y-69799845D01*
X96163110Y-69678524D01*
X96015901Y-69723175D01*
X95753080Y-69848359D01*
X95519731Y-70022412D01*
X95324822Y-70238645D01*
X95175843Y-70488748D01*
X95078519Y-70763109D01*
X88290000Y-70763109D01*
X88290000Y-63920000D01*
X126146928Y-63920000D01*
X126146928Y-65620000D01*
X126159188Y-65744482D01*
X126195498Y-65864180D01*
X126254463Y-65974494D01*
X126333815Y-66071185D01*
X126430506Y-66150537D01*
X126540820Y-66209502D01*
X126660518Y-66245812D01*
X126785000Y-66258072D01*
X128485000Y-66258072D01*
X128609482Y-66245812D01*
X128729180Y-66209502D01*
X128839494Y-66150537D01*
X128936185Y-66071185D01*
X129015537Y-65974494D01*
X129074502Y-65864180D01*
X129096513Y-65791620D01*
X129228368Y-65923475D01*
X129471589Y-66085990D01*
X129741842Y-66197932D01*
X130028740Y-66255000D01*
X130321260Y-66255000D01*
X130608158Y-66197932D01*
X130878411Y-66085990D01*
X131121632Y-65923475D01*
X131328475Y-65716632D01*
X131445000Y-65542240D01*
X131561525Y-65716632D01*
X131768368Y-65923475D01*
X132011589Y-66085990D01*
X132281842Y-66197932D01*
X132568740Y-66255000D01*
X132861260Y-66255000D01*
X133148158Y-66197932D01*
X133418411Y-66085990D01*
X133661632Y-65923475D01*
X133868475Y-65716632D01*
X133985000Y-65542240D01*
X134101525Y-65716632D01*
X134308368Y-65923475D01*
X134551589Y-66085990D01*
X134821842Y-66197932D01*
X135108740Y-66255000D01*
X135401260Y-66255000D01*
X135688158Y-66197932D01*
X135958411Y-66085990D01*
X136201632Y-65923475D01*
X136408475Y-65716632D01*
X136525000Y-65542240D01*
X136641525Y-65716632D01*
X136848368Y-65923475D01*
X137091589Y-66085990D01*
X137361842Y-66197932D01*
X137648740Y-66255000D01*
X137941260Y-66255000D01*
X138228158Y-66197932D01*
X138498411Y-66085990D01*
X138741632Y-65923475D01*
X138948475Y-65716632D01*
X139065000Y-65542240D01*
X139181525Y-65716632D01*
X139388368Y-65923475D01*
X139631589Y-66085990D01*
X139901842Y-66197932D01*
X140188740Y-66255000D01*
X140481260Y-66255000D01*
X140768158Y-66197932D01*
X141038411Y-66085990D01*
X141281632Y-65923475D01*
X141488475Y-65716632D01*
X141605000Y-65542240D01*
X141721525Y-65716632D01*
X141928368Y-65923475D01*
X142171589Y-66085990D01*
X142441842Y-66197932D01*
X142728740Y-66255000D01*
X143021260Y-66255000D01*
X143308158Y-66197932D01*
X143578411Y-66085990D01*
X143821632Y-65923475D01*
X144028475Y-65716632D01*
X144190990Y-65473411D01*
X144302932Y-65203158D01*
X144360000Y-64916260D01*
X144360000Y-64623740D01*
X144302932Y-64336842D01*
X144190990Y-64066589D01*
X144028475Y-63823368D01*
X143821632Y-63616525D01*
X143578411Y-63454010D01*
X143308158Y-63342068D01*
X143021260Y-63285000D01*
X142728740Y-63285000D01*
X142441842Y-63342068D01*
X142171589Y-63454010D01*
X141928368Y-63616525D01*
X141721525Y-63823368D01*
X141605000Y-63997760D01*
X141488475Y-63823368D01*
X141281632Y-63616525D01*
X141038411Y-63454010D01*
X140768158Y-63342068D01*
X140481260Y-63285000D01*
X140188740Y-63285000D01*
X139901842Y-63342068D01*
X139631589Y-63454010D01*
X139388368Y-63616525D01*
X139181525Y-63823368D01*
X139065000Y-63997760D01*
X138948475Y-63823368D01*
X138741632Y-63616525D01*
X138498411Y-63454010D01*
X138228158Y-63342068D01*
X137941260Y-63285000D01*
X137648740Y-63285000D01*
X137361842Y-63342068D01*
X137091589Y-63454010D01*
X136848368Y-63616525D01*
X136641525Y-63823368D01*
X136525000Y-63997760D01*
X136408475Y-63823368D01*
X136201632Y-63616525D01*
X135958411Y-63454010D01*
X135688158Y-63342068D01*
X135401260Y-63285000D01*
X135108740Y-63285000D01*
X134821842Y-63342068D01*
X134551589Y-63454010D01*
X134308368Y-63616525D01*
X134101525Y-63823368D01*
X133985000Y-63997760D01*
X133868475Y-63823368D01*
X133661632Y-63616525D01*
X133418411Y-63454010D01*
X133148158Y-63342068D01*
X132861260Y-63285000D01*
X132568740Y-63285000D01*
X132281842Y-63342068D01*
X132011589Y-63454010D01*
X131768368Y-63616525D01*
X131561525Y-63823368D01*
X131445000Y-63997760D01*
X131328475Y-63823368D01*
X131121632Y-63616525D01*
X130878411Y-63454010D01*
X130608158Y-63342068D01*
X130321260Y-63285000D01*
X130028740Y-63285000D01*
X129741842Y-63342068D01*
X129471589Y-63454010D01*
X129228368Y-63616525D01*
X129096513Y-63748380D01*
X129074502Y-63675820D01*
X129015537Y-63565506D01*
X128936185Y-63468815D01*
X128839494Y-63389463D01*
X128729180Y-63330498D01*
X128609482Y-63294188D01*
X128485000Y-63281928D01*
X126785000Y-63281928D01*
X126660518Y-63294188D01*
X126540820Y-63330498D01*
X126430506Y-63389463D01*
X126333815Y-63468815D01*
X126254463Y-63565506D01*
X126195498Y-63675820D01*
X126159188Y-63795518D01*
X126146928Y-63920000D01*
X88290000Y-63920000D01*
X88290000Y-58278665D01*
X104610000Y-58278665D01*
X104610000Y-58561335D01*
X104665147Y-58838574D01*
X104773320Y-59099727D01*
X104930363Y-59334759D01*
X105130241Y-59534637D01*
X105365273Y-59691680D01*
X105626426Y-59799853D01*
X105903665Y-59855000D01*
X106186335Y-59855000D01*
X106463574Y-59799853D01*
X106724727Y-59691680D01*
X106959759Y-59534637D01*
X107159637Y-59334759D01*
X107316680Y-59099727D01*
X107424853Y-58838574D01*
X107480000Y-58561335D01*
X107480000Y-58278665D01*
X107424853Y-58001426D01*
X107316680Y-57740273D01*
X107159637Y-57505241D01*
X106959759Y-57305363D01*
X106724727Y-57148320D01*
X106463574Y-57040147D01*
X106186335Y-56985000D01*
X105903665Y-56985000D01*
X105626426Y-57040147D01*
X105365273Y-57148320D01*
X105130241Y-57305363D01*
X104930363Y-57505241D01*
X104773320Y-57740273D01*
X104665147Y-58001426D01*
X104610000Y-58278665D01*
X88290000Y-58278665D01*
X88290000Y-50658665D01*
X104610000Y-50658665D01*
X104610000Y-50941335D01*
X104665147Y-51218574D01*
X104773320Y-51479727D01*
X104930363Y-51714759D01*
X105130241Y-51914637D01*
X105365273Y-52071680D01*
X105626426Y-52179853D01*
X105903665Y-52235000D01*
X106186335Y-52235000D01*
X106463574Y-52179853D01*
X106724727Y-52071680D01*
X106959759Y-51914637D01*
X107159637Y-51714759D01*
X107316680Y-51479727D01*
X107424853Y-51218574D01*
X107480000Y-50941335D01*
X107480000Y-50658665D01*
X107424853Y-50381426D01*
X107316680Y-50120273D01*
X107159637Y-49885241D01*
X106959759Y-49685363D01*
X106724727Y-49528320D01*
X106463574Y-49420147D01*
X106186335Y-49365000D01*
X105903665Y-49365000D01*
X105626426Y-49420147D01*
X105365273Y-49528320D01*
X105130241Y-49685363D01*
X104930363Y-49885241D01*
X104773320Y-50120273D01*
X104665147Y-50381426D01*
X104610000Y-50658665D01*
X88290000Y-50658665D01*
X88290000Y-44308665D01*
X91275000Y-44308665D01*
X91275000Y-44591335D01*
X91330147Y-44868574D01*
X91438320Y-45129727D01*
X91595363Y-45364759D01*
X91795241Y-45564637D01*
X92030273Y-45721680D01*
X92291426Y-45829853D01*
X92568665Y-45885000D01*
X92851335Y-45885000D01*
X93128574Y-45829853D01*
X93389727Y-45721680D01*
X93624759Y-45564637D01*
X93824637Y-45364759D01*
X93981680Y-45129727D01*
X94089853Y-44868574D01*
X94145000Y-44591335D01*
X94145000Y-44318662D01*
X97091500Y-44318662D01*
X97091500Y-44581338D01*
X97142746Y-44838968D01*
X97243268Y-45081649D01*
X97389203Y-45300057D01*
X97574943Y-45485797D01*
X97793351Y-45631732D01*
X98036032Y-45732254D01*
X98293662Y-45783500D01*
X98556338Y-45783500D01*
X98813968Y-45732254D01*
X99056649Y-45631732D01*
X99275057Y-45485797D01*
X99460797Y-45300057D01*
X99606732Y-45081649D01*
X99707254Y-44838968D01*
X99758500Y-44581338D01*
X99758500Y-44318662D01*
X104711500Y-44318662D01*
X104711500Y-44581338D01*
X104762746Y-44838968D01*
X104863268Y-45081649D01*
X105009203Y-45300057D01*
X105194943Y-45485797D01*
X105413351Y-45631732D01*
X105656032Y-45732254D01*
X105913662Y-45783500D01*
X106176338Y-45783500D01*
X106433968Y-45732254D01*
X106676649Y-45631732D01*
X106895057Y-45485797D01*
X107080797Y-45300057D01*
X107226732Y-45081649D01*
X107327254Y-44838968D01*
X107378500Y-44581338D01*
X107378500Y-44318662D01*
X107327254Y-44061032D01*
X107226732Y-43818351D01*
X107080797Y-43599943D01*
X106895057Y-43414203D01*
X106676649Y-43268268D01*
X106433968Y-43167746D01*
X106176338Y-43116500D01*
X105913662Y-43116500D01*
X105656032Y-43167746D01*
X105413351Y-43268268D01*
X105194943Y-43414203D01*
X105009203Y-43599943D01*
X104863268Y-43818351D01*
X104762746Y-44061032D01*
X104711500Y-44318662D01*
X99758500Y-44318662D01*
X99707254Y-44061032D01*
X99606732Y-43818351D01*
X99460797Y-43599943D01*
X99275057Y-43414203D01*
X99056649Y-43268268D01*
X98813968Y-43167746D01*
X98556338Y-43116500D01*
X98293662Y-43116500D01*
X98036032Y-43167746D01*
X97793351Y-43268268D01*
X97574943Y-43414203D01*
X97389203Y-43599943D01*
X97243268Y-43818351D01*
X97142746Y-44061032D01*
X97091500Y-44318662D01*
X94145000Y-44318662D01*
X94145000Y-44308665D01*
X94089853Y-44031426D01*
X93981680Y-43770273D01*
X93824637Y-43535241D01*
X93624759Y-43335363D01*
X93389727Y-43178320D01*
X93128574Y-43070147D01*
X92851335Y-43015000D01*
X92568665Y-43015000D01*
X92291426Y-43070147D01*
X92030273Y-43178320D01*
X91795241Y-43335363D01*
X91595363Y-43535241D01*
X91438320Y-43770273D01*
X91330147Y-44031426D01*
X91275000Y-44308665D01*
X88290000Y-44308665D01*
X88290000Y-40290197D01*
X97684408Y-40290197D01*
X97743686Y-40523812D01*
X97981875Y-40634559D01*
X98237093Y-40696711D01*
X98499533Y-40707876D01*
X98759107Y-40667629D01*
X99005842Y-40577514D01*
X99106314Y-40523812D01*
X99165592Y-40290197D01*
X105304408Y-40290197D01*
X105363686Y-40523812D01*
X105601875Y-40634559D01*
X105857093Y-40696711D01*
X106119533Y-40707876D01*
X106379107Y-40667629D01*
X106625842Y-40577514D01*
X106726314Y-40523812D01*
X106785592Y-40290197D01*
X106045000Y-39549605D01*
X105304408Y-40290197D01*
X99165592Y-40290197D01*
X98425000Y-39549605D01*
X97684408Y-40290197D01*
X88290000Y-40290197D01*
X88290000Y-39444533D01*
X97087124Y-39444533D01*
X97127371Y-39704107D01*
X97217486Y-39950842D01*
X97271188Y-40051314D01*
X97504803Y-40110592D01*
X98245395Y-39370000D01*
X98604605Y-39370000D01*
X99345197Y-40110592D01*
X99578812Y-40051314D01*
X99689559Y-39813125D01*
X99751711Y-39557907D01*
X99756534Y-39444533D01*
X104707124Y-39444533D01*
X104747371Y-39704107D01*
X104837486Y-39950842D01*
X104891188Y-40051314D01*
X105124803Y-40110592D01*
X105865395Y-39370000D01*
X106224605Y-39370000D01*
X106965197Y-40110592D01*
X107198812Y-40051314D01*
X107309559Y-39813125D01*
X107371711Y-39557907D01*
X107382876Y-39295467D01*
X107342629Y-39035893D01*
X107252514Y-38789158D01*
X107198812Y-38688686D01*
X106965197Y-38629408D01*
X106224605Y-39370000D01*
X105865395Y-39370000D01*
X105124803Y-38629408D01*
X104891188Y-38688686D01*
X104780441Y-38926875D01*
X104718289Y-39182093D01*
X104707124Y-39444533D01*
X99756534Y-39444533D01*
X99762876Y-39295467D01*
X99722629Y-39035893D01*
X99632514Y-38789158D01*
X99578812Y-38688686D01*
X99345197Y-38629408D01*
X98604605Y-39370000D01*
X98245395Y-39370000D01*
X97504803Y-38629408D01*
X97271188Y-38688686D01*
X97160441Y-38926875D01*
X97098289Y-39182093D01*
X97087124Y-39444533D01*
X88290000Y-39444533D01*
X88290000Y-38449803D01*
X97684408Y-38449803D01*
X98425000Y-39190395D01*
X99165592Y-38449803D01*
X105304408Y-38449803D01*
X106045000Y-39190395D01*
X106785592Y-38449803D01*
X106726314Y-38216188D01*
X106488125Y-38105441D01*
X106232907Y-38043289D01*
X105970467Y-38032124D01*
X105710893Y-38072371D01*
X105464158Y-38162486D01*
X105363686Y-38216188D01*
X105304408Y-38449803D01*
X99165592Y-38449803D01*
X99106314Y-38216188D01*
X98868125Y-38105441D01*
X98612907Y-38043289D01*
X98350467Y-38032124D01*
X98090893Y-38072371D01*
X97844158Y-38162486D01*
X97743686Y-38216188D01*
X97684408Y-38449803D01*
X88290000Y-38449803D01*
X88290000Y-37299040D01*
X91318091Y-37299040D01*
X91412930Y-37563881D01*
X91557615Y-37805131D01*
X91746586Y-38013519D01*
X91972580Y-38181037D01*
X92226913Y-38301246D01*
X92360961Y-38341904D01*
X92583000Y-38219915D01*
X92583000Y-37077000D01*
X92837000Y-37077000D01*
X92837000Y-38219915D01*
X93059039Y-38341904D01*
X93193087Y-38301246D01*
X93447420Y-38181037D01*
X93673414Y-38013519D01*
X93862385Y-37805131D01*
X94007070Y-37563881D01*
X94101909Y-37299040D01*
X93980624Y-37077000D01*
X92837000Y-37077000D01*
X92583000Y-37077000D01*
X91439376Y-37077000D01*
X91318091Y-37299040D01*
X88290000Y-37299040D01*
X88290000Y-36600960D01*
X91318091Y-36600960D01*
X91439376Y-36823000D01*
X92583000Y-36823000D01*
X92583000Y-35680085D01*
X92837000Y-35680085D01*
X92837000Y-36823000D01*
X93980624Y-36823000D01*
X94101909Y-36600960D01*
X94007070Y-36336119D01*
X93862385Y-36094869D01*
X93673414Y-35886481D01*
X93447420Y-35718963D01*
X93193087Y-35598754D01*
X93059039Y-35558096D01*
X92837000Y-35680085D01*
X92583000Y-35680085D01*
X92360961Y-35558096D01*
X92226913Y-35598754D01*
X91972580Y-35718963D01*
X91746586Y-35886481D01*
X91557615Y-36094869D01*
X91412930Y-36336119D01*
X91318091Y-36600960D01*
X88290000Y-36600960D01*
X88290000Y-33045000D01*
X186665000Y-33045000D01*
X186665001Y-130785000D01*
M02*
