G04 #@! TF.GenerationSoftware,KiCad,Pcbnew,5.1.5-52549c5~84~ubuntu18.04.1*
G04 #@! TF.CreationDate,2019-11-27T16:08:14-05:00*
G04 #@! TF.ProjectId,miniPCB,6d696e69-5043-4422-9e6b-696361645f70,rev?*
G04 #@! TF.SameCoordinates,Original*
G04 #@! TF.FileFunction,Soldermask,Top*
G04 #@! TF.FilePolarity,Negative*
%FSLAX46Y46*%
G04 Gerber Fmt 4.6, Leading zero omitted, Abs format (unit mm)*
G04 Created by KiCad (PCBNEW 5.1.5-52549c5~84~ubuntu18.04.1) date 2019-11-27 16:08:14*
%MOMM*%
%LPD*%
G04 APERTURE LIST*
%ADD10C,0.100000*%
G04 APERTURE END LIST*
D10*
G36*
X178529425Y-121174599D02*
G01*
X178653621Y-121199302D01*
X178790022Y-121255801D01*
X178912779Y-121337825D01*
X179017175Y-121442221D01*
X179099199Y-121564978D01*
X179155698Y-121701379D01*
X179184500Y-121846181D01*
X179184500Y-121993819D01*
X179155698Y-122138621D01*
X179099199Y-122275022D01*
X179017175Y-122397779D01*
X178912779Y-122502175D01*
X178790022Y-122584199D01*
X178653621Y-122640698D01*
X178529425Y-122665401D01*
X178508820Y-122669500D01*
X178361180Y-122669500D01*
X178340575Y-122665401D01*
X178216379Y-122640698D01*
X178079978Y-122584199D01*
X177957221Y-122502175D01*
X177852825Y-122397779D01*
X177770801Y-122275022D01*
X177714302Y-122138621D01*
X177685500Y-121993819D01*
X177685500Y-121846181D01*
X177714302Y-121701379D01*
X177770801Y-121564978D01*
X177852825Y-121442221D01*
X177957221Y-121337825D01*
X178079978Y-121255801D01*
X178216379Y-121199302D01*
X178340575Y-121174599D01*
X178361180Y-121170500D01*
X178508820Y-121170500D01*
X178529425Y-121174599D01*
G37*
G36*
X170909425Y-121174599D02*
G01*
X171033621Y-121199302D01*
X171170022Y-121255801D01*
X171292779Y-121337825D01*
X171397175Y-121442221D01*
X171479199Y-121564978D01*
X171535698Y-121701379D01*
X171564500Y-121846181D01*
X171564500Y-121993819D01*
X171535698Y-122138621D01*
X171479199Y-122275022D01*
X171397175Y-122397779D01*
X171292779Y-122502175D01*
X171170022Y-122584199D01*
X171033621Y-122640698D01*
X170909425Y-122665401D01*
X170888820Y-122669500D01*
X170741180Y-122669500D01*
X170720575Y-122665401D01*
X170596379Y-122640698D01*
X170459978Y-122584199D01*
X170337221Y-122502175D01*
X170232825Y-122397779D01*
X170150801Y-122275022D01*
X170094302Y-122138621D01*
X170065500Y-121993819D01*
X170065500Y-121846181D01*
X170094302Y-121701379D01*
X170150801Y-121564978D01*
X170232825Y-121442221D01*
X170337221Y-121337825D01*
X170459978Y-121255801D01*
X170596379Y-121199302D01*
X170720575Y-121174599D01*
X170741180Y-121170500D01*
X170888820Y-121170500D01*
X170909425Y-121174599D01*
G37*
G36*
X103599425Y-120539599D02*
G01*
X103723621Y-120564302D01*
X103860022Y-120620801D01*
X103982779Y-120702825D01*
X104087175Y-120807221D01*
X104169199Y-120929978D01*
X104225698Y-121066379D01*
X104254500Y-121211181D01*
X104254500Y-121358819D01*
X104225698Y-121503621D01*
X104169199Y-121640022D01*
X104087175Y-121762779D01*
X103982779Y-121867175D01*
X103860022Y-121949199D01*
X103723621Y-122005698D01*
X103599425Y-122030401D01*
X103578820Y-122034500D01*
X103431180Y-122034500D01*
X103410575Y-122030401D01*
X103286379Y-122005698D01*
X103149978Y-121949199D01*
X103027221Y-121867175D01*
X102922825Y-121762779D01*
X102840801Y-121640022D01*
X102784302Y-121503621D01*
X102755500Y-121358819D01*
X102755500Y-121211181D01*
X102784302Y-121066379D01*
X102840801Y-120929978D01*
X102922825Y-120807221D01*
X103027221Y-120702825D01*
X103149978Y-120620801D01*
X103286379Y-120564302D01*
X103410575Y-120539599D01*
X103431180Y-120535500D01*
X103578820Y-120535500D01*
X103599425Y-120539599D01*
G37*
G36*
X95979425Y-120539599D02*
G01*
X96103621Y-120564302D01*
X96240022Y-120620801D01*
X96362779Y-120702825D01*
X96467175Y-120807221D01*
X96549199Y-120929978D01*
X96605698Y-121066379D01*
X96634500Y-121211181D01*
X96634500Y-121358819D01*
X96605698Y-121503621D01*
X96549199Y-121640022D01*
X96467175Y-121762779D01*
X96362779Y-121867175D01*
X96240022Y-121949199D01*
X96103621Y-122005698D01*
X95979425Y-122030401D01*
X95958820Y-122034500D01*
X95811180Y-122034500D01*
X95790575Y-122030401D01*
X95666379Y-122005698D01*
X95529978Y-121949199D01*
X95407221Y-121867175D01*
X95302825Y-121762779D01*
X95220801Y-121640022D01*
X95164302Y-121503621D01*
X95135500Y-121358819D01*
X95135500Y-121211181D01*
X95164302Y-121066379D01*
X95220801Y-120929978D01*
X95302825Y-120807221D01*
X95407221Y-120702825D01*
X95529978Y-120620801D01*
X95666379Y-120564302D01*
X95790575Y-120539599D01*
X95811180Y-120535500D01*
X95958820Y-120535500D01*
X95979425Y-120539599D01*
G37*
G36*
X170909425Y-116094599D02*
G01*
X171033621Y-116119302D01*
X171170022Y-116175801D01*
X171292779Y-116257825D01*
X171397175Y-116362221D01*
X171479199Y-116484978D01*
X171535698Y-116621379D01*
X171564500Y-116766181D01*
X171564500Y-116913819D01*
X171535698Y-117058621D01*
X171479199Y-117195022D01*
X171397175Y-117317779D01*
X171292779Y-117422175D01*
X171170022Y-117504199D01*
X171033621Y-117560698D01*
X170909425Y-117585401D01*
X170888820Y-117589500D01*
X170741180Y-117589500D01*
X170720575Y-117585401D01*
X170596379Y-117560698D01*
X170459978Y-117504199D01*
X170337221Y-117422175D01*
X170232825Y-117317779D01*
X170150801Y-117195022D01*
X170094302Y-117058621D01*
X170065500Y-116913819D01*
X170065500Y-116766181D01*
X170094302Y-116621379D01*
X170150801Y-116484978D01*
X170232825Y-116362221D01*
X170337221Y-116257825D01*
X170459978Y-116175801D01*
X170596379Y-116119302D01*
X170720575Y-116094599D01*
X170741180Y-116090500D01*
X170888820Y-116090500D01*
X170909425Y-116094599D01*
G37*
G36*
X178529425Y-116094599D02*
G01*
X178653621Y-116119302D01*
X178790022Y-116175801D01*
X178912779Y-116257825D01*
X179017175Y-116362221D01*
X179099199Y-116484978D01*
X179155698Y-116621379D01*
X179184500Y-116766181D01*
X179184500Y-116913819D01*
X179155698Y-117058621D01*
X179099199Y-117195022D01*
X179017175Y-117317779D01*
X178912779Y-117422175D01*
X178790022Y-117504199D01*
X178653621Y-117560698D01*
X178529425Y-117585401D01*
X178508820Y-117589500D01*
X178361180Y-117589500D01*
X178340575Y-117585401D01*
X178216379Y-117560698D01*
X178079978Y-117504199D01*
X177957221Y-117422175D01*
X177852825Y-117317779D01*
X177770801Y-117195022D01*
X177714302Y-117058621D01*
X177685500Y-116913819D01*
X177685500Y-116766181D01*
X177714302Y-116621379D01*
X177770801Y-116484978D01*
X177852825Y-116362221D01*
X177957221Y-116257825D01*
X178079978Y-116175801D01*
X178216379Y-116119302D01*
X178340575Y-116094599D01*
X178361180Y-116090500D01*
X178508820Y-116090500D01*
X178529425Y-116094599D01*
G37*
G36*
X95979425Y-115459599D02*
G01*
X96103621Y-115484302D01*
X96240022Y-115540801D01*
X96362779Y-115622825D01*
X96467175Y-115727221D01*
X96549199Y-115849978D01*
X96605698Y-115986379D01*
X96634500Y-116131181D01*
X96634500Y-116278819D01*
X96605698Y-116423621D01*
X96549199Y-116560022D01*
X96467175Y-116682779D01*
X96362779Y-116787175D01*
X96240022Y-116869199D01*
X96103621Y-116925698D01*
X95979425Y-116950401D01*
X95958820Y-116954500D01*
X95811180Y-116954500D01*
X95790575Y-116950401D01*
X95666379Y-116925698D01*
X95529978Y-116869199D01*
X95407221Y-116787175D01*
X95302825Y-116682779D01*
X95220801Y-116560022D01*
X95164302Y-116423621D01*
X95135500Y-116278819D01*
X95135500Y-116131181D01*
X95164302Y-115986379D01*
X95220801Y-115849978D01*
X95302825Y-115727221D01*
X95407221Y-115622825D01*
X95529978Y-115540801D01*
X95666379Y-115484302D01*
X95790575Y-115459599D01*
X95811180Y-115455500D01*
X95958820Y-115455500D01*
X95979425Y-115459599D01*
G37*
G36*
X103599425Y-115459599D02*
G01*
X103723621Y-115484302D01*
X103860022Y-115540801D01*
X103982779Y-115622825D01*
X104087175Y-115727221D01*
X104169199Y-115849978D01*
X104225698Y-115986379D01*
X104254500Y-116131181D01*
X104254500Y-116278819D01*
X104225698Y-116423621D01*
X104169199Y-116560022D01*
X104087175Y-116682779D01*
X103982779Y-116787175D01*
X103860022Y-116869199D01*
X103723621Y-116925698D01*
X103599425Y-116950401D01*
X103578820Y-116954500D01*
X103431180Y-116954500D01*
X103410575Y-116950401D01*
X103286379Y-116925698D01*
X103149978Y-116869199D01*
X103027221Y-116787175D01*
X102922825Y-116682779D01*
X102840801Y-116560022D01*
X102784302Y-116423621D01*
X102755500Y-116278819D01*
X102755500Y-116131181D01*
X102784302Y-115986379D01*
X102840801Y-115849978D01*
X102922825Y-115727221D01*
X103027221Y-115622825D01*
X103149978Y-115540801D01*
X103286379Y-115484302D01*
X103410575Y-115459599D01*
X103431180Y-115455500D01*
X103578820Y-115455500D01*
X103599425Y-115459599D01*
G37*
G36*
X133616000Y-109486000D02*
G01*
X131814000Y-109486000D01*
X131814000Y-107684000D01*
X133616000Y-107684000D01*
X133616000Y-109486000D01*
G37*
G36*
X135368512Y-107688927D02*
G01*
X135517812Y-107718624D01*
X135681784Y-107786544D01*
X135829354Y-107885147D01*
X135954853Y-108010646D01*
X136053456Y-108158216D01*
X136121376Y-108322188D01*
X136156000Y-108496259D01*
X136156000Y-108673741D01*
X136121376Y-108847812D01*
X136053456Y-109011784D01*
X135954853Y-109159354D01*
X135829354Y-109284853D01*
X135681784Y-109383456D01*
X135517812Y-109451376D01*
X135368512Y-109481073D01*
X135343742Y-109486000D01*
X135166258Y-109486000D01*
X135141488Y-109481073D01*
X134992188Y-109451376D01*
X134828216Y-109383456D01*
X134680646Y-109284853D01*
X134555147Y-109159354D01*
X134456544Y-109011784D01*
X134388624Y-108847812D01*
X134354000Y-108673741D01*
X134354000Y-108496259D01*
X134388624Y-108322188D01*
X134456544Y-108158216D01*
X134555147Y-108010646D01*
X134680646Y-107885147D01*
X134828216Y-107786544D01*
X134992188Y-107718624D01*
X135141488Y-107688927D01*
X135166258Y-107684000D01*
X135343742Y-107684000D01*
X135368512Y-107688927D01*
G37*
G36*
X137908512Y-107688927D02*
G01*
X138057812Y-107718624D01*
X138221784Y-107786544D01*
X138369354Y-107885147D01*
X138494853Y-108010646D01*
X138593456Y-108158216D01*
X138661376Y-108322188D01*
X138696000Y-108496259D01*
X138696000Y-108673741D01*
X138661376Y-108847812D01*
X138593456Y-109011784D01*
X138494853Y-109159354D01*
X138369354Y-109284853D01*
X138221784Y-109383456D01*
X138057812Y-109451376D01*
X137908512Y-109481073D01*
X137883742Y-109486000D01*
X137706258Y-109486000D01*
X137681488Y-109481073D01*
X137532188Y-109451376D01*
X137368216Y-109383456D01*
X137220646Y-109284853D01*
X137095147Y-109159354D01*
X136996544Y-109011784D01*
X136928624Y-108847812D01*
X136894000Y-108673741D01*
X136894000Y-108496259D01*
X136928624Y-108322188D01*
X136996544Y-108158216D01*
X137095147Y-108010646D01*
X137220646Y-107885147D01*
X137368216Y-107786544D01*
X137532188Y-107718624D01*
X137681488Y-107688927D01*
X137706258Y-107684000D01*
X137883742Y-107684000D01*
X137908512Y-107688927D01*
G37*
G36*
X140448512Y-107688927D02*
G01*
X140597812Y-107718624D01*
X140761784Y-107786544D01*
X140909354Y-107885147D01*
X141034853Y-108010646D01*
X141133456Y-108158216D01*
X141201376Y-108322188D01*
X141236000Y-108496259D01*
X141236000Y-108673741D01*
X141201376Y-108847812D01*
X141133456Y-109011784D01*
X141034853Y-109159354D01*
X140909354Y-109284853D01*
X140761784Y-109383456D01*
X140597812Y-109451376D01*
X140448512Y-109481073D01*
X140423742Y-109486000D01*
X140246258Y-109486000D01*
X140221488Y-109481073D01*
X140072188Y-109451376D01*
X139908216Y-109383456D01*
X139760646Y-109284853D01*
X139635147Y-109159354D01*
X139536544Y-109011784D01*
X139468624Y-108847812D01*
X139434000Y-108673741D01*
X139434000Y-108496259D01*
X139468624Y-108322188D01*
X139536544Y-108158216D01*
X139635147Y-108010646D01*
X139760646Y-107885147D01*
X139908216Y-107786544D01*
X140072188Y-107718624D01*
X140221488Y-107688927D01*
X140246258Y-107684000D01*
X140423742Y-107684000D01*
X140448512Y-107688927D01*
G37*
G36*
X142988512Y-107688927D02*
G01*
X143137812Y-107718624D01*
X143301784Y-107786544D01*
X143449354Y-107885147D01*
X143574853Y-108010646D01*
X143673456Y-108158216D01*
X143741376Y-108322188D01*
X143776000Y-108496259D01*
X143776000Y-108673741D01*
X143741376Y-108847812D01*
X143673456Y-109011784D01*
X143574853Y-109159354D01*
X143449354Y-109284853D01*
X143301784Y-109383456D01*
X143137812Y-109451376D01*
X142988512Y-109481073D01*
X142963742Y-109486000D01*
X142786258Y-109486000D01*
X142761488Y-109481073D01*
X142612188Y-109451376D01*
X142448216Y-109383456D01*
X142300646Y-109284853D01*
X142175147Y-109159354D01*
X142076544Y-109011784D01*
X142008624Y-108847812D01*
X141974000Y-108673741D01*
X141974000Y-108496259D01*
X142008624Y-108322188D01*
X142076544Y-108158216D01*
X142175147Y-108010646D01*
X142300646Y-107885147D01*
X142448216Y-107786544D01*
X142612188Y-107718624D01*
X142761488Y-107688927D01*
X142786258Y-107684000D01*
X142963742Y-107684000D01*
X142988512Y-107688927D01*
G37*
G36*
X117588512Y-105148927D02*
G01*
X117737812Y-105178624D01*
X117901784Y-105246544D01*
X118049354Y-105345147D01*
X118174853Y-105470646D01*
X118273456Y-105618216D01*
X118341376Y-105782188D01*
X118376000Y-105956259D01*
X118376000Y-106133741D01*
X118341376Y-106307812D01*
X118273456Y-106471784D01*
X118174853Y-106619354D01*
X118049354Y-106744853D01*
X117901784Y-106843456D01*
X117737812Y-106911376D01*
X117588512Y-106941073D01*
X117563742Y-106946000D01*
X117386258Y-106946000D01*
X117361488Y-106941073D01*
X117212188Y-106911376D01*
X117048216Y-106843456D01*
X116900646Y-106744853D01*
X116775147Y-106619354D01*
X116676544Y-106471784D01*
X116608624Y-106307812D01*
X116574000Y-106133741D01*
X116574000Y-105956259D01*
X116608624Y-105782188D01*
X116676544Y-105618216D01*
X116775147Y-105470646D01*
X116900646Y-105345147D01*
X117048216Y-105246544D01*
X117212188Y-105178624D01*
X117361488Y-105148927D01*
X117386258Y-105144000D01*
X117563742Y-105144000D01*
X117588512Y-105148927D01*
G37*
G36*
X117588512Y-102608927D02*
G01*
X117737812Y-102638624D01*
X117901784Y-102706544D01*
X118049354Y-102805147D01*
X118174853Y-102930646D01*
X118273456Y-103078216D01*
X118341376Y-103242188D01*
X118376000Y-103416259D01*
X118376000Y-103593741D01*
X118341376Y-103767812D01*
X118273456Y-103931784D01*
X118174853Y-104079354D01*
X118049354Y-104204853D01*
X117901784Y-104303456D01*
X117737812Y-104371376D01*
X117588512Y-104401073D01*
X117563742Y-104406000D01*
X117386258Y-104406000D01*
X117361488Y-104401073D01*
X117212188Y-104371376D01*
X117048216Y-104303456D01*
X116900646Y-104204853D01*
X116775147Y-104079354D01*
X116676544Y-103931784D01*
X116608624Y-103767812D01*
X116574000Y-103593741D01*
X116574000Y-103416259D01*
X116608624Y-103242188D01*
X116676544Y-103078216D01*
X116775147Y-102930646D01*
X116900646Y-102805147D01*
X117048216Y-102706544D01*
X117212188Y-102638624D01*
X117361488Y-102608927D01*
X117386258Y-102604000D01*
X117563742Y-102604000D01*
X117588512Y-102608927D01*
G37*
G36*
X117588512Y-100068927D02*
G01*
X117737812Y-100098624D01*
X117901784Y-100166544D01*
X118049354Y-100265147D01*
X118174853Y-100390646D01*
X118273456Y-100538216D01*
X118341376Y-100702188D01*
X118376000Y-100876259D01*
X118376000Y-101053741D01*
X118341376Y-101227812D01*
X118273456Y-101391784D01*
X118174853Y-101539354D01*
X118049354Y-101664853D01*
X117901784Y-101763456D01*
X117737812Y-101831376D01*
X117588512Y-101861073D01*
X117563742Y-101866000D01*
X117386258Y-101866000D01*
X117361488Y-101861073D01*
X117212188Y-101831376D01*
X117048216Y-101763456D01*
X116900646Y-101664853D01*
X116775147Y-101539354D01*
X116676544Y-101391784D01*
X116608624Y-101227812D01*
X116574000Y-101053741D01*
X116574000Y-100876259D01*
X116608624Y-100702188D01*
X116676544Y-100538216D01*
X116775147Y-100390646D01*
X116900646Y-100265147D01*
X117048216Y-100166544D01*
X117212188Y-100098624D01*
X117361488Y-100068927D01*
X117386258Y-100064000D01*
X117563742Y-100064000D01*
X117588512Y-100068927D01*
G37*
G36*
X117588512Y-97528927D02*
G01*
X117737812Y-97558624D01*
X117901784Y-97626544D01*
X118049354Y-97725147D01*
X118174853Y-97850646D01*
X118273456Y-97998216D01*
X118341376Y-98162188D01*
X118376000Y-98336259D01*
X118376000Y-98513741D01*
X118341376Y-98687812D01*
X118273456Y-98851784D01*
X118174853Y-98999354D01*
X118049354Y-99124853D01*
X117901784Y-99223456D01*
X117737812Y-99291376D01*
X117588512Y-99321073D01*
X117563742Y-99326000D01*
X117386258Y-99326000D01*
X117361488Y-99321073D01*
X117212188Y-99291376D01*
X117048216Y-99223456D01*
X116900646Y-99124853D01*
X116775147Y-98999354D01*
X116676544Y-98851784D01*
X116608624Y-98687812D01*
X116574000Y-98513741D01*
X116574000Y-98336259D01*
X116608624Y-98162188D01*
X116676544Y-97998216D01*
X116775147Y-97850646D01*
X116900646Y-97725147D01*
X117048216Y-97626544D01*
X117212188Y-97558624D01*
X117361488Y-97528927D01*
X117386258Y-97524000D01*
X117563742Y-97524000D01*
X117588512Y-97528927D01*
G37*
G36*
X146933228Y-96931703D02*
G01*
X147088100Y-96995853D01*
X147227481Y-97088985D01*
X147346015Y-97207519D01*
X147439147Y-97346900D01*
X147503297Y-97501772D01*
X147536000Y-97666184D01*
X147536000Y-97833816D01*
X147503297Y-97998228D01*
X147439147Y-98153100D01*
X147346015Y-98292481D01*
X147227481Y-98411015D01*
X147088100Y-98504147D01*
X146933228Y-98568297D01*
X146768816Y-98601000D01*
X146601184Y-98601000D01*
X146436772Y-98568297D01*
X146281900Y-98504147D01*
X146142519Y-98411015D01*
X146023985Y-98292481D01*
X145930853Y-98153100D01*
X145866703Y-97998228D01*
X145834000Y-97833816D01*
X145834000Y-97666184D01*
X145866703Y-97501772D01*
X145930853Y-97346900D01*
X146023985Y-97207519D01*
X146142519Y-97088985D01*
X146281900Y-96995853D01*
X146436772Y-96931703D01*
X146601184Y-96899000D01*
X146768816Y-96899000D01*
X146933228Y-96931703D01*
G37*
G36*
X118376000Y-96786000D02*
G01*
X116574000Y-96786000D01*
X116574000Y-94984000D01*
X118376000Y-94984000D01*
X118376000Y-96786000D01*
G37*
G36*
X146933228Y-94431703D02*
G01*
X147088100Y-94495853D01*
X147227481Y-94588985D01*
X147346015Y-94707519D01*
X147439147Y-94846900D01*
X147503297Y-95001772D01*
X147536000Y-95166184D01*
X147536000Y-95333816D01*
X147503297Y-95498228D01*
X147439147Y-95653100D01*
X147346015Y-95792481D01*
X147227481Y-95911015D01*
X147088100Y-96004147D01*
X146933228Y-96068297D01*
X146768816Y-96101000D01*
X146601184Y-96101000D01*
X146436772Y-96068297D01*
X146281900Y-96004147D01*
X146142519Y-95911015D01*
X146023985Y-95792481D01*
X145930853Y-95653100D01*
X145866703Y-95498228D01*
X145834000Y-95333816D01*
X145834000Y-95166184D01*
X145866703Y-95001772D01*
X145930853Y-94846900D01*
X146023985Y-94707519D01*
X146142519Y-94588985D01*
X146281900Y-94495853D01*
X146436772Y-94431703D01*
X146601184Y-94399000D01*
X146768816Y-94399000D01*
X146933228Y-94431703D01*
G37*
G36*
X132310295Y-92480323D02*
G01*
X132317309Y-92482451D01*
X132331077Y-92489810D01*
X132353716Y-92499187D01*
X132377749Y-92503967D01*
X132402253Y-92503967D01*
X132426286Y-92499186D01*
X132448923Y-92489810D01*
X132462691Y-92482451D01*
X132469705Y-92480323D01*
X132483140Y-92479000D01*
X132796860Y-92479000D01*
X132810295Y-92480323D01*
X132817309Y-92482451D01*
X132831077Y-92489810D01*
X132853716Y-92499187D01*
X132877749Y-92503967D01*
X132902253Y-92503967D01*
X132926286Y-92499186D01*
X132948923Y-92489810D01*
X132962691Y-92482451D01*
X132969705Y-92480323D01*
X132983140Y-92479000D01*
X133296860Y-92479000D01*
X133310295Y-92480323D01*
X133317309Y-92482451D01*
X133331077Y-92489810D01*
X133353716Y-92499187D01*
X133377749Y-92503967D01*
X133402253Y-92503967D01*
X133426286Y-92499186D01*
X133448923Y-92489810D01*
X133462691Y-92482451D01*
X133469705Y-92480323D01*
X133483140Y-92479000D01*
X133796860Y-92479000D01*
X133810295Y-92480323D01*
X133817309Y-92482451D01*
X133831077Y-92489810D01*
X133853716Y-92499187D01*
X133877749Y-92503967D01*
X133902253Y-92503967D01*
X133926286Y-92499186D01*
X133948923Y-92489810D01*
X133962691Y-92482451D01*
X133969705Y-92480323D01*
X133983140Y-92479000D01*
X134296860Y-92479000D01*
X134310295Y-92480323D01*
X134317309Y-92482451D01*
X134331077Y-92489810D01*
X134353716Y-92499187D01*
X134377749Y-92503967D01*
X134402253Y-92503967D01*
X134426286Y-92499186D01*
X134448923Y-92489810D01*
X134462691Y-92482451D01*
X134469705Y-92480323D01*
X134483140Y-92479000D01*
X134796860Y-92479000D01*
X134810295Y-92480323D01*
X134817309Y-92482451D01*
X134831077Y-92489810D01*
X134853716Y-92499187D01*
X134877749Y-92503967D01*
X134902253Y-92503967D01*
X134926286Y-92499186D01*
X134948923Y-92489810D01*
X134962691Y-92482451D01*
X134969705Y-92480323D01*
X134983140Y-92479000D01*
X135296860Y-92479000D01*
X135310295Y-92480323D01*
X135317309Y-92482451D01*
X135331077Y-92489810D01*
X135353716Y-92499187D01*
X135377749Y-92503967D01*
X135402253Y-92503967D01*
X135426286Y-92499186D01*
X135448923Y-92489810D01*
X135462691Y-92482451D01*
X135469705Y-92480323D01*
X135483140Y-92479000D01*
X135796860Y-92479000D01*
X135810295Y-92480323D01*
X135817309Y-92482451D01*
X135831077Y-92489810D01*
X135853716Y-92499187D01*
X135877749Y-92503967D01*
X135902253Y-92503967D01*
X135926286Y-92499186D01*
X135948923Y-92489810D01*
X135962691Y-92482451D01*
X135969705Y-92480323D01*
X135983140Y-92479000D01*
X136296860Y-92479000D01*
X136310295Y-92480323D01*
X136317309Y-92482451D01*
X136331077Y-92489810D01*
X136353716Y-92499187D01*
X136377749Y-92503967D01*
X136402253Y-92503967D01*
X136426286Y-92499186D01*
X136448923Y-92489810D01*
X136462691Y-92482451D01*
X136469705Y-92480323D01*
X136483140Y-92479000D01*
X136796860Y-92479000D01*
X136810295Y-92480323D01*
X136817309Y-92482451D01*
X136831077Y-92489810D01*
X136853716Y-92499187D01*
X136877749Y-92503967D01*
X136902253Y-92503967D01*
X136926286Y-92499186D01*
X136948923Y-92489810D01*
X136962691Y-92482451D01*
X136969705Y-92480323D01*
X136983140Y-92479000D01*
X137296860Y-92479000D01*
X137310295Y-92480323D01*
X137317309Y-92482451D01*
X137331077Y-92489810D01*
X137353716Y-92499187D01*
X137377749Y-92503967D01*
X137402253Y-92503967D01*
X137426286Y-92499186D01*
X137448923Y-92489810D01*
X137462691Y-92482451D01*
X137469705Y-92480323D01*
X137483140Y-92479000D01*
X137796860Y-92479000D01*
X137810295Y-92480323D01*
X137817309Y-92482451D01*
X137831077Y-92489810D01*
X137853716Y-92499187D01*
X137877749Y-92503967D01*
X137902253Y-92503967D01*
X137926286Y-92499186D01*
X137948923Y-92489810D01*
X137962691Y-92482451D01*
X137969705Y-92480323D01*
X137983140Y-92479000D01*
X138296860Y-92479000D01*
X138310295Y-92480323D01*
X138317309Y-92482451D01*
X138331077Y-92489810D01*
X138353716Y-92499187D01*
X138377749Y-92503967D01*
X138402253Y-92503967D01*
X138426286Y-92499186D01*
X138448923Y-92489810D01*
X138462691Y-92482451D01*
X138469705Y-92480323D01*
X138483140Y-92479000D01*
X138796860Y-92479000D01*
X138810295Y-92480323D01*
X138817309Y-92482451D01*
X138831077Y-92489810D01*
X138853716Y-92499187D01*
X138877749Y-92503967D01*
X138902253Y-92503967D01*
X138926286Y-92499186D01*
X138948923Y-92489810D01*
X138962691Y-92482451D01*
X138969705Y-92480323D01*
X138983140Y-92479000D01*
X139296860Y-92479000D01*
X139310295Y-92480323D01*
X139317309Y-92482451D01*
X139331077Y-92489810D01*
X139353716Y-92499187D01*
X139377749Y-92503967D01*
X139402253Y-92503967D01*
X139426286Y-92499186D01*
X139448923Y-92489810D01*
X139462691Y-92482451D01*
X139469705Y-92480323D01*
X139483140Y-92479000D01*
X139796860Y-92479000D01*
X139810295Y-92480323D01*
X139817310Y-92482451D01*
X139823776Y-92485908D01*
X139829442Y-92490558D01*
X139834092Y-92496224D01*
X139837549Y-92502690D01*
X139839677Y-92509705D01*
X139841000Y-92523140D01*
X139841000Y-94086860D01*
X139839677Y-94100295D01*
X139837549Y-94107310D01*
X139834092Y-94113776D01*
X139829442Y-94119442D01*
X139823776Y-94124092D01*
X139817310Y-94127549D01*
X139810295Y-94129677D01*
X139796860Y-94131000D01*
X139483140Y-94131000D01*
X139469705Y-94129677D01*
X139462691Y-94127549D01*
X139448923Y-94120190D01*
X139426284Y-94110813D01*
X139402251Y-94106033D01*
X139377747Y-94106033D01*
X139353714Y-94110814D01*
X139331077Y-94120190D01*
X139317309Y-94127549D01*
X139310295Y-94129677D01*
X139296860Y-94131000D01*
X138983140Y-94131000D01*
X138969705Y-94129677D01*
X138962691Y-94127549D01*
X138948923Y-94120190D01*
X138926284Y-94110813D01*
X138902251Y-94106033D01*
X138877747Y-94106033D01*
X138853714Y-94110814D01*
X138831077Y-94120190D01*
X138817309Y-94127549D01*
X138810295Y-94129677D01*
X138796860Y-94131000D01*
X138483140Y-94131000D01*
X138469705Y-94129677D01*
X138462691Y-94127549D01*
X138448923Y-94120190D01*
X138426284Y-94110813D01*
X138402251Y-94106033D01*
X138377747Y-94106033D01*
X138353714Y-94110814D01*
X138331077Y-94120190D01*
X138317309Y-94127549D01*
X138310295Y-94129677D01*
X138296860Y-94131000D01*
X137983140Y-94131000D01*
X137969705Y-94129677D01*
X137962691Y-94127549D01*
X137948923Y-94120190D01*
X137926284Y-94110813D01*
X137902251Y-94106033D01*
X137877747Y-94106033D01*
X137853714Y-94110814D01*
X137831077Y-94120190D01*
X137817309Y-94127549D01*
X137810295Y-94129677D01*
X137796860Y-94131000D01*
X137483140Y-94131000D01*
X137469705Y-94129677D01*
X137462691Y-94127549D01*
X137448923Y-94120190D01*
X137426284Y-94110813D01*
X137402251Y-94106033D01*
X137377747Y-94106033D01*
X137353714Y-94110814D01*
X137331077Y-94120190D01*
X137317309Y-94127549D01*
X137310295Y-94129677D01*
X137296860Y-94131000D01*
X136983140Y-94131000D01*
X136969705Y-94129677D01*
X136962691Y-94127549D01*
X136948923Y-94120190D01*
X136926284Y-94110813D01*
X136902251Y-94106033D01*
X136877747Y-94106033D01*
X136853714Y-94110814D01*
X136831077Y-94120190D01*
X136817309Y-94127549D01*
X136810295Y-94129677D01*
X136796860Y-94131000D01*
X136483140Y-94131000D01*
X136469705Y-94129677D01*
X136462691Y-94127549D01*
X136448923Y-94120190D01*
X136426284Y-94110813D01*
X136402251Y-94106033D01*
X136377747Y-94106033D01*
X136353714Y-94110814D01*
X136331077Y-94120190D01*
X136317309Y-94127549D01*
X136310295Y-94129677D01*
X136296860Y-94131000D01*
X135983140Y-94131000D01*
X135969705Y-94129677D01*
X135962691Y-94127549D01*
X135948923Y-94120190D01*
X135926284Y-94110813D01*
X135902251Y-94106033D01*
X135877747Y-94106033D01*
X135853714Y-94110814D01*
X135831077Y-94120190D01*
X135817309Y-94127549D01*
X135810295Y-94129677D01*
X135796860Y-94131000D01*
X135483140Y-94131000D01*
X135469705Y-94129677D01*
X135462691Y-94127549D01*
X135448923Y-94120190D01*
X135426284Y-94110813D01*
X135402251Y-94106033D01*
X135377747Y-94106033D01*
X135353714Y-94110814D01*
X135331077Y-94120190D01*
X135317309Y-94127549D01*
X135310295Y-94129677D01*
X135296860Y-94131000D01*
X134983140Y-94131000D01*
X134969705Y-94129677D01*
X134962691Y-94127549D01*
X134948923Y-94120190D01*
X134926284Y-94110813D01*
X134902251Y-94106033D01*
X134877747Y-94106033D01*
X134853714Y-94110814D01*
X134831077Y-94120190D01*
X134817309Y-94127549D01*
X134810295Y-94129677D01*
X134796860Y-94131000D01*
X134483140Y-94131000D01*
X134469705Y-94129677D01*
X134462691Y-94127549D01*
X134448923Y-94120190D01*
X134426284Y-94110813D01*
X134402251Y-94106033D01*
X134377747Y-94106033D01*
X134353714Y-94110814D01*
X134331077Y-94120190D01*
X134317309Y-94127549D01*
X134310295Y-94129677D01*
X134296860Y-94131000D01*
X133983140Y-94131000D01*
X133969705Y-94129677D01*
X133962691Y-94127549D01*
X133948923Y-94120190D01*
X133926284Y-94110813D01*
X133902251Y-94106033D01*
X133877747Y-94106033D01*
X133853714Y-94110814D01*
X133831077Y-94120190D01*
X133817309Y-94127549D01*
X133810295Y-94129677D01*
X133796860Y-94131000D01*
X133483140Y-94131000D01*
X133469705Y-94129677D01*
X133462691Y-94127549D01*
X133448923Y-94120190D01*
X133426284Y-94110813D01*
X133402251Y-94106033D01*
X133377747Y-94106033D01*
X133353714Y-94110814D01*
X133331077Y-94120190D01*
X133317309Y-94127549D01*
X133310295Y-94129677D01*
X133296860Y-94131000D01*
X132983140Y-94131000D01*
X132969705Y-94129677D01*
X132962691Y-94127549D01*
X132948923Y-94120190D01*
X132926284Y-94110813D01*
X132902251Y-94106033D01*
X132877747Y-94106033D01*
X132853714Y-94110814D01*
X132831077Y-94120190D01*
X132817309Y-94127549D01*
X132810295Y-94129677D01*
X132796860Y-94131000D01*
X132483140Y-94131000D01*
X132469705Y-94129677D01*
X132462691Y-94127549D01*
X132448923Y-94120190D01*
X132426284Y-94110813D01*
X132402251Y-94106033D01*
X132377747Y-94106033D01*
X132353714Y-94110814D01*
X132331077Y-94120190D01*
X132317309Y-94127549D01*
X132310295Y-94129677D01*
X132296860Y-94131000D01*
X131983140Y-94131000D01*
X131969705Y-94129677D01*
X131962690Y-94127549D01*
X131956224Y-94124092D01*
X131950558Y-94119442D01*
X131945908Y-94113776D01*
X131942451Y-94107310D01*
X131940323Y-94100295D01*
X131939000Y-94086860D01*
X131939000Y-92523140D01*
X131940323Y-92509705D01*
X131942451Y-92502690D01*
X131945908Y-92496224D01*
X131950558Y-92490558D01*
X131956224Y-92485908D01*
X131962690Y-92482451D01*
X131969705Y-92480323D01*
X131983140Y-92479000D01*
X132296860Y-92479000D01*
X132310295Y-92480323D01*
G37*
G36*
X180453512Y-91813927D02*
G01*
X180602812Y-91843624D01*
X180766784Y-91911544D01*
X180914354Y-92010147D01*
X181039853Y-92135646D01*
X181138456Y-92283216D01*
X181206376Y-92447188D01*
X181241000Y-92621259D01*
X181241000Y-92798741D01*
X181206376Y-92972812D01*
X181138456Y-93136784D01*
X181039853Y-93284354D01*
X180914354Y-93409853D01*
X180766784Y-93508456D01*
X180602812Y-93576376D01*
X180453512Y-93606073D01*
X180428742Y-93611000D01*
X180251258Y-93611000D01*
X180226488Y-93606073D01*
X180077188Y-93576376D01*
X179913216Y-93508456D01*
X179765646Y-93409853D01*
X179640147Y-93284354D01*
X179541544Y-93136784D01*
X179473624Y-92972812D01*
X179439000Y-92798741D01*
X179439000Y-92621259D01*
X179473624Y-92447188D01*
X179541544Y-92283216D01*
X179640147Y-92135646D01*
X179765646Y-92010147D01*
X179913216Y-91911544D01*
X180077188Y-91843624D01*
X180226488Y-91813927D01*
X180251258Y-91809000D01*
X180428742Y-91809000D01*
X180453512Y-91813927D01*
G37*
G36*
X142360295Y-83680323D02*
G01*
X142367310Y-83682451D01*
X142373776Y-83685908D01*
X142379442Y-83690558D01*
X142384092Y-83696224D01*
X142387549Y-83702690D01*
X142389677Y-83709705D01*
X142391000Y-83723140D01*
X142391000Y-84036860D01*
X142389677Y-84050295D01*
X142387549Y-84057309D01*
X142380190Y-84071077D01*
X142370813Y-84093716D01*
X142366033Y-84117749D01*
X142366033Y-84142253D01*
X142370814Y-84166286D01*
X142380190Y-84188923D01*
X142387549Y-84202691D01*
X142389677Y-84209705D01*
X142391000Y-84223140D01*
X142391000Y-84536860D01*
X142389677Y-84550295D01*
X142387549Y-84557309D01*
X142380190Y-84571077D01*
X142370813Y-84593716D01*
X142366033Y-84617749D01*
X142366033Y-84642253D01*
X142370814Y-84666286D01*
X142380190Y-84688923D01*
X142387549Y-84702691D01*
X142389677Y-84709705D01*
X142391000Y-84723140D01*
X142391000Y-85036860D01*
X142389677Y-85050295D01*
X142387549Y-85057309D01*
X142380190Y-85071077D01*
X142370813Y-85093716D01*
X142366033Y-85117749D01*
X142366033Y-85142253D01*
X142370814Y-85166286D01*
X142380190Y-85188923D01*
X142387549Y-85202691D01*
X142389677Y-85209705D01*
X142391000Y-85223140D01*
X142391000Y-85536860D01*
X142389677Y-85550295D01*
X142387549Y-85557309D01*
X142380190Y-85571077D01*
X142370813Y-85593716D01*
X142366033Y-85617749D01*
X142366033Y-85642253D01*
X142370814Y-85666286D01*
X142380190Y-85688923D01*
X142387549Y-85702691D01*
X142389677Y-85709705D01*
X142391000Y-85723140D01*
X142391000Y-86036860D01*
X142389677Y-86050295D01*
X142387549Y-86057309D01*
X142380190Y-86071077D01*
X142370813Y-86093716D01*
X142366033Y-86117749D01*
X142366033Y-86142253D01*
X142370814Y-86166286D01*
X142380190Y-86188923D01*
X142387549Y-86202691D01*
X142389677Y-86209705D01*
X142391000Y-86223140D01*
X142391000Y-86536860D01*
X142389677Y-86550295D01*
X142387549Y-86557309D01*
X142380190Y-86571077D01*
X142370813Y-86593716D01*
X142366033Y-86617749D01*
X142366033Y-86642253D01*
X142370814Y-86666286D01*
X142380190Y-86688923D01*
X142387549Y-86702691D01*
X142389677Y-86709705D01*
X142391000Y-86723140D01*
X142391000Y-87036860D01*
X142389677Y-87050295D01*
X142387549Y-87057309D01*
X142380190Y-87071077D01*
X142370813Y-87093716D01*
X142366033Y-87117749D01*
X142366033Y-87142253D01*
X142370814Y-87166286D01*
X142380190Y-87188923D01*
X142387549Y-87202691D01*
X142389677Y-87209705D01*
X142391000Y-87223140D01*
X142391000Y-87536860D01*
X142389677Y-87550295D01*
X142387549Y-87557309D01*
X142380190Y-87571077D01*
X142370813Y-87593716D01*
X142366033Y-87617749D01*
X142366033Y-87642253D01*
X142370814Y-87666286D01*
X142380190Y-87688923D01*
X142387549Y-87702691D01*
X142389677Y-87709705D01*
X142391000Y-87723140D01*
X142391000Y-88036860D01*
X142389677Y-88050295D01*
X142387549Y-88057309D01*
X142380190Y-88071077D01*
X142370813Y-88093716D01*
X142366033Y-88117749D01*
X142366033Y-88142253D01*
X142370814Y-88166286D01*
X142380190Y-88188923D01*
X142387549Y-88202691D01*
X142389677Y-88209705D01*
X142391000Y-88223140D01*
X142391000Y-88536860D01*
X142389677Y-88550295D01*
X142387549Y-88557309D01*
X142380190Y-88571077D01*
X142370813Y-88593716D01*
X142366033Y-88617749D01*
X142366033Y-88642253D01*
X142370814Y-88666286D01*
X142380190Y-88688923D01*
X142387549Y-88702691D01*
X142389677Y-88709705D01*
X142391000Y-88723140D01*
X142391000Y-89036860D01*
X142389677Y-89050295D01*
X142387549Y-89057309D01*
X142380190Y-89071077D01*
X142370813Y-89093716D01*
X142366033Y-89117749D01*
X142366033Y-89142253D01*
X142370814Y-89166286D01*
X142380190Y-89188923D01*
X142387549Y-89202691D01*
X142389677Y-89209705D01*
X142391000Y-89223140D01*
X142391000Y-89536860D01*
X142389677Y-89550295D01*
X142387549Y-89557309D01*
X142380190Y-89571077D01*
X142370813Y-89593716D01*
X142366033Y-89617749D01*
X142366033Y-89642253D01*
X142370814Y-89666286D01*
X142380190Y-89688923D01*
X142387549Y-89702691D01*
X142389677Y-89709705D01*
X142391000Y-89723140D01*
X142391000Y-90036860D01*
X142389677Y-90050295D01*
X142387549Y-90057309D01*
X142380190Y-90071077D01*
X142370813Y-90093716D01*
X142366033Y-90117749D01*
X142366033Y-90142253D01*
X142370814Y-90166286D01*
X142380190Y-90188923D01*
X142387549Y-90202691D01*
X142389677Y-90209705D01*
X142391000Y-90223140D01*
X142391000Y-90536860D01*
X142389677Y-90550295D01*
X142387549Y-90557309D01*
X142380190Y-90571077D01*
X142370813Y-90593716D01*
X142366033Y-90617749D01*
X142366033Y-90642253D01*
X142370814Y-90666286D01*
X142380190Y-90688923D01*
X142387549Y-90702691D01*
X142389677Y-90709705D01*
X142391000Y-90723140D01*
X142391000Y-91036860D01*
X142389677Y-91050295D01*
X142387549Y-91057309D01*
X142380190Y-91071077D01*
X142370813Y-91093716D01*
X142366033Y-91117749D01*
X142366033Y-91142253D01*
X142370814Y-91166286D01*
X142380190Y-91188923D01*
X142387549Y-91202691D01*
X142389677Y-91209705D01*
X142391000Y-91223140D01*
X142391000Y-91536860D01*
X142389677Y-91550295D01*
X142387549Y-91557310D01*
X142384092Y-91563776D01*
X142379442Y-91569442D01*
X142373776Y-91574092D01*
X142367310Y-91577549D01*
X142360295Y-91579677D01*
X142346860Y-91581000D01*
X140783140Y-91581000D01*
X140769705Y-91579677D01*
X140762690Y-91577549D01*
X140756224Y-91574092D01*
X140750558Y-91569442D01*
X140745908Y-91563776D01*
X140742451Y-91557310D01*
X140740323Y-91550295D01*
X140739000Y-91536860D01*
X140739000Y-91223140D01*
X140740323Y-91209705D01*
X140742451Y-91202691D01*
X140749810Y-91188923D01*
X140759187Y-91166284D01*
X140763967Y-91142251D01*
X140763967Y-91117747D01*
X140759186Y-91093714D01*
X140749810Y-91071077D01*
X140742451Y-91057309D01*
X140740323Y-91050295D01*
X140739000Y-91036860D01*
X140739000Y-90723140D01*
X140740323Y-90709705D01*
X140742451Y-90702691D01*
X140749810Y-90688923D01*
X140759187Y-90666284D01*
X140763967Y-90642251D01*
X140763967Y-90617747D01*
X140759186Y-90593714D01*
X140749810Y-90571077D01*
X140742451Y-90557309D01*
X140740323Y-90550295D01*
X140739000Y-90536860D01*
X140739000Y-90223140D01*
X140740323Y-90209705D01*
X140742451Y-90202691D01*
X140749810Y-90188923D01*
X140759187Y-90166284D01*
X140763967Y-90142251D01*
X140763967Y-90117747D01*
X140759186Y-90093714D01*
X140749810Y-90071077D01*
X140742451Y-90057309D01*
X140740323Y-90050295D01*
X140739000Y-90036860D01*
X140739000Y-89723140D01*
X140740323Y-89709705D01*
X140742451Y-89702691D01*
X140749810Y-89688923D01*
X140759187Y-89666284D01*
X140763967Y-89642251D01*
X140763967Y-89617747D01*
X140759186Y-89593714D01*
X140749810Y-89571077D01*
X140742451Y-89557309D01*
X140740323Y-89550295D01*
X140739000Y-89536860D01*
X140739000Y-89223140D01*
X140740323Y-89209705D01*
X140742451Y-89202691D01*
X140749810Y-89188923D01*
X140759187Y-89166284D01*
X140763967Y-89142251D01*
X140763967Y-89117747D01*
X140759186Y-89093714D01*
X140749810Y-89071077D01*
X140742451Y-89057309D01*
X140740323Y-89050295D01*
X140739000Y-89036860D01*
X140739000Y-88723140D01*
X140740323Y-88709705D01*
X140742451Y-88702691D01*
X140749810Y-88688923D01*
X140759187Y-88666284D01*
X140763967Y-88642251D01*
X140763967Y-88617747D01*
X140759186Y-88593714D01*
X140749810Y-88571077D01*
X140742451Y-88557309D01*
X140740323Y-88550295D01*
X140739000Y-88536860D01*
X140739000Y-88223140D01*
X140740323Y-88209705D01*
X140742451Y-88202691D01*
X140749810Y-88188923D01*
X140759187Y-88166284D01*
X140763967Y-88142251D01*
X140763967Y-88117747D01*
X140759186Y-88093714D01*
X140749810Y-88071077D01*
X140742451Y-88057309D01*
X140740323Y-88050295D01*
X140739000Y-88036860D01*
X140739000Y-87723140D01*
X140740323Y-87709705D01*
X140742451Y-87702691D01*
X140749810Y-87688923D01*
X140759187Y-87666284D01*
X140763967Y-87642251D01*
X140763967Y-87617747D01*
X140759186Y-87593714D01*
X140749810Y-87571077D01*
X140742451Y-87557309D01*
X140740323Y-87550295D01*
X140739000Y-87536860D01*
X140739000Y-87223140D01*
X140740323Y-87209705D01*
X140742451Y-87202691D01*
X140749810Y-87188923D01*
X140759187Y-87166284D01*
X140763967Y-87142251D01*
X140763967Y-87117747D01*
X140759186Y-87093714D01*
X140749810Y-87071077D01*
X140742451Y-87057309D01*
X140740323Y-87050295D01*
X140739000Y-87036860D01*
X140739000Y-86723140D01*
X140740323Y-86709705D01*
X140742451Y-86702691D01*
X140749810Y-86688923D01*
X140759187Y-86666284D01*
X140763967Y-86642251D01*
X140763967Y-86617747D01*
X140759186Y-86593714D01*
X140749810Y-86571077D01*
X140742451Y-86557309D01*
X140740323Y-86550295D01*
X140739000Y-86536860D01*
X140739000Y-86223140D01*
X140740323Y-86209705D01*
X140742451Y-86202691D01*
X140749810Y-86188923D01*
X140759187Y-86166284D01*
X140763967Y-86142251D01*
X140763967Y-86117747D01*
X140759186Y-86093714D01*
X140749810Y-86071077D01*
X140742451Y-86057309D01*
X140740323Y-86050295D01*
X140739000Y-86036860D01*
X140739000Y-85723140D01*
X140740323Y-85709705D01*
X140742451Y-85702691D01*
X140749810Y-85688923D01*
X140759187Y-85666284D01*
X140763967Y-85642251D01*
X140763967Y-85617747D01*
X140759186Y-85593714D01*
X140749810Y-85571077D01*
X140742451Y-85557309D01*
X140740323Y-85550295D01*
X140739000Y-85536860D01*
X140739000Y-85223140D01*
X140740323Y-85209705D01*
X140742451Y-85202691D01*
X140749810Y-85188923D01*
X140759187Y-85166284D01*
X140763967Y-85142251D01*
X140763967Y-85117747D01*
X140759186Y-85093714D01*
X140749810Y-85071077D01*
X140742451Y-85057309D01*
X140740323Y-85050295D01*
X140739000Y-85036860D01*
X140739000Y-84723140D01*
X140740323Y-84709705D01*
X140742451Y-84702691D01*
X140749810Y-84688923D01*
X140759187Y-84666284D01*
X140763967Y-84642251D01*
X140763967Y-84617747D01*
X140759186Y-84593714D01*
X140749810Y-84571077D01*
X140742451Y-84557309D01*
X140740323Y-84550295D01*
X140739000Y-84536860D01*
X140739000Y-84223140D01*
X140740323Y-84209705D01*
X140742451Y-84202691D01*
X140749810Y-84188923D01*
X140759187Y-84166284D01*
X140763967Y-84142251D01*
X140763967Y-84117747D01*
X140759186Y-84093714D01*
X140749810Y-84071077D01*
X140742451Y-84057309D01*
X140740323Y-84050295D01*
X140739000Y-84036860D01*
X140739000Y-83723140D01*
X140740323Y-83709705D01*
X140742451Y-83702690D01*
X140745908Y-83696224D01*
X140750558Y-83690558D01*
X140756224Y-83685908D01*
X140762690Y-83682451D01*
X140769705Y-83680323D01*
X140783140Y-83679000D01*
X142346860Y-83679000D01*
X142360295Y-83680323D01*
G37*
G36*
X131010295Y-83680323D02*
G01*
X131017310Y-83682451D01*
X131023776Y-83685908D01*
X131029442Y-83690558D01*
X131034092Y-83696224D01*
X131037549Y-83702690D01*
X131039677Y-83709705D01*
X131041000Y-83723140D01*
X131041000Y-84036860D01*
X131039677Y-84050295D01*
X131037549Y-84057309D01*
X131030190Y-84071077D01*
X131020813Y-84093716D01*
X131016033Y-84117749D01*
X131016033Y-84142253D01*
X131020814Y-84166286D01*
X131030190Y-84188923D01*
X131037549Y-84202691D01*
X131039677Y-84209705D01*
X131041000Y-84223140D01*
X131041000Y-84536860D01*
X131039677Y-84550295D01*
X131037549Y-84557309D01*
X131030190Y-84571077D01*
X131020813Y-84593716D01*
X131016033Y-84617749D01*
X131016033Y-84642253D01*
X131020814Y-84666286D01*
X131030190Y-84688923D01*
X131037549Y-84702691D01*
X131039677Y-84709705D01*
X131041000Y-84723140D01*
X131041000Y-85036860D01*
X131039677Y-85050295D01*
X131037549Y-85057309D01*
X131030190Y-85071077D01*
X131020813Y-85093716D01*
X131016033Y-85117749D01*
X131016033Y-85142253D01*
X131020814Y-85166286D01*
X131030190Y-85188923D01*
X131037549Y-85202691D01*
X131039677Y-85209705D01*
X131041000Y-85223140D01*
X131041000Y-85536860D01*
X131039677Y-85550295D01*
X131037549Y-85557309D01*
X131030190Y-85571077D01*
X131020813Y-85593716D01*
X131016033Y-85617749D01*
X131016033Y-85642253D01*
X131020814Y-85666286D01*
X131030190Y-85688923D01*
X131037549Y-85702691D01*
X131039677Y-85709705D01*
X131041000Y-85723140D01*
X131041000Y-86036860D01*
X131039677Y-86050295D01*
X131037549Y-86057309D01*
X131030190Y-86071077D01*
X131020813Y-86093716D01*
X131016033Y-86117749D01*
X131016033Y-86142253D01*
X131020814Y-86166286D01*
X131030190Y-86188923D01*
X131037549Y-86202691D01*
X131039677Y-86209705D01*
X131041000Y-86223140D01*
X131041000Y-86536860D01*
X131039677Y-86550295D01*
X131037549Y-86557309D01*
X131030190Y-86571077D01*
X131020813Y-86593716D01*
X131016033Y-86617749D01*
X131016033Y-86642253D01*
X131020814Y-86666286D01*
X131030190Y-86688923D01*
X131037549Y-86702691D01*
X131039677Y-86709705D01*
X131041000Y-86723140D01*
X131041000Y-87036860D01*
X131039677Y-87050295D01*
X131037549Y-87057309D01*
X131030190Y-87071077D01*
X131020813Y-87093716D01*
X131016033Y-87117749D01*
X131016033Y-87142253D01*
X131020814Y-87166286D01*
X131030190Y-87188923D01*
X131037549Y-87202691D01*
X131039677Y-87209705D01*
X131041000Y-87223140D01*
X131041000Y-87536860D01*
X131039677Y-87550295D01*
X131037549Y-87557309D01*
X131030190Y-87571077D01*
X131020813Y-87593716D01*
X131016033Y-87617749D01*
X131016033Y-87642253D01*
X131020814Y-87666286D01*
X131030190Y-87688923D01*
X131037549Y-87702691D01*
X131039677Y-87709705D01*
X131041000Y-87723140D01*
X131041000Y-88036860D01*
X131039677Y-88050295D01*
X131037549Y-88057309D01*
X131030190Y-88071077D01*
X131020813Y-88093716D01*
X131016033Y-88117749D01*
X131016033Y-88142253D01*
X131020814Y-88166286D01*
X131030190Y-88188923D01*
X131037549Y-88202691D01*
X131039677Y-88209705D01*
X131041000Y-88223140D01*
X131041000Y-88536860D01*
X131039677Y-88550295D01*
X131037549Y-88557309D01*
X131030190Y-88571077D01*
X131020813Y-88593716D01*
X131016033Y-88617749D01*
X131016033Y-88642253D01*
X131020814Y-88666286D01*
X131030190Y-88688923D01*
X131037549Y-88702691D01*
X131039677Y-88709705D01*
X131041000Y-88723140D01*
X131041000Y-89036860D01*
X131039677Y-89050295D01*
X131037549Y-89057309D01*
X131030190Y-89071077D01*
X131020813Y-89093716D01*
X131016033Y-89117749D01*
X131016033Y-89142253D01*
X131020814Y-89166286D01*
X131030190Y-89188923D01*
X131037549Y-89202691D01*
X131039677Y-89209705D01*
X131041000Y-89223140D01*
X131041000Y-89536860D01*
X131039677Y-89550295D01*
X131037549Y-89557309D01*
X131030190Y-89571077D01*
X131020813Y-89593716D01*
X131016033Y-89617749D01*
X131016033Y-89642253D01*
X131020814Y-89666286D01*
X131030190Y-89688923D01*
X131037549Y-89702691D01*
X131039677Y-89709705D01*
X131041000Y-89723140D01*
X131041000Y-90036860D01*
X131039677Y-90050295D01*
X131037549Y-90057309D01*
X131030190Y-90071077D01*
X131020813Y-90093716D01*
X131016033Y-90117749D01*
X131016033Y-90142253D01*
X131020814Y-90166286D01*
X131030190Y-90188923D01*
X131037549Y-90202691D01*
X131039677Y-90209705D01*
X131041000Y-90223140D01*
X131041000Y-90536860D01*
X131039677Y-90550295D01*
X131037549Y-90557309D01*
X131030190Y-90571077D01*
X131020813Y-90593716D01*
X131016033Y-90617749D01*
X131016033Y-90642253D01*
X131020814Y-90666286D01*
X131030190Y-90688923D01*
X131037549Y-90702691D01*
X131039677Y-90709705D01*
X131041000Y-90723140D01*
X131041000Y-91036860D01*
X131039677Y-91050295D01*
X131037549Y-91057309D01*
X131030190Y-91071077D01*
X131020813Y-91093716D01*
X131016033Y-91117749D01*
X131016033Y-91142253D01*
X131020814Y-91166286D01*
X131030190Y-91188923D01*
X131037549Y-91202691D01*
X131039677Y-91209705D01*
X131041000Y-91223140D01*
X131041000Y-91536860D01*
X131039677Y-91550295D01*
X131037549Y-91557310D01*
X131034092Y-91563776D01*
X131029442Y-91569442D01*
X131023776Y-91574092D01*
X131017310Y-91577549D01*
X131010295Y-91579677D01*
X130996860Y-91581000D01*
X129433140Y-91581000D01*
X129419705Y-91579677D01*
X129412690Y-91577549D01*
X129406224Y-91574092D01*
X129400558Y-91569442D01*
X129395908Y-91563776D01*
X129392451Y-91557310D01*
X129390323Y-91550295D01*
X129389000Y-91536860D01*
X129389000Y-91223140D01*
X129390323Y-91209705D01*
X129392451Y-91202691D01*
X129399810Y-91188923D01*
X129409187Y-91166284D01*
X129413967Y-91142251D01*
X129413967Y-91117747D01*
X129409186Y-91093714D01*
X129399810Y-91071077D01*
X129392451Y-91057309D01*
X129390323Y-91050295D01*
X129389000Y-91036860D01*
X129389000Y-90723140D01*
X129390323Y-90709705D01*
X129392451Y-90702691D01*
X129399810Y-90688923D01*
X129409187Y-90666284D01*
X129413967Y-90642251D01*
X129413967Y-90617747D01*
X129409186Y-90593714D01*
X129399810Y-90571077D01*
X129392451Y-90557309D01*
X129390323Y-90550295D01*
X129389000Y-90536860D01*
X129389000Y-90223140D01*
X129390323Y-90209705D01*
X129392451Y-90202691D01*
X129399810Y-90188923D01*
X129409187Y-90166284D01*
X129413967Y-90142251D01*
X129413967Y-90117747D01*
X129409186Y-90093714D01*
X129399810Y-90071077D01*
X129392451Y-90057309D01*
X129390323Y-90050295D01*
X129389000Y-90036860D01*
X129389000Y-89723140D01*
X129390323Y-89709705D01*
X129392451Y-89702691D01*
X129399810Y-89688923D01*
X129409187Y-89666284D01*
X129413967Y-89642251D01*
X129413967Y-89617747D01*
X129409186Y-89593714D01*
X129399810Y-89571077D01*
X129392451Y-89557309D01*
X129390323Y-89550295D01*
X129389000Y-89536860D01*
X129389000Y-89223140D01*
X129390323Y-89209705D01*
X129392451Y-89202691D01*
X129399810Y-89188923D01*
X129409187Y-89166284D01*
X129413967Y-89142251D01*
X129413967Y-89117747D01*
X129409186Y-89093714D01*
X129399810Y-89071077D01*
X129392451Y-89057309D01*
X129390323Y-89050295D01*
X129389000Y-89036860D01*
X129389000Y-88723140D01*
X129390323Y-88709705D01*
X129392451Y-88702691D01*
X129399810Y-88688923D01*
X129409187Y-88666284D01*
X129413967Y-88642251D01*
X129413967Y-88617747D01*
X129409186Y-88593714D01*
X129399810Y-88571077D01*
X129392451Y-88557309D01*
X129390323Y-88550295D01*
X129389000Y-88536860D01*
X129389000Y-88223140D01*
X129390323Y-88209705D01*
X129392451Y-88202691D01*
X129399810Y-88188923D01*
X129409187Y-88166284D01*
X129413967Y-88142251D01*
X129413967Y-88117747D01*
X129409186Y-88093714D01*
X129399810Y-88071077D01*
X129392451Y-88057309D01*
X129390323Y-88050295D01*
X129389000Y-88036860D01*
X129389000Y-87723140D01*
X129390323Y-87709705D01*
X129392451Y-87702691D01*
X129399810Y-87688923D01*
X129409187Y-87666284D01*
X129413967Y-87642251D01*
X129413967Y-87617747D01*
X129409186Y-87593714D01*
X129399810Y-87571077D01*
X129392451Y-87557309D01*
X129390323Y-87550295D01*
X129389000Y-87536860D01*
X129389000Y-87223140D01*
X129390323Y-87209705D01*
X129392451Y-87202691D01*
X129399810Y-87188923D01*
X129409187Y-87166284D01*
X129413967Y-87142251D01*
X129413967Y-87117747D01*
X129409186Y-87093714D01*
X129399810Y-87071077D01*
X129392451Y-87057309D01*
X129390323Y-87050295D01*
X129389000Y-87036860D01*
X129389000Y-86723140D01*
X129390323Y-86709705D01*
X129392451Y-86702691D01*
X129399810Y-86688923D01*
X129409187Y-86666284D01*
X129413967Y-86642251D01*
X129413967Y-86617747D01*
X129409186Y-86593714D01*
X129399810Y-86571077D01*
X129392451Y-86557309D01*
X129390323Y-86550295D01*
X129389000Y-86536860D01*
X129389000Y-86223140D01*
X129390323Y-86209705D01*
X129392451Y-86202691D01*
X129399810Y-86188923D01*
X129409187Y-86166284D01*
X129413967Y-86142251D01*
X129413967Y-86117747D01*
X129409186Y-86093714D01*
X129399810Y-86071077D01*
X129392451Y-86057309D01*
X129390323Y-86050295D01*
X129389000Y-86036860D01*
X129389000Y-85723140D01*
X129390323Y-85709705D01*
X129392451Y-85702691D01*
X129399810Y-85688923D01*
X129409187Y-85666284D01*
X129413967Y-85642251D01*
X129413967Y-85617747D01*
X129409186Y-85593714D01*
X129399810Y-85571077D01*
X129392451Y-85557309D01*
X129390323Y-85550295D01*
X129389000Y-85536860D01*
X129389000Y-85223140D01*
X129390323Y-85209705D01*
X129392451Y-85202691D01*
X129399810Y-85188923D01*
X129409187Y-85166284D01*
X129413967Y-85142251D01*
X129413967Y-85117747D01*
X129409186Y-85093714D01*
X129399810Y-85071077D01*
X129392451Y-85057309D01*
X129390323Y-85050295D01*
X129389000Y-85036860D01*
X129389000Y-84723140D01*
X129390323Y-84709705D01*
X129392451Y-84702691D01*
X129399810Y-84688923D01*
X129409187Y-84666284D01*
X129413967Y-84642251D01*
X129413967Y-84617747D01*
X129409186Y-84593714D01*
X129399810Y-84571077D01*
X129392451Y-84557309D01*
X129390323Y-84550295D01*
X129389000Y-84536860D01*
X129389000Y-84223140D01*
X129390323Y-84209705D01*
X129392451Y-84202691D01*
X129399810Y-84188923D01*
X129409187Y-84166284D01*
X129413967Y-84142251D01*
X129413967Y-84117747D01*
X129409186Y-84093714D01*
X129399810Y-84071077D01*
X129392451Y-84057309D01*
X129390323Y-84050295D01*
X129389000Y-84036860D01*
X129389000Y-83723140D01*
X129390323Y-83709705D01*
X129392451Y-83702690D01*
X129395908Y-83696224D01*
X129400558Y-83690558D01*
X129406224Y-83685908D01*
X129412690Y-83682451D01*
X129419705Y-83680323D01*
X129433140Y-83679000D01*
X130996860Y-83679000D01*
X131010295Y-83680323D01*
G37*
G36*
X181241000Y-91071000D02*
G01*
X179439000Y-91071000D01*
X179439000Y-89269000D01*
X181241000Y-89269000D01*
X181241000Y-91071000D01*
G37*
G36*
X99961000Y-90436000D02*
G01*
X98159000Y-90436000D01*
X98159000Y-88634000D01*
X99961000Y-88634000D01*
X99961000Y-90436000D01*
G37*
G36*
X99173512Y-86098927D02*
G01*
X99322812Y-86128624D01*
X99486784Y-86196544D01*
X99634354Y-86295147D01*
X99759853Y-86420646D01*
X99858456Y-86568216D01*
X99926376Y-86732188D01*
X99961000Y-86906259D01*
X99961000Y-87083741D01*
X99926376Y-87257812D01*
X99858456Y-87421784D01*
X99759853Y-87569354D01*
X99634354Y-87694853D01*
X99486784Y-87793456D01*
X99322812Y-87861376D01*
X99173512Y-87891073D01*
X99148742Y-87896000D01*
X98971258Y-87896000D01*
X98946488Y-87891073D01*
X98797188Y-87861376D01*
X98633216Y-87793456D01*
X98485646Y-87694853D01*
X98360147Y-87569354D01*
X98261544Y-87421784D01*
X98193624Y-87257812D01*
X98159000Y-87083741D01*
X98159000Y-86906259D01*
X98193624Y-86732188D01*
X98261544Y-86568216D01*
X98360147Y-86420646D01*
X98485646Y-86295147D01*
X98633216Y-86196544D01*
X98797188Y-86128624D01*
X98946488Y-86098927D01*
X98971258Y-86094000D01*
X99148742Y-86094000D01*
X99173512Y-86098927D01*
G37*
G36*
X167271000Y-87896000D02*
G01*
X165469000Y-87896000D01*
X165469000Y-86094000D01*
X167271000Y-86094000D01*
X167271000Y-87896000D01*
G37*
G36*
X124073228Y-86176703D02*
G01*
X124228100Y-86240853D01*
X124367481Y-86333985D01*
X124486015Y-86452519D01*
X124579147Y-86591900D01*
X124643297Y-86746772D01*
X124676000Y-86911184D01*
X124676000Y-87078816D01*
X124643297Y-87243228D01*
X124579147Y-87398100D01*
X124486015Y-87537481D01*
X124367481Y-87656015D01*
X124228100Y-87749147D01*
X124073228Y-87813297D01*
X123908816Y-87846000D01*
X123741184Y-87846000D01*
X123576772Y-87813297D01*
X123421900Y-87749147D01*
X123282519Y-87656015D01*
X123163985Y-87537481D01*
X123070853Y-87398100D01*
X123006703Y-87243228D01*
X122974000Y-87078816D01*
X122974000Y-86911184D01*
X123006703Y-86746772D01*
X123070853Y-86591900D01*
X123163985Y-86452519D01*
X123282519Y-86333985D01*
X123421900Y-86240853D01*
X123576772Y-86176703D01*
X123741184Y-86144000D01*
X123908816Y-86144000D01*
X124073228Y-86176703D01*
G37*
G36*
X166483512Y-83558927D02*
G01*
X166632812Y-83588624D01*
X166796784Y-83656544D01*
X166944354Y-83755147D01*
X167069853Y-83880646D01*
X167168456Y-84028216D01*
X167236376Y-84192188D01*
X167253743Y-84279500D01*
X167271000Y-84366258D01*
X167271000Y-84543742D01*
X167269444Y-84551564D01*
X167236376Y-84717812D01*
X167168456Y-84881784D01*
X167069853Y-85029354D01*
X166944354Y-85154853D01*
X166796784Y-85253456D01*
X166632812Y-85321376D01*
X166483512Y-85351073D01*
X166458742Y-85356000D01*
X166281258Y-85356000D01*
X166256488Y-85351073D01*
X166107188Y-85321376D01*
X165943216Y-85253456D01*
X165795646Y-85154853D01*
X165670147Y-85029354D01*
X165571544Y-84881784D01*
X165503624Y-84717812D01*
X165470556Y-84551564D01*
X165469000Y-84543742D01*
X165469000Y-84366258D01*
X165486257Y-84279500D01*
X165503624Y-84192188D01*
X165571544Y-84028216D01*
X165670147Y-83880646D01*
X165795646Y-83755147D01*
X165943216Y-83656544D01*
X166107188Y-83588624D01*
X166256488Y-83558927D01*
X166281258Y-83554000D01*
X166458742Y-83554000D01*
X166483512Y-83558927D01*
G37*
G36*
X99173512Y-83558927D02*
G01*
X99322812Y-83588624D01*
X99486784Y-83656544D01*
X99634354Y-83755147D01*
X99759853Y-83880646D01*
X99858456Y-84028216D01*
X99926376Y-84192188D01*
X99943743Y-84279500D01*
X99961000Y-84366258D01*
X99961000Y-84543742D01*
X99959444Y-84551564D01*
X99926376Y-84717812D01*
X99858456Y-84881784D01*
X99759853Y-85029354D01*
X99634354Y-85154853D01*
X99486784Y-85253456D01*
X99322812Y-85321376D01*
X99173512Y-85351073D01*
X99148742Y-85356000D01*
X98971258Y-85356000D01*
X98946488Y-85351073D01*
X98797188Y-85321376D01*
X98633216Y-85253456D01*
X98485646Y-85154853D01*
X98360147Y-85029354D01*
X98261544Y-84881784D01*
X98193624Y-84717812D01*
X98160556Y-84551564D01*
X98159000Y-84543742D01*
X98159000Y-84366258D01*
X98176257Y-84279500D01*
X98193624Y-84192188D01*
X98261544Y-84028216D01*
X98360147Y-83880646D01*
X98485646Y-83755147D01*
X98633216Y-83656544D01*
X98797188Y-83588624D01*
X98946488Y-83558927D01*
X98971258Y-83554000D01*
X99148742Y-83554000D01*
X99173512Y-83558927D01*
G37*
G36*
X124073228Y-83676703D02*
G01*
X124228100Y-83740853D01*
X124367481Y-83833985D01*
X124486015Y-83952519D01*
X124579147Y-84091900D01*
X124643297Y-84246772D01*
X124676000Y-84411184D01*
X124676000Y-84578816D01*
X124643297Y-84743228D01*
X124579147Y-84898100D01*
X124486015Y-85037481D01*
X124367481Y-85156015D01*
X124228100Y-85249147D01*
X124073228Y-85313297D01*
X123908816Y-85346000D01*
X123741184Y-85346000D01*
X123576772Y-85313297D01*
X123421900Y-85249147D01*
X123282519Y-85156015D01*
X123163985Y-85037481D01*
X123070853Y-84898100D01*
X123006703Y-84743228D01*
X122974000Y-84578816D01*
X122974000Y-84411184D01*
X123006703Y-84246772D01*
X123070853Y-84091900D01*
X123163985Y-83952519D01*
X123282519Y-83833985D01*
X123421900Y-83740853D01*
X123576772Y-83676703D01*
X123741184Y-83644000D01*
X123908816Y-83644000D01*
X124073228Y-83676703D01*
G37*
G36*
X132310295Y-81130323D02*
G01*
X132317309Y-81132451D01*
X132331077Y-81139810D01*
X132353716Y-81149187D01*
X132377749Y-81153967D01*
X132402253Y-81153967D01*
X132426286Y-81149186D01*
X132448923Y-81139810D01*
X132462691Y-81132451D01*
X132469705Y-81130323D01*
X132483140Y-81129000D01*
X132796860Y-81129000D01*
X132810295Y-81130323D01*
X132817309Y-81132451D01*
X132831077Y-81139810D01*
X132853716Y-81149187D01*
X132877749Y-81153967D01*
X132902253Y-81153967D01*
X132926286Y-81149186D01*
X132948923Y-81139810D01*
X132962691Y-81132451D01*
X132969705Y-81130323D01*
X132983140Y-81129000D01*
X133296860Y-81129000D01*
X133310295Y-81130323D01*
X133317309Y-81132451D01*
X133331077Y-81139810D01*
X133353716Y-81149187D01*
X133377749Y-81153967D01*
X133402253Y-81153967D01*
X133426286Y-81149186D01*
X133448923Y-81139810D01*
X133462691Y-81132451D01*
X133469705Y-81130323D01*
X133483140Y-81129000D01*
X133796860Y-81129000D01*
X133810295Y-81130323D01*
X133817309Y-81132451D01*
X133831077Y-81139810D01*
X133853716Y-81149187D01*
X133877749Y-81153967D01*
X133902253Y-81153967D01*
X133926286Y-81149186D01*
X133948923Y-81139810D01*
X133962691Y-81132451D01*
X133969705Y-81130323D01*
X133983140Y-81129000D01*
X134296860Y-81129000D01*
X134310295Y-81130323D01*
X134317309Y-81132451D01*
X134331077Y-81139810D01*
X134353716Y-81149187D01*
X134377749Y-81153967D01*
X134402253Y-81153967D01*
X134426286Y-81149186D01*
X134448923Y-81139810D01*
X134462691Y-81132451D01*
X134469705Y-81130323D01*
X134483140Y-81129000D01*
X134796860Y-81129000D01*
X134810295Y-81130323D01*
X134817309Y-81132451D01*
X134831077Y-81139810D01*
X134853716Y-81149187D01*
X134877749Y-81153967D01*
X134902253Y-81153967D01*
X134926286Y-81149186D01*
X134948923Y-81139810D01*
X134962691Y-81132451D01*
X134969705Y-81130323D01*
X134983140Y-81129000D01*
X135296860Y-81129000D01*
X135310295Y-81130323D01*
X135317309Y-81132451D01*
X135331077Y-81139810D01*
X135353716Y-81149187D01*
X135377749Y-81153967D01*
X135402253Y-81153967D01*
X135426286Y-81149186D01*
X135448923Y-81139810D01*
X135462691Y-81132451D01*
X135469705Y-81130323D01*
X135483140Y-81129000D01*
X135796860Y-81129000D01*
X135810295Y-81130323D01*
X135817309Y-81132451D01*
X135831077Y-81139810D01*
X135853716Y-81149187D01*
X135877749Y-81153967D01*
X135902253Y-81153967D01*
X135926286Y-81149186D01*
X135948923Y-81139810D01*
X135962691Y-81132451D01*
X135969705Y-81130323D01*
X135983140Y-81129000D01*
X136296860Y-81129000D01*
X136310295Y-81130323D01*
X136317309Y-81132451D01*
X136331077Y-81139810D01*
X136353716Y-81149187D01*
X136377749Y-81153967D01*
X136402253Y-81153967D01*
X136426286Y-81149186D01*
X136448923Y-81139810D01*
X136462691Y-81132451D01*
X136469705Y-81130323D01*
X136483140Y-81129000D01*
X136796860Y-81129000D01*
X136810295Y-81130323D01*
X136817309Y-81132451D01*
X136831077Y-81139810D01*
X136853716Y-81149187D01*
X136877749Y-81153967D01*
X136902253Y-81153967D01*
X136926286Y-81149186D01*
X136948923Y-81139810D01*
X136962691Y-81132451D01*
X136969705Y-81130323D01*
X136983140Y-81129000D01*
X137296860Y-81129000D01*
X137310295Y-81130323D01*
X137317309Y-81132451D01*
X137331077Y-81139810D01*
X137353716Y-81149187D01*
X137377749Y-81153967D01*
X137402253Y-81153967D01*
X137426286Y-81149186D01*
X137448923Y-81139810D01*
X137462691Y-81132451D01*
X137469705Y-81130323D01*
X137483140Y-81129000D01*
X137796860Y-81129000D01*
X137810295Y-81130323D01*
X137817309Y-81132451D01*
X137831077Y-81139810D01*
X137853716Y-81149187D01*
X137877749Y-81153967D01*
X137902253Y-81153967D01*
X137926286Y-81149186D01*
X137948923Y-81139810D01*
X137962691Y-81132451D01*
X137969705Y-81130323D01*
X137983140Y-81129000D01*
X138296860Y-81129000D01*
X138310295Y-81130323D01*
X138317309Y-81132451D01*
X138331077Y-81139810D01*
X138353716Y-81149187D01*
X138377749Y-81153967D01*
X138402253Y-81153967D01*
X138426286Y-81149186D01*
X138448923Y-81139810D01*
X138462691Y-81132451D01*
X138469705Y-81130323D01*
X138483140Y-81129000D01*
X138796860Y-81129000D01*
X138810295Y-81130323D01*
X138817309Y-81132451D01*
X138831077Y-81139810D01*
X138853716Y-81149187D01*
X138877749Y-81153967D01*
X138902253Y-81153967D01*
X138926286Y-81149186D01*
X138948923Y-81139810D01*
X138962691Y-81132451D01*
X138969705Y-81130323D01*
X138983140Y-81129000D01*
X139296860Y-81129000D01*
X139310295Y-81130323D01*
X139317309Y-81132451D01*
X139331077Y-81139810D01*
X139353716Y-81149187D01*
X139377749Y-81153967D01*
X139402253Y-81153967D01*
X139426286Y-81149186D01*
X139448923Y-81139810D01*
X139462691Y-81132451D01*
X139469705Y-81130323D01*
X139483140Y-81129000D01*
X139796860Y-81129000D01*
X139810295Y-81130323D01*
X139817310Y-81132451D01*
X139823776Y-81135908D01*
X139829442Y-81140558D01*
X139834092Y-81146224D01*
X139837549Y-81152690D01*
X139839677Y-81159705D01*
X139841000Y-81173140D01*
X139841000Y-82736860D01*
X139839677Y-82750295D01*
X139837549Y-82757310D01*
X139834092Y-82763776D01*
X139829442Y-82769442D01*
X139823776Y-82774092D01*
X139817310Y-82777549D01*
X139810295Y-82779677D01*
X139796860Y-82781000D01*
X139483140Y-82781000D01*
X139469705Y-82779677D01*
X139462691Y-82777549D01*
X139448923Y-82770190D01*
X139426284Y-82760813D01*
X139402251Y-82756033D01*
X139377747Y-82756033D01*
X139353714Y-82760814D01*
X139331077Y-82770190D01*
X139317309Y-82777549D01*
X139310295Y-82779677D01*
X139296860Y-82781000D01*
X138983140Y-82781000D01*
X138969705Y-82779677D01*
X138962691Y-82777549D01*
X138948923Y-82770190D01*
X138926284Y-82760813D01*
X138902251Y-82756033D01*
X138877747Y-82756033D01*
X138853714Y-82760814D01*
X138831077Y-82770190D01*
X138817309Y-82777549D01*
X138810295Y-82779677D01*
X138796860Y-82781000D01*
X138483140Y-82781000D01*
X138469705Y-82779677D01*
X138462691Y-82777549D01*
X138448923Y-82770190D01*
X138426284Y-82760813D01*
X138402251Y-82756033D01*
X138377747Y-82756033D01*
X138353714Y-82760814D01*
X138331077Y-82770190D01*
X138317309Y-82777549D01*
X138310295Y-82779677D01*
X138296860Y-82781000D01*
X137983140Y-82781000D01*
X137969705Y-82779677D01*
X137962691Y-82777549D01*
X137948923Y-82770190D01*
X137926284Y-82760813D01*
X137902251Y-82756033D01*
X137877747Y-82756033D01*
X137853714Y-82760814D01*
X137831077Y-82770190D01*
X137817309Y-82777549D01*
X137810295Y-82779677D01*
X137796860Y-82781000D01*
X137483140Y-82781000D01*
X137469705Y-82779677D01*
X137462691Y-82777549D01*
X137448923Y-82770190D01*
X137426284Y-82760813D01*
X137402251Y-82756033D01*
X137377747Y-82756033D01*
X137353714Y-82760814D01*
X137331077Y-82770190D01*
X137317309Y-82777549D01*
X137310295Y-82779677D01*
X137296860Y-82781000D01*
X136983140Y-82781000D01*
X136969705Y-82779677D01*
X136962691Y-82777549D01*
X136948923Y-82770190D01*
X136926284Y-82760813D01*
X136902251Y-82756033D01*
X136877747Y-82756033D01*
X136853714Y-82760814D01*
X136831077Y-82770190D01*
X136817309Y-82777549D01*
X136810295Y-82779677D01*
X136796860Y-82781000D01*
X136483140Y-82781000D01*
X136469705Y-82779677D01*
X136462691Y-82777549D01*
X136448923Y-82770190D01*
X136426284Y-82760813D01*
X136402251Y-82756033D01*
X136377747Y-82756033D01*
X136353714Y-82760814D01*
X136331077Y-82770190D01*
X136317309Y-82777549D01*
X136310295Y-82779677D01*
X136296860Y-82781000D01*
X135983140Y-82781000D01*
X135969705Y-82779677D01*
X135962691Y-82777549D01*
X135948923Y-82770190D01*
X135926284Y-82760813D01*
X135902251Y-82756033D01*
X135877747Y-82756033D01*
X135853714Y-82760814D01*
X135831077Y-82770190D01*
X135817309Y-82777549D01*
X135810295Y-82779677D01*
X135796860Y-82781000D01*
X135483140Y-82781000D01*
X135469705Y-82779677D01*
X135462691Y-82777549D01*
X135448923Y-82770190D01*
X135426284Y-82760813D01*
X135402251Y-82756033D01*
X135377747Y-82756033D01*
X135353714Y-82760814D01*
X135331077Y-82770190D01*
X135317309Y-82777549D01*
X135310295Y-82779677D01*
X135296860Y-82781000D01*
X134983140Y-82781000D01*
X134969705Y-82779677D01*
X134962691Y-82777549D01*
X134948923Y-82770190D01*
X134926284Y-82760813D01*
X134902251Y-82756033D01*
X134877747Y-82756033D01*
X134853714Y-82760814D01*
X134831077Y-82770190D01*
X134817309Y-82777549D01*
X134810295Y-82779677D01*
X134796860Y-82781000D01*
X134483140Y-82781000D01*
X134469705Y-82779677D01*
X134462691Y-82777549D01*
X134448923Y-82770190D01*
X134426284Y-82760813D01*
X134402251Y-82756033D01*
X134377747Y-82756033D01*
X134353714Y-82760814D01*
X134331077Y-82770190D01*
X134317309Y-82777549D01*
X134310295Y-82779677D01*
X134296860Y-82781000D01*
X133983140Y-82781000D01*
X133969705Y-82779677D01*
X133962691Y-82777549D01*
X133948923Y-82770190D01*
X133926284Y-82760813D01*
X133902251Y-82756033D01*
X133877747Y-82756033D01*
X133853714Y-82760814D01*
X133831077Y-82770190D01*
X133817309Y-82777549D01*
X133810295Y-82779677D01*
X133796860Y-82781000D01*
X133483140Y-82781000D01*
X133469705Y-82779677D01*
X133462691Y-82777549D01*
X133448923Y-82770190D01*
X133426284Y-82760813D01*
X133402251Y-82756033D01*
X133377747Y-82756033D01*
X133353714Y-82760814D01*
X133331077Y-82770190D01*
X133317309Y-82777549D01*
X133310295Y-82779677D01*
X133296860Y-82781000D01*
X132983140Y-82781000D01*
X132969705Y-82779677D01*
X132962691Y-82777549D01*
X132948923Y-82770190D01*
X132926284Y-82760813D01*
X132902251Y-82756033D01*
X132877747Y-82756033D01*
X132853714Y-82760814D01*
X132831077Y-82770190D01*
X132817309Y-82777549D01*
X132810295Y-82779677D01*
X132796860Y-82781000D01*
X132483140Y-82781000D01*
X132469705Y-82779677D01*
X132462691Y-82777549D01*
X132448923Y-82770190D01*
X132426284Y-82760813D01*
X132402251Y-82756033D01*
X132377747Y-82756033D01*
X132353714Y-82760814D01*
X132331077Y-82770190D01*
X132317309Y-82777549D01*
X132310295Y-82779677D01*
X132296860Y-82781000D01*
X131983140Y-82781000D01*
X131969705Y-82779677D01*
X131962690Y-82777549D01*
X131956224Y-82774092D01*
X131950558Y-82769442D01*
X131945908Y-82763776D01*
X131942451Y-82757310D01*
X131940323Y-82750295D01*
X131939000Y-82736860D01*
X131939000Y-81173140D01*
X131940323Y-81159705D01*
X131942451Y-81152690D01*
X131945908Y-81146224D01*
X131950558Y-81140558D01*
X131956224Y-81135908D01*
X131962690Y-81132451D01*
X131969705Y-81130323D01*
X131983140Y-81129000D01*
X132296860Y-81129000D01*
X132310295Y-81130323D01*
G37*
G36*
X148703512Y-80383927D02*
G01*
X148852812Y-80413624D01*
X149016784Y-80481544D01*
X149164354Y-80580147D01*
X149289853Y-80705646D01*
X149388456Y-80853216D01*
X149456376Y-81017188D01*
X149483328Y-81152690D01*
X149490957Y-81191040D01*
X149491000Y-81191259D01*
X149491000Y-81368741D01*
X149456376Y-81542812D01*
X149388456Y-81706784D01*
X149289853Y-81854354D01*
X149164354Y-81979853D01*
X149016784Y-82078456D01*
X148852812Y-82146376D01*
X148703512Y-82176073D01*
X148678742Y-82181000D01*
X148501258Y-82181000D01*
X148476488Y-82176073D01*
X148327188Y-82146376D01*
X148163216Y-82078456D01*
X148015646Y-81979853D01*
X147890147Y-81854354D01*
X147791544Y-81706784D01*
X147723624Y-81542812D01*
X147689000Y-81368741D01*
X147689000Y-81191259D01*
X147689044Y-81191040D01*
X147696672Y-81152690D01*
X147723624Y-81017188D01*
X147791544Y-80853216D01*
X147890147Y-80705646D01*
X148015646Y-80580147D01*
X148163216Y-80481544D01*
X148327188Y-80413624D01*
X148476488Y-80383927D01*
X148501258Y-80379000D01*
X148678742Y-80379000D01*
X148703512Y-80383927D01*
G37*
G36*
X148703512Y-77843927D02*
G01*
X148852812Y-77873624D01*
X149016784Y-77941544D01*
X149164354Y-78040147D01*
X149289853Y-78165646D01*
X149388456Y-78313216D01*
X149456376Y-78477188D01*
X149491000Y-78651259D01*
X149491000Y-78828741D01*
X149456376Y-79002812D01*
X149388456Y-79166784D01*
X149289853Y-79314354D01*
X149164354Y-79439853D01*
X149016784Y-79538456D01*
X148852812Y-79606376D01*
X148703512Y-79636073D01*
X148678742Y-79641000D01*
X148501258Y-79641000D01*
X148476488Y-79636073D01*
X148327188Y-79606376D01*
X148163216Y-79538456D01*
X148015646Y-79439853D01*
X147890147Y-79314354D01*
X147791544Y-79166784D01*
X147723624Y-79002812D01*
X147689000Y-78828741D01*
X147689000Y-78651259D01*
X147723624Y-78477188D01*
X147791544Y-78313216D01*
X147890147Y-78165646D01*
X148015646Y-78040147D01*
X148163216Y-77941544D01*
X148327188Y-77873624D01*
X148476488Y-77843927D01*
X148501258Y-77839000D01*
X148678742Y-77839000D01*
X148703512Y-77843927D01*
G37*
G36*
X130383228Y-77286703D02*
G01*
X130538100Y-77350853D01*
X130677481Y-77443985D01*
X130796015Y-77562519D01*
X130889147Y-77701900D01*
X130953297Y-77856772D01*
X130986000Y-78021184D01*
X130986000Y-78188816D01*
X130953297Y-78353228D01*
X130889147Y-78508100D01*
X130796015Y-78647481D01*
X130677481Y-78766015D01*
X130538100Y-78859147D01*
X130383228Y-78923297D01*
X130218816Y-78956000D01*
X130051184Y-78956000D01*
X129886772Y-78923297D01*
X129731900Y-78859147D01*
X129592519Y-78766015D01*
X129473985Y-78647481D01*
X129380853Y-78508100D01*
X129316703Y-78353228D01*
X129284000Y-78188816D01*
X129284000Y-78021184D01*
X129316703Y-77856772D01*
X129380853Y-77701900D01*
X129473985Y-77562519D01*
X129592519Y-77443985D01*
X129731900Y-77350853D01*
X129886772Y-77286703D01*
X130051184Y-77254000D01*
X130218816Y-77254000D01*
X130383228Y-77286703D01*
G37*
G36*
X127883228Y-77286703D02*
G01*
X128038100Y-77350853D01*
X128177481Y-77443985D01*
X128296015Y-77562519D01*
X128389147Y-77701900D01*
X128453297Y-77856772D01*
X128486000Y-78021184D01*
X128486000Y-78188816D01*
X128453297Y-78353228D01*
X128389147Y-78508100D01*
X128296015Y-78647481D01*
X128177481Y-78766015D01*
X128038100Y-78859147D01*
X127883228Y-78923297D01*
X127718816Y-78956000D01*
X127551184Y-78956000D01*
X127386772Y-78923297D01*
X127231900Y-78859147D01*
X127092519Y-78766015D01*
X126973985Y-78647481D01*
X126880853Y-78508100D01*
X126816703Y-78353228D01*
X126784000Y-78188816D01*
X126784000Y-78021184D01*
X126816703Y-77856772D01*
X126880853Y-77701900D01*
X126973985Y-77562519D01*
X127092519Y-77443985D01*
X127231900Y-77350853D01*
X127386772Y-77286703D01*
X127551184Y-77254000D01*
X127718816Y-77254000D01*
X127883228Y-77286703D01*
G37*
G36*
X148703512Y-75303927D02*
G01*
X148852812Y-75333624D01*
X149016784Y-75401544D01*
X149164354Y-75500147D01*
X149289853Y-75625646D01*
X149388456Y-75773216D01*
X149456376Y-75937188D01*
X149491000Y-76111259D01*
X149491000Y-76288741D01*
X149456376Y-76462812D01*
X149388456Y-76626784D01*
X149289853Y-76774354D01*
X149164354Y-76899853D01*
X149016784Y-76998456D01*
X148852812Y-77066376D01*
X148703512Y-77096073D01*
X148678742Y-77101000D01*
X148501258Y-77101000D01*
X148476488Y-77096073D01*
X148327188Y-77066376D01*
X148163216Y-76998456D01*
X148015646Y-76899853D01*
X147890147Y-76774354D01*
X147791544Y-76626784D01*
X147723624Y-76462812D01*
X147689000Y-76288741D01*
X147689000Y-76111259D01*
X147723624Y-75937188D01*
X147791544Y-75773216D01*
X147890147Y-75625646D01*
X148015646Y-75500147D01*
X148163216Y-75401544D01*
X148327188Y-75333624D01*
X148476488Y-75303927D01*
X148501258Y-75299000D01*
X148678742Y-75299000D01*
X148703512Y-75303927D01*
G37*
G36*
X148703512Y-72763927D02*
G01*
X148852812Y-72793624D01*
X149016784Y-72861544D01*
X149164354Y-72960147D01*
X149289853Y-73085646D01*
X149388456Y-73233216D01*
X149456376Y-73397188D01*
X149491000Y-73571259D01*
X149491000Y-73748741D01*
X149456376Y-73922812D01*
X149388456Y-74086784D01*
X149289853Y-74234354D01*
X149164354Y-74359853D01*
X149016784Y-74458456D01*
X148852812Y-74526376D01*
X148703512Y-74556073D01*
X148678742Y-74561000D01*
X148501258Y-74561000D01*
X148476488Y-74556073D01*
X148327188Y-74526376D01*
X148163216Y-74458456D01*
X148015646Y-74359853D01*
X147890147Y-74234354D01*
X147791544Y-74086784D01*
X147723624Y-73922812D01*
X147689000Y-73748741D01*
X147689000Y-73571259D01*
X147723624Y-73397188D01*
X147791544Y-73233216D01*
X147890147Y-73085646D01*
X148015646Y-72960147D01*
X148163216Y-72861544D01*
X148327188Y-72793624D01*
X148476488Y-72763927D01*
X148501258Y-72759000D01*
X148678742Y-72759000D01*
X148703512Y-72763927D01*
G37*
G36*
X167271000Y-72656000D02*
G01*
X165469000Y-72656000D01*
X165469000Y-70854000D01*
X167271000Y-70854000D01*
X167271000Y-72656000D01*
G37*
G36*
X99961000Y-72021000D02*
G01*
X98159000Y-72021000D01*
X98159000Y-70219000D01*
X99961000Y-70219000D01*
X99961000Y-72021000D01*
G37*
G36*
X149491000Y-72021000D02*
G01*
X147689000Y-72021000D01*
X147689000Y-70219000D01*
X149491000Y-70219000D01*
X149491000Y-72021000D01*
G37*
G36*
X96633512Y-70223927D02*
G01*
X96782812Y-70253624D01*
X96946784Y-70321544D01*
X97094354Y-70420147D01*
X97219853Y-70545646D01*
X97318456Y-70693216D01*
X97386376Y-70857188D01*
X97421000Y-71031259D01*
X97421000Y-71208741D01*
X97386376Y-71382812D01*
X97318456Y-71546784D01*
X97219853Y-71694354D01*
X97094354Y-71819853D01*
X96946784Y-71918456D01*
X96782812Y-71986376D01*
X96633512Y-72016073D01*
X96608742Y-72021000D01*
X96431258Y-72021000D01*
X96406488Y-72016073D01*
X96257188Y-71986376D01*
X96093216Y-71918456D01*
X95945646Y-71819853D01*
X95820147Y-71694354D01*
X95721544Y-71546784D01*
X95653624Y-71382812D01*
X95619000Y-71208741D01*
X95619000Y-71031259D01*
X95653624Y-70857188D01*
X95721544Y-70693216D01*
X95820147Y-70545646D01*
X95945646Y-70420147D01*
X96093216Y-70321544D01*
X96257188Y-70253624D01*
X96406488Y-70223927D01*
X96431258Y-70219000D01*
X96608742Y-70219000D01*
X96633512Y-70223927D01*
G37*
G36*
X166483512Y-68318927D02*
G01*
X166632812Y-68348624D01*
X166796784Y-68416544D01*
X166944354Y-68515147D01*
X167069853Y-68640646D01*
X167168456Y-68788216D01*
X167236376Y-68952188D01*
X167271000Y-69126259D01*
X167271000Y-69303741D01*
X167236376Y-69477812D01*
X167168456Y-69641784D01*
X167069853Y-69789354D01*
X166944354Y-69914853D01*
X166796784Y-70013456D01*
X166632812Y-70081376D01*
X166483512Y-70111073D01*
X166458742Y-70116000D01*
X166281258Y-70116000D01*
X166256488Y-70111073D01*
X166107188Y-70081376D01*
X165943216Y-70013456D01*
X165795646Y-69914853D01*
X165670147Y-69789354D01*
X165571544Y-69641784D01*
X165503624Y-69477812D01*
X165469000Y-69303741D01*
X165469000Y-69126259D01*
X165503624Y-68952188D01*
X165571544Y-68788216D01*
X165670147Y-68640646D01*
X165795646Y-68515147D01*
X165943216Y-68416544D01*
X166107188Y-68348624D01*
X166256488Y-68318927D01*
X166281258Y-68314000D01*
X166458742Y-68314000D01*
X166483512Y-68318927D01*
G37*
G36*
X137908512Y-63873927D02*
G01*
X138057812Y-63903624D01*
X138221784Y-63971544D01*
X138369354Y-64070147D01*
X138494853Y-64195646D01*
X138593456Y-64343216D01*
X138661376Y-64507188D01*
X138696000Y-64681259D01*
X138696000Y-64858741D01*
X138661376Y-65032812D01*
X138593456Y-65196784D01*
X138494853Y-65344354D01*
X138369354Y-65469853D01*
X138221784Y-65568456D01*
X138057812Y-65636376D01*
X137908512Y-65666073D01*
X137883742Y-65671000D01*
X137706258Y-65671000D01*
X137681488Y-65666073D01*
X137532188Y-65636376D01*
X137368216Y-65568456D01*
X137220646Y-65469853D01*
X137095147Y-65344354D01*
X136996544Y-65196784D01*
X136928624Y-65032812D01*
X136894000Y-64858741D01*
X136894000Y-64681259D01*
X136928624Y-64507188D01*
X136996544Y-64343216D01*
X137095147Y-64195646D01*
X137220646Y-64070147D01*
X137368216Y-63971544D01*
X137532188Y-63903624D01*
X137681488Y-63873927D01*
X137706258Y-63869000D01*
X137883742Y-63869000D01*
X137908512Y-63873927D01*
G37*
G36*
X135368512Y-63873927D02*
G01*
X135517812Y-63903624D01*
X135681784Y-63971544D01*
X135829354Y-64070147D01*
X135954853Y-64195646D01*
X136053456Y-64343216D01*
X136121376Y-64507188D01*
X136156000Y-64681259D01*
X136156000Y-64858741D01*
X136121376Y-65032812D01*
X136053456Y-65196784D01*
X135954853Y-65344354D01*
X135829354Y-65469853D01*
X135681784Y-65568456D01*
X135517812Y-65636376D01*
X135368512Y-65666073D01*
X135343742Y-65671000D01*
X135166258Y-65671000D01*
X135141488Y-65666073D01*
X134992188Y-65636376D01*
X134828216Y-65568456D01*
X134680646Y-65469853D01*
X134555147Y-65344354D01*
X134456544Y-65196784D01*
X134388624Y-65032812D01*
X134354000Y-64858741D01*
X134354000Y-64681259D01*
X134388624Y-64507188D01*
X134456544Y-64343216D01*
X134555147Y-64195646D01*
X134680646Y-64070147D01*
X134828216Y-63971544D01*
X134992188Y-63903624D01*
X135141488Y-63873927D01*
X135166258Y-63869000D01*
X135343742Y-63869000D01*
X135368512Y-63873927D01*
G37*
G36*
X132828512Y-63873927D02*
G01*
X132977812Y-63903624D01*
X133141784Y-63971544D01*
X133289354Y-64070147D01*
X133414853Y-64195646D01*
X133513456Y-64343216D01*
X133581376Y-64507188D01*
X133616000Y-64681259D01*
X133616000Y-64858741D01*
X133581376Y-65032812D01*
X133513456Y-65196784D01*
X133414853Y-65344354D01*
X133289354Y-65469853D01*
X133141784Y-65568456D01*
X132977812Y-65636376D01*
X132828512Y-65666073D01*
X132803742Y-65671000D01*
X132626258Y-65671000D01*
X132601488Y-65666073D01*
X132452188Y-65636376D01*
X132288216Y-65568456D01*
X132140646Y-65469853D01*
X132015147Y-65344354D01*
X131916544Y-65196784D01*
X131848624Y-65032812D01*
X131814000Y-64858741D01*
X131814000Y-64681259D01*
X131848624Y-64507188D01*
X131916544Y-64343216D01*
X132015147Y-64195646D01*
X132140646Y-64070147D01*
X132288216Y-63971544D01*
X132452188Y-63903624D01*
X132601488Y-63873927D01*
X132626258Y-63869000D01*
X132803742Y-63869000D01*
X132828512Y-63873927D01*
G37*
G36*
X140448512Y-63873927D02*
G01*
X140597812Y-63903624D01*
X140761784Y-63971544D01*
X140909354Y-64070147D01*
X141034853Y-64195646D01*
X141133456Y-64343216D01*
X141201376Y-64507188D01*
X141236000Y-64681259D01*
X141236000Y-64858741D01*
X141201376Y-65032812D01*
X141133456Y-65196784D01*
X141034853Y-65344354D01*
X140909354Y-65469853D01*
X140761784Y-65568456D01*
X140597812Y-65636376D01*
X140448512Y-65666073D01*
X140423742Y-65671000D01*
X140246258Y-65671000D01*
X140221488Y-65666073D01*
X140072188Y-65636376D01*
X139908216Y-65568456D01*
X139760646Y-65469853D01*
X139635147Y-65344354D01*
X139536544Y-65196784D01*
X139468624Y-65032812D01*
X139434000Y-64858741D01*
X139434000Y-64681259D01*
X139468624Y-64507188D01*
X139536544Y-64343216D01*
X139635147Y-64195646D01*
X139760646Y-64070147D01*
X139908216Y-63971544D01*
X140072188Y-63903624D01*
X140221488Y-63873927D01*
X140246258Y-63869000D01*
X140423742Y-63869000D01*
X140448512Y-63873927D01*
G37*
G36*
X142988512Y-63873927D02*
G01*
X143137812Y-63903624D01*
X143301784Y-63971544D01*
X143449354Y-64070147D01*
X143574853Y-64195646D01*
X143673456Y-64343216D01*
X143741376Y-64507188D01*
X143776000Y-64681259D01*
X143776000Y-64858741D01*
X143741376Y-65032812D01*
X143673456Y-65196784D01*
X143574853Y-65344354D01*
X143449354Y-65469853D01*
X143301784Y-65568456D01*
X143137812Y-65636376D01*
X142988512Y-65666073D01*
X142963742Y-65671000D01*
X142786258Y-65671000D01*
X142761488Y-65666073D01*
X142612188Y-65636376D01*
X142448216Y-65568456D01*
X142300646Y-65469853D01*
X142175147Y-65344354D01*
X142076544Y-65196784D01*
X142008624Y-65032812D01*
X141974000Y-64858741D01*
X141974000Y-64681259D01*
X142008624Y-64507188D01*
X142076544Y-64343216D01*
X142175147Y-64195646D01*
X142300646Y-64070147D01*
X142448216Y-63971544D01*
X142612188Y-63903624D01*
X142761488Y-63873927D01*
X142786258Y-63869000D01*
X142963742Y-63869000D01*
X142988512Y-63873927D01*
G37*
G36*
X128536000Y-65671000D02*
G01*
X126734000Y-65671000D01*
X126734000Y-63869000D01*
X128536000Y-63869000D01*
X128536000Y-65671000D01*
G37*
G36*
X130288512Y-63873927D02*
G01*
X130437812Y-63903624D01*
X130601784Y-63971544D01*
X130749354Y-64070147D01*
X130874853Y-64195646D01*
X130973456Y-64343216D01*
X131041376Y-64507188D01*
X131076000Y-64681259D01*
X131076000Y-64858741D01*
X131041376Y-65032812D01*
X130973456Y-65196784D01*
X130874853Y-65344354D01*
X130749354Y-65469853D01*
X130601784Y-65568456D01*
X130437812Y-65636376D01*
X130288512Y-65666073D01*
X130263742Y-65671000D01*
X130086258Y-65671000D01*
X130061488Y-65666073D01*
X129912188Y-65636376D01*
X129748216Y-65568456D01*
X129600646Y-65469853D01*
X129475147Y-65344354D01*
X129376544Y-65196784D01*
X129308624Y-65032812D01*
X129274000Y-64858741D01*
X129274000Y-64681259D01*
X129308624Y-64507188D01*
X129376544Y-64343216D01*
X129475147Y-64195646D01*
X129600646Y-64070147D01*
X129748216Y-63971544D01*
X129912188Y-63903624D01*
X130061488Y-63873927D01*
X130086258Y-63869000D01*
X130263742Y-63869000D01*
X130288512Y-63873927D01*
G37*
G36*
X106293228Y-57601703D02*
G01*
X106448100Y-57665853D01*
X106587481Y-57758985D01*
X106706015Y-57877519D01*
X106799147Y-58016900D01*
X106863297Y-58171772D01*
X106896000Y-58336184D01*
X106896000Y-58503816D01*
X106863297Y-58668228D01*
X106799147Y-58823100D01*
X106706015Y-58962481D01*
X106587481Y-59081015D01*
X106448100Y-59174147D01*
X106293228Y-59238297D01*
X106128816Y-59271000D01*
X105961184Y-59271000D01*
X105796772Y-59238297D01*
X105641900Y-59174147D01*
X105502519Y-59081015D01*
X105383985Y-58962481D01*
X105290853Y-58823100D01*
X105226703Y-58668228D01*
X105194000Y-58503816D01*
X105194000Y-58336184D01*
X105226703Y-58171772D01*
X105290853Y-58016900D01*
X105383985Y-57877519D01*
X105502519Y-57758985D01*
X105641900Y-57665853D01*
X105796772Y-57601703D01*
X105961184Y-57569000D01*
X106128816Y-57569000D01*
X106293228Y-57601703D01*
G37*
G36*
X106293228Y-49981703D02*
G01*
X106448100Y-50045853D01*
X106587481Y-50138985D01*
X106706015Y-50257519D01*
X106799147Y-50396900D01*
X106863297Y-50551772D01*
X106896000Y-50716184D01*
X106896000Y-50883816D01*
X106863297Y-51048228D01*
X106799147Y-51203100D01*
X106706015Y-51342481D01*
X106587481Y-51461015D01*
X106448100Y-51554147D01*
X106293228Y-51618297D01*
X106128816Y-51651000D01*
X105961184Y-51651000D01*
X105796772Y-51618297D01*
X105641900Y-51554147D01*
X105502519Y-51461015D01*
X105383985Y-51342481D01*
X105290853Y-51203100D01*
X105226703Y-51048228D01*
X105194000Y-50883816D01*
X105194000Y-50716184D01*
X105226703Y-50551772D01*
X105290853Y-50396900D01*
X105383985Y-50257519D01*
X105502519Y-50138985D01*
X105641900Y-50045853D01*
X105796772Y-49981703D01*
X105961184Y-49949000D01*
X106128816Y-49949000D01*
X106293228Y-49981703D01*
G37*
G36*
X92958228Y-43631703D02*
G01*
X93113100Y-43695853D01*
X93252481Y-43788985D01*
X93371015Y-43907519D01*
X93464147Y-44046900D01*
X93528297Y-44201772D01*
X93561000Y-44366184D01*
X93561000Y-44533816D01*
X93528297Y-44698228D01*
X93464147Y-44853100D01*
X93371015Y-44992481D01*
X93252481Y-45111015D01*
X93113100Y-45204147D01*
X92958228Y-45268297D01*
X92793816Y-45301000D01*
X92626184Y-45301000D01*
X92461772Y-45268297D01*
X92306900Y-45204147D01*
X92167519Y-45111015D01*
X92048985Y-44992481D01*
X91955853Y-44853100D01*
X91891703Y-44698228D01*
X91859000Y-44533816D01*
X91859000Y-44366184D01*
X91891703Y-44201772D01*
X91955853Y-44046900D01*
X92048985Y-43907519D01*
X92167519Y-43788985D01*
X92306900Y-43695853D01*
X92461772Y-43631703D01*
X92626184Y-43599000D01*
X92793816Y-43599000D01*
X92958228Y-43631703D01*
G37*
G36*
X106139425Y-43704599D02*
G01*
X106263621Y-43729302D01*
X106400022Y-43785801D01*
X106522779Y-43867825D01*
X106627175Y-43972221D01*
X106709199Y-44094978D01*
X106765698Y-44231379D01*
X106794500Y-44376181D01*
X106794500Y-44523819D01*
X106765698Y-44668621D01*
X106709199Y-44805022D01*
X106627175Y-44927779D01*
X106522779Y-45032175D01*
X106400022Y-45114199D01*
X106263621Y-45170698D01*
X106139425Y-45195401D01*
X106118820Y-45199500D01*
X105971180Y-45199500D01*
X105950575Y-45195401D01*
X105826379Y-45170698D01*
X105689978Y-45114199D01*
X105567221Y-45032175D01*
X105462825Y-44927779D01*
X105380801Y-44805022D01*
X105324302Y-44668621D01*
X105295500Y-44523819D01*
X105295500Y-44376181D01*
X105324302Y-44231379D01*
X105380801Y-44094978D01*
X105462825Y-43972221D01*
X105567221Y-43867825D01*
X105689978Y-43785801D01*
X105826379Y-43729302D01*
X105950575Y-43704599D01*
X105971180Y-43700500D01*
X106118820Y-43700500D01*
X106139425Y-43704599D01*
G37*
G36*
X98519425Y-43704599D02*
G01*
X98643621Y-43729302D01*
X98780022Y-43785801D01*
X98902779Y-43867825D01*
X99007175Y-43972221D01*
X99089199Y-44094978D01*
X99145698Y-44231379D01*
X99174500Y-44376181D01*
X99174500Y-44523819D01*
X99145698Y-44668621D01*
X99089199Y-44805022D01*
X99007175Y-44927779D01*
X98902779Y-45032175D01*
X98780022Y-45114199D01*
X98643621Y-45170698D01*
X98519425Y-45195401D01*
X98498820Y-45199500D01*
X98351180Y-45199500D01*
X98330575Y-45195401D01*
X98206379Y-45170698D01*
X98069978Y-45114199D01*
X97947221Y-45032175D01*
X97842825Y-44927779D01*
X97760801Y-44805022D01*
X97704302Y-44668621D01*
X97675500Y-44523819D01*
X97675500Y-44376181D01*
X97704302Y-44231379D01*
X97760801Y-44094978D01*
X97842825Y-43972221D01*
X97947221Y-43867825D01*
X98069978Y-43785801D01*
X98206379Y-43729302D01*
X98330575Y-43704599D01*
X98351180Y-43700500D01*
X98498820Y-43700500D01*
X98519425Y-43704599D01*
G37*
G36*
X106139425Y-38624599D02*
G01*
X106263621Y-38649302D01*
X106400022Y-38705801D01*
X106522779Y-38787825D01*
X106627175Y-38892221D01*
X106709199Y-39014978D01*
X106765698Y-39151379D01*
X106794500Y-39296181D01*
X106794500Y-39443819D01*
X106765698Y-39588621D01*
X106709199Y-39725022D01*
X106627175Y-39847779D01*
X106522779Y-39952175D01*
X106400022Y-40034199D01*
X106263621Y-40090698D01*
X106139425Y-40115401D01*
X106118820Y-40119500D01*
X105971180Y-40119500D01*
X105950575Y-40115401D01*
X105826379Y-40090698D01*
X105689978Y-40034199D01*
X105567221Y-39952175D01*
X105462825Y-39847779D01*
X105380801Y-39725022D01*
X105324302Y-39588621D01*
X105295500Y-39443819D01*
X105295500Y-39296181D01*
X105324302Y-39151379D01*
X105380801Y-39014978D01*
X105462825Y-38892221D01*
X105567221Y-38787825D01*
X105689978Y-38705801D01*
X105826379Y-38649302D01*
X105950575Y-38624599D01*
X105971180Y-38620500D01*
X106118820Y-38620500D01*
X106139425Y-38624599D01*
G37*
G36*
X98519425Y-38624599D02*
G01*
X98643621Y-38649302D01*
X98780022Y-38705801D01*
X98902779Y-38787825D01*
X99007175Y-38892221D01*
X99089199Y-39014978D01*
X99145698Y-39151379D01*
X99174500Y-39296181D01*
X99174500Y-39443819D01*
X99145698Y-39588621D01*
X99089199Y-39725022D01*
X99007175Y-39847779D01*
X98902779Y-39952175D01*
X98780022Y-40034199D01*
X98643621Y-40090698D01*
X98519425Y-40115401D01*
X98498820Y-40119500D01*
X98351180Y-40119500D01*
X98330575Y-40115401D01*
X98206379Y-40090698D01*
X98069978Y-40034199D01*
X97947221Y-39952175D01*
X97842825Y-39847779D01*
X97760801Y-39725022D01*
X97704302Y-39588621D01*
X97675500Y-39443819D01*
X97675500Y-39296181D01*
X97704302Y-39151379D01*
X97760801Y-39014978D01*
X97842825Y-38892221D01*
X97947221Y-38787825D01*
X98069978Y-38705801D01*
X98206379Y-38649302D01*
X98330575Y-38624599D01*
X98351180Y-38620500D01*
X98498820Y-38620500D01*
X98519425Y-38624599D01*
G37*
G36*
X92958228Y-36131703D02*
G01*
X93113100Y-36195853D01*
X93252481Y-36288985D01*
X93371015Y-36407519D01*
X93464147Y-36546900D01*
X93528297Y-36701772D01*
X93561000Y-36866184D01*
X93561000Y-37033816D01*
X93528297Y-37198228D01*
X93464147Y-37353100D01*
X93371015Y-37492481D01*
X93252481Y-37611015D01*
X93113100Y-37704147D01*
X92958228Y-37768297D01*
X92793816Y-37801000D01*
X92626184Y-37801000D01*
X92461772Y-37768297D01*
X92306900Y-37704147D01*
X92167519Y-37611015D01*
X92048985Y-37492481D01*
X91955853Y-37353100D01*
X91891703Y-37198228D01*
X91859000Y-37033816D01*
X91859000Y-36866184D01*
X91891703Y-36701772D01*
X91955853Y-36546900D01*
X92048985Y-36407519D01*
X92167519Y-36288985D01*
X92306900Y-36195853D01*
X92461772Y-36131703D01*
X92626184Y-36099000D01*
X92793816Y-36099000D01*
X92958228Y-36131703D01*
G37*
M02*
